<?xml version="1.0" encoding="UTF-8"?>
<svg xmlns="http://www.w3.org/2000/svg" xmlns:xlink="http://www.w3.org/1999/xlink" version="1.2" >
<font id="NarkisBlockMFW-Thin">
<font-face  font-family="NarkisBlockMFW" units-per-em="1000" ascent="800" descent="-200" font-style="normal" font-weight="250" font-stretch="normal" cap-height="568" x-height="376" underline-position="-175" underline-thickness="50" />
<missing-glyph  d="M0 700 L500 700 L500 0 L0 0 L0 700 Z M420 650 L80 650 L250 395 L420 650 Z M450 95 L450 605 L280 350 L450 95 Z M420 50 L250 305 L80 50 L420 50 Z M50 95 L220 350 L50 605 L50 95 Z " />
<glyph glyph-name="space" unicode="&#x20;" horiz-adv-x="250" d="" />
<glyph glyph-name="exclam" unicode="&#x21;" horiz-adv-x="300" d="M149 157 L100 157 L82 616 L168 616 L149 157 Z M87 0 L87 75 L163 75 L163 0 L87 0 Z " />
<glyph glyph-name="quotedbl" unicode="&#x22;" horiz-adv-x="348" d="M213 381 L181 381 L249 626 L309 626 L213 381 Z M82 381 L50 381 L118 626 L178 626 L82 381 Z " />
<glyph glyph-name="numbersign" unicode="&#x23;" horiz-adv-x="528" d="M418 320 L334 320 L315 204 L399 204 L392 165 L307 165 L278 0 L241 0 L270 165 L180 165 L151 0 L114 0 L143 165 L57 165 L64 204 L150 204 L169 320 L83 320 L91 361 L176 361 L203 525 L241 525 L214 361 L304 361 L331 525 L368 525 L341 361 L426 361 L418 320 Z M206 320 L187 204 L277 204 L296 320 L206 320 Z " />
<glyph glyph-name="dollar" unicode="&#x24;" horiz-adv-x="530" d="M430 143 Q430 106 415.5 77.5 Q401 49 377 29.5 Q353 10 321.5 -0.5 Q290 -11 256 -11 L256 -79 L226 -79 L226 -11 Q201 -11 181.5 -10.5 Q162 -10 144 -7 Q126 -4 107.5 2 Q89 8 66 18 L66 72 Q103 52 143.5 43.5 Q184 35 226 35 L226 256 Q196 265 166 276.5 Q136 288 112 305 Q88 322 73 347 Q58 372 58 409 Q58 440 74.5 464 Q91 488 115.5 504.5 Q140 521 170 529.5 Q200 538 227 538 L227 603 L256 603 L256 538 Q287 538 328 532 Q369 526 398 514 L398 460 Q368 479 329.5 486 Q291 493 256 493 L256 301 Q287 292 318.5 280.5 Q350 269 374.5 252 Q399 235 414.5 208.5 Q430 182 430 143 Z M227 493 Q209 493 189.5 488.5 Q170 484 154 474.5 Q138 465 127.5 450 Q117 435 117 413 Q117 388 127 371.5 Q137 355 152.5 344 Q168 333 187.5 326 Q207 319 227 312 L227 493 Z M370 139 Q370 165 360 183 Q350 201 334 213 Q318 225 297.5 232.5 Q277 240 256 245 L256 35 Q307 36 338.5 60 Q370 84 370 139 Z " />
<glyph glyph-name="percent" unicode="&#x25;" horiz-adv-x="683" d="M626 146 Q626 116 620.5 88.5 Q615 61 601.5 40 Q588 19 566 6 Q544 -7 510 -7 Q476 -7 453.5 6 Q431 19 418 40.5 Q405 62 399.5 89.5 Q394 117 394 147 Q394 176 400 203.5 Q406 231 419.5 252.5 Q433 274 455.5 287 Q478 300 511 300 Q544 300 566.5 287 Q589 274 602 252 Q615 230 620.5 202.5 Q626 175 626 146 Z M242 0 L197 0 L439 529 L485 529 L242 0 Z M289 386 Q289 356 283.5 328.5 Q278 301 264.5 280 Q251 259 229 246 Q207 233 173 233 Q139 233 116.5 246 Q94 259 81 280.5 Q68 302 62.5 329.5 Q57 357 57 387 Q57 416 63 443.5 Q69 471 82.5 492.5 Q96 514 118.5 527 Q141 540 174 540 Q207 540 229.5 527 Q252 514 265 492 Q278 470 283.5 442.5 Q289 415 289 386 Z M580 147 Q580 164 577.5 184 Q575 204 567.5 221 Q560 238 546.5 249.5 Q533 261 511 261 Q488 261 474.5 250 Q461 239 453 222 Q445 205 442.5 185 Q440 165 440 147 Q440 130 443 109.5 Q446 89 453.5 72 Q461 55 475 43.5 Q489 32 511 32 Q533 32 546.5 43.5 Q560 55 567.5 72.5 Q575 90 577.5 110 Q580 130 580 147 Z M243 387 Q243 404 240.5 424 Q238 444 230.5 461 Q223 478 209.5 489.5 Q196 501 174 501 Q151 501 137.5 490 Q124 479 116 462 Q108 445 105.5 425 Q103 405 103 387 Q103 370 106 349.5 Q109 329 116.5 312 Q124 295 138 283.5 Q152 272 174 272 Q196 272 209.5 283.5 Q223 295 230.5 312.5 Q238 330 240.5 350 Q243 370 243 387 Z " />
<glyph glyph-name="ampersand" unicode="&#x26;" horiz-adv-x="680" d="M675 90 Q675 61 625 19 Q587 -13 540 -13 Q464 -13 387 70 Q286 -13 187 -13 Q118 -13 78 24 Q38 61 38 130 Q38 200 96 257 Q111 272 143 296 Q158 307 176 318 Q194 329 214 340 Q182 438 182 468 Q182 526 221 567 Q259 608 320 608 Q372 608 407 579 Q443 550 443 500 Q443 443 398 403 Q369 377 302 346 Q327 295 356.5 250 Q386 205 421 160 Q504 264 504 324 Q504 348 486 357 Q472 362 446 365 L446 383 L641 383 L641 365 Q609 360 596 353 Q572 339 556 311 L534 274 Q529 264 522.5 254 Q516 244 509 233 Q502 222 494 210.5 Q486 199 478 187 L443 135 Q459 103 500 78 Q541 52 576 52 Q606 52 626 64 Q630 67 633.5 70 Q637 73 641 77 L662 101 L675 90 Z M394 504 Q394 536 375 558 Q356 580 324 580 Q254 580 254 502 Q254 450 290 374 Q394 433 394 504 Z M364 94 Q348 113 332 135.5 Q316 158 299 184 Q264 238 227 310 L205 294 L185 279 Q172 268 154 249 Q121 211 121 162 Q121 110 154 74 Q189 36 238 36 Q297 36 364 94 Z " />
<glyph glyph-name="quotesingle" unicode="&#x27;" horiz-adv-x="217" d="M82 381 L50 381 L118 626 L178 626 L82 381 Z " />
<glyph glyph-name="parenleft" unicode="&#x28;" horiz-adv-x="290" d="M189 -115 Q161 -85 137.5 -37.5 Q114 10 96.5 63.5 Q79 117 69 170 Q59 223 59 263 Q59 303 69 356 Q79 409 96.5 462.5 Q114 516 137.5 563.5 Q161 611 189 641 L232 641 Q205 602 184 556 Q163 510 149.5 460.5 Q136 411 129 361 Q122 311 122 264 Q122 217 129 166.5 Q136 116 149.5 66.5 Q163 17 184 -29.5 Q205 -76 232 -115 L189 -115 Z " />
<glyph glyph-name="parenright" unicode="&#x29;" horiz-adv-x="290" d="M232 263 Q232 223 222 170 Q212 117 194.5 63.5 Q177 10 153.5 -37.5 Q130 -85 102 -115 L59 -115 Q86 -76 107 -29.5 Q128 17 141.5 66.5 Q155 116 162 166.5 Q169 217 169 264 Q169 311 162 361 Q155 411 141.5 460.5 Q128 510 107 556 Q86 602 59 641 L102 641 Q130 611 153.5 563.5 Q177 516 194.5 462.5 Q212 409 222 356 Q232 303 232 263 Z " />
<glyph glyph-name="asterisk" unicode="&#x2a;" horiz-adv-x="460" d="M370 364 L233 451 L240 289 L200 289 L208 450 L70 363 L50 398 L196 472 L54 547 L73 581 L209 494 L200 658 L240 658 L233 494 L368 581 L388 547 L248 472 L390 399 L370 364 Z " />
<glyph glyph-name="plus" unicode="&#x2b;" horiz-adv-x="500" d="M274 220 L274 44 L225 44 L225 220 L50 220 L50 269 L225 269 L225 445 L274 445 L274 269 L450 269 L450 220 L274 220 Z " />
<glyph glyph-name="comma" unicode="&#x2c;" horiz-adv-x="208" d="M50 -157 L14 -157 L67 77 L147 77 L50 -157 Z " />
<glyph glyph-name="hyphen" unicode="&#x2d;" horiz-adv-x="501" d="M50 234 L50 283 L450 283 L450 234 L50 234 Z " />
<glyph glyph-name="period" unicode="&#x2e;" horiz-adv-x="197" d="M41 0 L41 88 L122 88 L122 0 L41 0 Z " />
<glyph glyph-name="slash" unicode="&#x2f;" horiz-adv-x="350" d="M79 -87 L29 -87 L271 607 L321 607 L79 -87 Z " />
<glyph glyph-name="zero" unicode="0" horiz-adv-x="500" d="M443 262 Q443 212 435 162.5 Q427 113 406 73.5 Q385 34 347.5 9.5 Q310 -15 250 -15 Q191 -15 153.5 10 Q116 35 95 75 Q74 115 66 164.5 Q58 214 58 263 Q58 312 66 361.5 Q74 411 95.5 451 Q117 491 154.5 515.5 Q192 540 251 540 Q310 540 347.5 515 Q385 490 406 450 Q427 410 435 360.5 Q443 311 443 262 Z M382 263 Q382 297 378.5 337 Q375 377 361.5 411.5 Q348 446 322 469 Q296 492 251 492 Q206 492 179.5 469 Q153 446 139.5 411.5 Q126 377 122.5 337 Q119 297 119 263 Q119 228 122.5 188 Q126 148 139.5 114 Q153 80 179.5 57 Q206 34 251 34 Q296 34 322.5 57 Q349 80 362 114.5 Q375 149 378.5 189 Q382 229 382 263 Z " />
<glyph glyph-name="one" unicode="1" horiz-adv-x="500" d="M254 0 L254 475 L107 351 L107 408 L259 530 L317 530 L317 0 L254 0 Z " />
<glyph glyph-name="two" unicode="2" horiz-adv-x="500" d="M64 0 L64 55 L296 260 Q319 280 336.5 312.5 Q354 345 354 376 Q354 411 343.5 433 Q333 455 314 468 Q295 481 269.5 485.5 Q244 490 214 490 Q198 490 178.5 487.5 Q159 485 140 479 Q121 473 104 464 Q87 455 75 442 L75 501 Q86 512 104 519.5 Q122 527 141.5 531.5 Q161 536 180 538 Q199 540 214 540 Q256 540 293 532.5 Q330 525 357 506 Q384 487 400 455.5 Q416 424 416 376 Q416 333 392 293 Q368 253 336 227 L124 49 L430 49 L430 0 L64 0 Z " />
<glyph glyph-name="three" unicode="3" horiz-adv-x="500" d="M424 141 Q424 99 405.5 69 Q387 39 357 20.5 Q327 2 290 -6.5 Q253 -15 217 -15 Q206 -15 183.5 -12.5 Q161 -10 137.5 -5.5 Q114 -1 93.5 6 Q73 13 65 21 L65 76 Q79 67 98.5 59 Q118 51 138.5 45 Q159 39 179.5 35.5 Q200 32 217 32 Q242 32 268 38.5 Q294 45 315 58.5 Q336 72 349.5 93.5 Q363 115 363 144 Q363 178 346 200.5 Q329 223 303.5 235.5 Q278 248 247.5 253 Q217 258 189 258 L156 258 L156 306 L189 306 Q211 306 238 310 Q265 314 288 325 Q311 336 327 354 Q343 372 343 401 Q343 425 331 442 Q319 459 300 470 Q281 481 259 486 Q237 491 217 491 Q202 491 182 489 Q162 487 142 482.5 Q122 478 103.5 471 Q85 464 73 453 L73 504 Q85 514 103.5 521 Q122 528 142.5 532 Q163 536 182.5 538 Q202 540 217 540 Q250 540 283.5 533 Q317 526 343.5 509.5 Q370 493 387 467 Q404 441 404 402 Q404 379 394 360 Q384 341 368.5 326 Q353 311 333 300.5 Q313 290 293 283 Q320 278 344 266 Q368 254 385.5 236 Q403 218 413.5 194 Q424 170 424 141 Z " />
<glyph glyph-name="four" unicode="4" horiz-adv-x="500" d="M376 125 L376 0 L314 0 L314 125 L45 125 L45 197 L287 530 L376 530 L376 179 L451 179 L451 125 L376 125 Z M314 490 L90 179 L314 179 L314 490 Z " />
<glyph glyph-name="five" unicode="5" horiz-adv-x="500" d="M439 160 Q439 111 422 77.5 Q405 44 375.5 23.5 Q346 3 307 -6 Q268 -15 225 -15 Q208 -15 187.5 -13.5 Q167 -12 146 -8 Q125 -4 105.5 2 Q86 8 71 17 L71 74 Q103 55 146 44.5 Q189 34 226 34 Q257 34 285 41 Q313 48 333.5 63 Q354 78 366 102.5 Q378 127 378 162 Q378 192 364 214 Q350 236 327.5 250 Q305 264 278 270.5 Q251 277 225 277 Q191 277 156 272.5 Q121 268 89 259 L89 525 L417 525 L417 476 L147 476 L147 312 Q171 317 196 319.5 Q221 322 246 322 Q286 322 321 313.5 Q356 305 382 285.5 Q408 266 423.5 235 Q439 204 439 160 Z " />
<glyph glyph-name="six" unicode="6" horiz-adv-x="500" d="M449 166 Q449 124 435 90.5 Q421 57 396 33.5 Q371 10 336 -2.5 Q301 -15 260 -15 Q200 -15 161 9 Q122 33 99 71.5 Q76 110 67 159.5 Q58 209 58 260 Q58 297 64.5 334.5 Q71 372 85.5 406 Q100 440 123.5 468.5 Q147 497 182 516 Q203 527 226.5 533.5 Q250 540 274 540 Q285 540 305 539 Q325 538 346.5 535 Q368 532 387 526.5 Q406 521 415 512 L415 459 Q403 468 385 474.5 Q367 481 347.5 485 Q328 489 309 491 Q290 493 275 493 Q230 493 199.5 467.5 Q169 442 150.5 404.5 Q132 367 124.5 324 Q117 281 117 245 Q125 266 140 284 Q155 302 174 315.5 Q193 329 215 337 Q237 345 260 345 Q349 345 399 301 Q449 257 449 166 Z M388 167 Q388 226 354 261.5 Q320 297 260 297 Q233 297 209.5 287 Q186 277 169 260 Q152 243 142.5 219.5 Q133 196 133 169 Q133 141 142 116.5 Q151 92 168 73.5 Q185 55 208 44.5 Q231 34 260 34 Q322 34 355 70.5 Q388 107 388 167 Z " />
<glyph glyph-name="seven" unicode="7" horiz-adv-x="500" d="M446 462 Q429 434 411.5 406.5 Q394 379 377 351 Q326 268 287.5 181.5 Q249 95 227 0 L155 0 Q175 84 210.5 160.5 Q246 237 291 310 Q316 352 343 391 Q370 430 395 471 L49 471 L49 525 L446 525 L446 462 L446 462 Z " />
<glyph glyph-name="eight" unicode="8" horiz-adv-x="500" d="M441 143 Q441 100 425.5 70 Q410 40 383.5 21 Q357 2 322.5 -6.5 Q288 -15 250 -15 Q212 -15 177 -6.5 Q142 2 116 21 Q90 40 74.5 70 Q59 100 59 143 Q59 197 87.5 231.5 Q116 266 167 279 Q125 290 99.5 321 Q74 352 74 396 Q74 433 89 460 Q104 487 129 505 Q154 523 185.5 531.5 Q217 540 250 540 Q282 540 313.5 531.5 Q345 523 370 505.5 Q395 488 410.5 461 Q426 434 426 398 Q426 354 403 323 Q380 292 338 279 Q390 266 415.5 231 Q441 196 441 143 Z M366 399 Q366 423 356 441 Q346 459 329.5 471 Q313 483 292 489 Q271 495 250 495 Q229 495 208 489 Q187 483 170.5 471 Q154 459 144 441 Q134 423 134 399 Q134 377 144.5 359 Q155 341 172 328.5 Q189 316 209.5 309 Q230 302 250 302 Q270 302 290.5 309 Q311 316 328 328.5 Q345 341 355.5 359 Q366 377 366 399 Z M380 145 Q380 173 369 193.5 Q358 214 340 228 Q322 242 298.5 249 Q275 256 250 256 Q225 256 201.5 249 Q178 242 160 228 Q142 214 131 193.5 Q120 173 120 145 Q120 117 130.5 96 Q141 75 159 60.5 Q177 46 200.5 39 Q224 32 250 32 Q276 32 299.5 39 Q323 46 341 60.5 Q359 75 369.5 96 Q380 117 380 145 Z " />
<glyph glyph-name="nine" unicode="9" horiz-adv-x="500" d="M439 289 Q439 231 427.5 176.5 Q416 122 389 79.5 Q362 37 317.5 11 Q273 -15 207 -15 Q195 -15 178.5 -14 Q162 -13 144.5 -10 Q127 -7 111.5 -2.5 Q96 2 85 9 L85 67 Q95 58 111 52.5 Q127 47 144 43 Q161 39 177.5 37.5 Q194 36 207 36 Q263 36 297 58.5 Q331 81 349.5 117 Q368 153 374 198 Q380 243 380 288 Q374 268 358.5 251 Q343 234 322.5 222 Q302 210 279.5 203 Q257 196 237 196 Q196 196 162 206 Q128 216 103.5 236.5 Q79 257 65.5 289 Q52 321 52 365 Q52 405 66.5 437.5 Q81 470 106.5 493 Q132 516 166 528 Q200 540 239 540 Q294 540 332.5 519.5 Q371 499 394.5 464 Q418 429 428.5 383.5 Q439 338 439 289 Z M366 365 Q366 422 331 456.5 Q296 491 239 491 Q180 491 146.5 457.5 Q113 424 113 365 Q113 305 146 273.5 Q179 242 239 242 Q266 242 289 251 Q312 260 329.5 276 Q347 292 356.5 315 Q366 338 366 365 Z " />
<glyph glyph-name="colon" unicode="&#x3a;" horiz-adv-x="263" d="M57 320 L57 408 L138 408 L138 320 L57 320 Z M57 0 L57 88 L138 88 L138 0 L57 0 Z " />
<glyph glyph-name="semicolon" unicode="&#x3b;" horiz-adv-x="260" d="M95 333 L95 408 L169 408 L169 333 L95 333 Z M88 -157 L58 -157 L96 75 L168 75 L88 -157 Z " />
<glyph glyph-name="less" unicode="&#x3c;" horiz-adv-x="500" d="M51 223 L51 267 L450 449 L450 395 L117 245 L450 89 L450 35 L51 223 Z " />
<glyph glyph-name="equal" unicode="&#x3d;" horiz-adv-x="500" d="M51 304 L51 352 L450 352 L450 304 L51 304 Z M51 137 L51 185 L450 185 L450 137 L51 137 Z " />
<glyph glyph-name="greater" unicode="&#x3e;" horiz-adv-x="500" d="M50 35 L50 89 L384 245 L50 395 L50 449 L450 267 L450 223 L50 35 Z " />
<glyph glyph-name="question" unicode="&#x3f;" horiz-adv-x="410" d="M342 445 Q342 392 316.5 350 Q291 308 246 282 Q238 277 225 271 Q212 265 202 264 L202 157 L136 157 L136 296 Q199 300 238 340 Q277 380 277 444 Q277 496 245.5 528.5 Q214 561 161 561 Q138 561 114 557.5 Q90 554 69 544 L69 594 Q89 606 114 610.5 Q139 615 161 615 Q242 615 292 572.5 Q342 530 342 445 Z M131 0 L131 75 L207 75 L207 0 L131 0 Z " />
<glyph glyph-name="at" unicode="&#x40;" horiz-adv-x="968" d="M928 94 Q861 -57 765 -130 Q658 -212 497 -212 Q298 -212 177 -82 Q61 43 61 237 Q61 434 196 565 Q332 696 537 696 Q687 696 783 597 Q879 499 879 341 Q879 201 802 92 Q725 -16 627 -16 Q530 -16 526 60 Q525 84 534 129 Q471 55 447 34 Q389 -16 344 -16 Q299 -16 274 21 Q252 52 252 103 Q252 214 338 338 Q430 469 533 469 Q563 469 583 443.5 Q603 418 608 384 L628 449 L710 459 L616 142 Q603 100 603 68 Q603 18 639 18 Q715 18 780 119 Q845 222 845 345 Q845 481 753 576 Q663 668 539 668 Q348 668 225 538 Q105 412 105 227 Q105 60 214 -58 Q328 -182 503 -182 Q784 -182 898 94 L928 94 Z M585 369 Q585 397 563 419 Q540 443 520 443 Q444 443 378 321 Q320 212 320 118 Q320 48 375 48 Q446 48 518 165 Q585 275 585 369 Z " />
<glyph glyph-name="A" unicode="A" horiz-adv-x="750" d="M742 0 L462 0 L462 18 Q536 18 536 61 Q536 80 524 107 L473 227 L208 227 L156 107 Q144 80 144 62 Q144 18 223 18 L223 0 L6 0 L6 18 Q65 18 103 107 L356 696 L380 696 L629 107 Q650 57 671 39 Q695 18 742 18 L742 0 Z M454 265 L341 539 L223 265 L454 265 Z " />
<glyph glyph-name="B" unicode="B" horiz-adv-x="672" d="M621 184 Q621 104 561 52 Q502 0 405 0 L20 0 L20 18 Q74 18 95 36.5 Q116 55 116 108 L116 572 Q116 625 95 643.5 Q74 662 20 662 L20 680 L365 680 Q465 680 526 634 Q589 587 589 513 Q589 456 565 422 Q541 388 476 353 L476 351 Q543 340 582 295.5 Q621 251 621 184 Z M483 503 Q483 567 441 605 Q394 646 305 646 Q284 646 263 643 Q242 640 220 635 L220 377 Q245 370 351 370 Q412 370 447.5 408 Q483 446 483 503 Z M509 180 Q509 249 468 290 Q422 336 327 336 Q301 336 274.5 334.5 Q248 333 220 329 L220 50 Q266 39 333 39 Q419 39 466 81 Q509 118 509 180 Z " />
<glyph glyph-name="C" unicode="C" horiz-adv-x="685" d="M652 159 Q610 84 545 37 Q469 -16 386 -16 Q234 -16 133 85 Q32 186 32 332 Q32 483 138 589 Q245 696 389 696 Q442 696 481 684 Q506 676 532 662 Q554 650 564 650 Q575 650 586 663.5 Q597 677 601 696 L618 696 L635 465 L611 465 Q601 547 541 604 Q482 662 406 662 Q293 662 222 567 Q154 476 154 328 Q154 188 232 104 Q305 23 421 23 Q540 23 635 169 L652 159 Z " />
<glyph glyph-name="D" unicode="D" horiz-adv-x="737" d="M705 346 Q705 197 612 101 Q514 0 347 0 L20 0 L20 18 Q74 18 95 36.5 Q116 55 116 108 L116 572 Q116 625 95 643.5 Q74 662 20 662 L20 680 L322 680 Q512 680 600 598 Q705 500 705 346 Z M583 344 Q583 471 511 558 Q439 646 330 646 Q282 646 220 629 L220 50 Q261 34 330 34 Q438 34 509 117 Q583 205 583 344 Z " />
<glyph glyph-name="E" unicode="E" horiz-adv-x="625" d="M607 191 L546 0 L20 0 L20 18 Q74 18 95 36.5 Q116 55 116 108 L116 572 Q116 625 95 643.5 Q74 662 20 662 L20 680 L542 680 L550 518 L532 518 Q518 584 489 613 Q456 646 392 646 L220 646 L220 388 L367 388 Q469 388 469 476 L487 476 L487 246 L469 246 Q469 354 369 354 L220 354 L220 76 Q220 59 232 46.5 Q244 34 260 34 L402 34 Q534 34 583 191 L607 191 Z " />
<glyph glyph-name="F" unicode="F" horiz-adv-x="552" d="M532 518 L514 518 Q500 584 471 613 Q438 646 374 646 L220 646 L220 388 L323 388 Q425 388 425 476 L443 476 L443 246 L425 246 Q425 354 325 354 L220 354 L220 108 Q220 55 241 36.5 Q262 18 316 18 L316 0 L20 0 L20 18 Q74 18 95 36.5 Q116 55 116 108 L116 572 Q116 625 95 643.5 Q74 662 20 662 L20 680 L524 680 L532 518 Z " />
<glyph glyph-name="G" unicode="G" horiz-adv-x="758" d="M726 345 Q687 345 672 326.5 Q657 308 657 260 L657 50 Q546 -16 386 -16 Q234 -16 133 85 Q32 186 32 332 Q32 483 138 589 Q245 696 389 696 Q459 696 516 673 Q573 650 576 650 Q587 650 598 663.5 Q609 677 613 696 L630 696 L647 465 L623 465 Q573 662 406 662 Q293 662 222 567 Q154 476 154 328 Q154 188 232 104 Q305 23 421 23 Q500 23 553 70 L553 260 Q553 284 548.5 300.5 Q544 317 533.5 327 Q523 337 504.5 341 Q486 345 458 345 L458 363 L726 363 L726 345 Z " />
<glyph glyph-name="H" unicode="H" horiz-adv-x="751" d="M731 0 L435 0 L435 18 Q489 18 510 36.5 Q531 55 531 108 L531 336 L220 336 L220 108 Q220 55 241 36.5 Q262 18 316 18 L316 0 L20 0 L20 18 Q74 18 95 36.5 Q116 55 116 108 L116 572 Q116 625 95 643.5 Q74 662 20 662 L20 680 L316 680 L316 662 Q262 662 241 643.5 Q220 625 220 572 L220 370 L531 370 L531 572 Q531 625 510 643.5 Q489 662 435 662 L435 680 L731 680 L731 662 Q677 662 656 643.5 Q635 625 635 572 L635 108 Q635 55 656 36.5 Q677 18 731 18 L731 0 Z " />
<glyph glyph-name="I" unicode="I" horiz-adv-x="342" d="M319 0 L23 0 L23 18 Q77 18 98 36.5 Q119 55 119 108 L119 572 Q119 625 98 643.5 Q77 662 23 662 L23 680 L319 680 L319 662 Q265 662 244 643.5 Q223 625 223 572 L223 108 Q223 55 244 36.5 Q265 18 319 18 L319 0 Z " />
<glyph glyph-name="J" unicode="J" horiz-adv-x="397" d="M387 662 Q333 662 312 643.5 Q291 625 291 572 L291 218 Q291 103 240 43.5 Q189 -16 101 -16 Q60 -16 34 3 Q4 25 4 62 Q4 83 21.5 97.5 Q39 112 59 112 Q89 112 103 88 L122 41 Q133 18 153 18 Q187 18 187 83 L187 572 Q187 625 166 643.5 Q145 662 91 662 L91 680 L387 680 L387 662 Z " />
<glyph glyph-name="K" unicode="K" horiz-adv-x="752" d="M761 0 L444 0 L444 18 Q492 18 492 54 Q492 72 454 110 L220 345 L220 108 Q220 55 241 36.5 Q262 18 316 18 L316 0 L20 0 L20 18 Q74 18 95 36.5 Q116 55 116 108 L116 572 Q116 625 95 643.5 Q74 662 20 662 L20 680 L316 680 L316 662 Q262 662 241 643.5 Q220 625 220 572 L220 379 L437 575 Q483 617 483 638 Q483 662 420 662 L420 680 L671 680 L671 661 Q648 661 628.5 657.5 Q609 654 589.5 644.5 Q570 635 550 620 Q530 605 506 583 L304 394 L580 119 Q615 84 639.5 63 Q664 42 678 34 Q707 18 761 18 L761 0 Z " />
<glyph glyph-name="L" unicode="L" horiz-adv-x="628" d="M610 185 L551 0 L20 0 L20 18 Q74 18 95 36.5 Q116 55 116 108 L116 572 Q116 625 95 643.5 Q74 662 20 662 L20 680 L316 680 L316 662 Q262 662 241 643.5 Q220 625 220 572 L220 85 Q220 64 231.5 49 Q243 34 259 34 L386 34 Q540 34 590 190 L610 185 Z " />
<glyph glyph-name="M" unicode="M" horiz-adv-x="926" d="M904 0 L608 0 L608 18 Q662 18 683 36.5 Q704 55 704 108 L704 557 L700 557 L447 0 L426 0 L169 553 L162 553 L162 108 Q162 55 183 36.5 Q204 18 258 18 L258 0 L20 0 L20 18 Q74 18 95 36.5 Q116 55 116 108 L116 572 Q116 625 95 643.5 Q74 662 20 662 L20 680 L222 680 L463 158 L468 158 L704 680 L904 680 L904 662 Q850 662 829 643.5 Q808 625 808 572 L808 108 Q808 55 829 36.5 Q850 18 904 18 L904 0 Z " />
<glyph glyph-name="N" unicode="N" horiz-adv-x="739" d="M722 662 Q668 662 647 643.5 Q626 625 626 572 L626 -16 L602 -16 L163 537 L159 537 L159 108 Q159 55 180 36.5 Q201 18 255 18 L255 0 L17 0 L17 18 Q71 18 92 36.5 Q113 55 113 108 L113 566 Q113 587 104 604.5 Q95 622 80 635 Q65 648 44.5 655 Q24 662 0 662 L0 680 L171 680 L576 183 L580 183 L580 572 Q580 625 559 643.5 Q538 662 484 662 L484 680 L722 680 L722 662 Z " />
<glyph glyph-name="O" unicode="O" horiz-adv-x="746" d="M714 344 Q714 195 615 89 Q516 -16 373 -16 Q230 -16 131 89 Q32 195 32 344 Q32 491 131 593 Q230 696 373 696 Q516 696 615 593 Q714 491 714 344 Z M592 344 Q592 487 535 573 Q476 662 373 662 Q269 662 210 573 Q154 487 154 344 Q154 199 210 111 Q268 18 373 18 Q476 18 535 111 Q592 199 592 344 Z " />
<glyph glyph-name="P" unicode="P" horiz-adv-x="576" d="M544 486 Q544 397 480 348 Q424 303 341 303 Q266 303 220 315 L220 108 Q220 55 241 36.5 Q262 18 316 18 L316 0 L20 0 L20 18 Q74 18 95 36.5 Q116 55 116 108 L116 572 Q116 625 95 643.5 Q74 662 20 662 L20 680 L312 680 Q411 680 476 630 Q544 576 544 486 Z M432 479 Q432 549 392 595 Q351 642 294 642 Q250 642 220 632 L220 353 Q269 338 299 338 Q363 338 399 379 Q432 416 432 479 Z " />
<glyph glyph-name="Q" unicode="Q" horiz-adv-x="738" d="M706 344 Q706 223 634 123 Q561 20 450 -6 Q473 -80 542 -134 Q616 -195 702 -195 L702 -213 Q576 -213 444 -141 Q387 -110 344 -75 Q301 -40 272 -2 Q169 26 100 128 Q32 231 32 344 Q32 492 129 593 Q226 696 369 696 Q512 696 609 593 Q706 492 706 344 Z M588 344 Q588 487 531 573 Q472 662 369 662 Q265 662 206 573 Q150 487 150 344 Q150 199 206 111 Q264 18 369 18 Q475 31 531.5 116 Q588 201 588 344 Z " />
<glyph glyph-name="R" unicode="R" horiz-adv-x="691" d="M702 0 L508 0 L293 320 L220 320 L220 108 Q220 55 241 36.5 Q262 18 316 18 L316 0 L20 0 L20 18 Q74 18 95 36.5 Q116 55 116 108 L116 572 Q116 625 95 643.5 Q74 662 20 662 L20 680 L330 680 Q437 680 498 630 Q554 583 554 503 Q554 440 513 394 Q472 348 403 330 L548 117 Q615 18 702 18 L702 0 Z M442 499 Q442 562 405 603 Q368 646 312 646 Q253 646 220 633 L220 354 L280 354 Q316 354 345.5 364.5 Q375 375 396.5 393.5 Q418 412 430 439 Q442 466 442 499 Z " />
<glyph glyph-name="S" unicode="S" horiz-adv-x="560" d="M510 179 Q510 97 451 41 Q388 -16 283 -16 Q231 -16 177 4 Q130 22 115 22 Q89 22 83 -16 L65 -16 L65 214 L83 214 Q91 124 153 72 Q212 22 291 22 Q344 22 381 53 Q420 84 420 134 Q420 202 326 260 L152 360 Q58 426 58 513 Q58 591 114 644 Q170 696 260 696 Q294 696 345 680 Q348 679 356.5 675.5 Q365 672 379 666 Q400 658 410 658 Q424 658 435.5 670.5 Q447 683 447 696 L465 696 L465 459 L446 459 Q437 553 389 605.5 Q341 658 260 658 Q207 658 171 622 Q138 590 138 549 Q138 490 234 432 L414 328 Q510 260 510 179 Z " />
<glyph glyph-name="T" unicode="T" horiz-adv-x="590" d="M578 518 L560 518 Q546 584 517 613 Q484 646 420 646 L346 646 L346 108 Q346 55 367 36.5 Q388 18 442 18 L442 0 L146 0 L146 18 Q200 18 221 36.5 Q242 55 242 108 L242 646 L168 646 Q104 646 72.5 615 Q41 584 28 518 L10 518 L18 680 L570 680 L578 518 Z " />
<glyph glyph-name="U" unicode="U" horiz-adv-x="752" d="M743 662 Q689 662 668 643.5 Q647 625 647 572 L647 239 Q647 126 584 59 Q512 -16 376 -16 Q252 -16 180 60 Q113 130 113 241 L113 572 Q113 625 92 643.5 Q71 662 17 662 L17 680 L313 680 L313 662 Q259 662 238 643.5 Q217 625 217 572 L217 239 Q217 151 270 89 Q322 28 409 28 Q496 28 550 90 Q601 148 601 239 L601 572 Q601 625 580 643.5 Q559 662 505 662 L505 680 L743 680 L743 662 Z " />
<glyph glyph-name="V" unicode="V" horiz-adv-x="724" d="M721 662 Q660 662 614 547 L386 -16 L360 -16 L102 578 Q82 624 59 643 Q36 662 0 662 L0 680 L278 680 L278 662 Q204 662 204 615 Q204 596 218 562 L401 139 L569 555 Q581 583 581 606 Q581 662 511 662 L511 680 L721 680 L721 662 Z " />
<glyph glyph-name="W" unicode="W" horiz-adv-x="946" d="M950 662 Q908 662 889 635 Q876 620 855 557 L660 -16 L636 -16 L479 415 L326 -16 L302 -16 L98 554 Q76 615 60 636 Q40 662 0 662 L0 680 L252 680 L252 662 Q185 662 185 625 Q185 607 202 558 L342 163 L455 481 L429 555 Q408 614 392 634 Q368 662 323 662 L323 680 L588 680 L588 662 Q520 662 520 624 Q520 599 535 556 L671 163 L809 559 Q820 594 820 612 Q820 662 747 662 L748 680 L950 680 L950 662 Z " />
<glyph glyph-name="X" unicode="X" horiz-adv-x="742" d="M734 0 L439 0 L439 17 Q506 18 506 56 Q506 76 486 108 L360 298 L217 114 Q190 87 190 60 Q190 18 252 18 L252 0 L0 0 L0 18 Q41 18 87 46 Q132 72 158 107 L335 338 L168 579 Q109 662 24 662 L24 680 L343 680 L343 662 Q271 662 271 624 Q271 605 291 576 L398 418 L522 575 Q548 609 548 628 Q548 662 479 662 L479 680 L718 680 L718 661 Q679 662 649.5 645 Q620 628 587 586 L421 377 L613 108 Q647 60 663 45 Q694 18 734 18 L734 0 Z " />
<glyph glyph-name="Y" unicode="Y" horiz-adv-x="694" d="M695 662 Q674 662 657 657.5 Q640 653 625.5 643 Q611 633 597.5 617 Q584 601 569 577 L391 294 L391 108 Q391 55 412 36.5 Q433 18 487 18 L487 0 L191 0 L191 18 Q245 18 266 36.5 Q287 55 287 108 L287 283 L86 585 Q59 625 44 640 Q21 662 -16 662 L-16 680 L280 680 L280 662 Q197 662 199 615 Q199 596 217 568 L364 332 L517 578 Q527 594 527 613 Q527 662 456 662 L456 680 L695 680 L695 662 Z " />
<glyph glyph-name="Z" unicode="Z" horiz-adv-x="622" d="M598 178 L566 0 L10 0 L10 17 L448 641 L238 641 Q162 641 131 613 Q100 586 89 509 L71 509 L86 680 L597 680 L146 39 L421 39 Q446 39 470 49.5 Q494 60 515 78.5 Q536 97 552.5 122.5 Q569 148 580 178 L598 178 Z " />
<glyph glyph-name="bracketleft" unicode="&#x5b;" horiz-adv-x="298" d="M91 -115 L91 640 L248 640 L248 599 L146 599 L146 -75 L248 -75 L248 -115 L91 -115 Z " />
<glyph glyph-name="backslash" unicode="&#x5c;" horiz-adv-x="275" d="M274 -16 L227 -16 L-1 696 L46 696 L274 -16 Z " />
<glyph glyph-name="bracketright" unicode="&#x5d;" horiz-adv-x="298" d="M50 -115 L50 -75 L152 -75 L152 599 L50 599 L50 640 L207 640 L207 -115 L50 -115 Z " />
<glyph glyph-name="asciicircum" unicode="&#x5e;" horiz-adv-x="496" d="M484 328 L421 328 L247 620 L72 328 L12 328 L232 696 L264 696 L484 328 Z " />
<glyph glyph-name="underscore" unicode="&#x5f;" horiz-adv-x="550" d="M550 -146 L0 -146 L0 -100 L550 -100 L550 -146 Z " />
<glyph glyph-name="grave" unicode="&#x60;" horiz-adv-x="201" d="M190 719 L162 719 L11 896 L137 896 L190 719 Z " />
<glyph glyph-name="a" unicode="a" horiz-adv-x="445" d="M439 58 Q398 -10 332 -10 Q307 -10 294 15 Q282 34 282 63 Q256 41 241.5 28.5 Q227 16 223 14 Q185 -10 139 -10 Q90 -10 61 22 Q32 54 32 105 Q32 183 117 232 Q150 251 282 298 L282 326 Q282 439 201 439 Q133 439 133 369 Q133 308 92 308 Q73 308 60.5 323.5 Q48 339 48 362 Q48 406 98 438 Q147 469 217 469 Q365 469 365 347 L365 87 Q365 52 388 52 Q414 52 439 92 L439 58 Z M282 268 Q115 209 115 129 Q115 96 135.5 71 Q156 46 183 46 Q220 46 282 96 L282 268 Z " />
<glyph glyph-name="b" unicode="b" horiz-adv-x="506" d="M468 264 Q468 152 400 70 Q332 -10 235 -10 Q135 -10 74 45 L74 550 Q74 596 70 607 Q65 625 44 625 Q33 625 3 617 L-4 635 L133 696 L157 696 L157 374 Q176 412 219 441 Q262 469 301 469 Q373 469 420 409 Q468 350 468 264 Z M381 235 Q381 303 345 351 Q309 399 259 399 Q231 399 201.5 382.5 Q172 366 157 343 L157 75 Q202 28 252 28 Q309 28 345 86 Q381 144 381 235 Z " />
<glyph glyph-name="c" unicode="c" horiz-adv-x="450" d="M421 174 Q400 86 350.5 38 Q301 -10 229 -10 Q147 -10 89 56 Q32 123 32 218 Q32 321 95 395 Q160 469 249 469 Q320 469 364 438 Q410 407 410 360 Q410 339 393 324 Q376 309 355 309 Q333 309 319.5 324.5 Q306 340 306 360 Q306 435 236 435 Q209 435 186.5 423 Q164 411 148 389.5 Q132 368 123.5 339 Q115 310 115 277 Q115 185 155 123 Q195 60 261 60 Q354 60 402 180 L421 174 Z " />
<glyph glyph-name="d" unicode="d" horiz-adv-x="510" d="M511 53 L371 -10 L347 -10 L347 45 Q286 -10 209 -10 Q136 -10 84 59 Q32 129 32 224 Q32 318 97 394 Q163 469 252 469 Q305 469 347 427 L347 550 Q347 596 343 607 Q338 625 317 625 Q306 625 276 617 L269 635 L406 696 L430 696 L430 136 Q430 91 439 75 Q448 59 472 59 Q489 59 505 67 L511 53 Z M347 314 Q347 366 314 402 Q282 435 243 435 Q192 435 158 383 Q124 331 124 250 Q124 163 162 101 Q201 40 256 40 Q308 40 347 87 L347 314 Z " />
<glyph glyph-name="e" unicode="e" horiz-adv-x="462" d="M435 161 Q417 89 359 40 Q300 -10 237 -10 Q152 -10 92 55 Q32 121 32 213 Q32 325 89 397 Q146 469 238 469 Q318 469 371 415 Q424 362 424 284 L112 284 Q112 189 154 125 Q196 60 260 60 Q313 60 360 90 Q407 122 417 164 L435 161 Z M320 308 Q320 360 288 398 Q257 435 212 435 Q174 435 145 397 Q116 359 112 308 L320 308 Z " />
<glyph glyph-name="f" unicode="f" horiz-adv-x="292" d="M409 615 Q409 576 368 576 Q337 576 315 619 Q293 662 258 662 Q245 662 232.5 655 Q220 648 210.5 636 Q201 624 195 608.5 Q189 593 189 576 L189 459 L301 459 L301 425 L189 425 L189 107 Q189 56 203 37 Q217 18 261 18 L261 0 L34 0 L34 18 Q78 18 93 39 Q106 56 106 107 L106 425 L18 425 L18 459 L106 459 L106 528 Q106 597 151 647 Q197 696 262 696 Q409 696 409 615 Z " />
<glyph glyph-name="g" unicode="g" horiz-adv-x="500" d="M474 -36 Q474 -77 457 -109.5 Q440 -142 407.5 -164.5 Q375 -187 329 -199.5 Q283 -212 226 -212 Q20 -212 20 -118 Q20 -84 51 -49 Q58 -41 73 -26 Q88 -11 113 11 Q58 30 58 67 Q58 81 64.5 96 Q71 111 82.5 124.5 Q94 138 109.5 149.5 Q125 161 143 168 Q53 210 53 304 Q53 372 106 420 Q159 469 237 469 Q322 469 355 436 L474 436 L474 398 L395 398 Q422 356 422 309 Q422 238 368 193 Q313 149 228 149 Q197 149 167 159 Q138 133 138 106 Q138 76 191 74 L346 67 Q474 61 474 -36 Z M332 286 Q332 353 301 399 Q270 445 227 445 Q146 445 146 321 Q146 289 153 262 Q160 235 173 215.5 Q186 196 203.5 184.5 Q221 173 242 173 Q278 173 305 206 Q332 239 332 286 Z M436 -69 Q436 -10 332 -10 Q268 -10 220 -6.5 Q172 -3 138 4 Q100 -28 100 -74 Q100 -107 140 -128 Q183 -152 258 -152 Q335 -152 389 -126 Q436 -100 436 -69 Z " />
<glyph glyph-name="h" unicode="h" horiz-adv-x="520" d="M506 0 L279 0 L279 18 Q323 18 338 39 Q351 56 351 107 L351 315 Q351 407 284 407 Q228 407 167 341 L167 107 Q167 56 181 37 Q195 18 239 18 L239 0 L12 0 L12 18 Q56 18 71 39 Q84 56 84 107 L84 550 Q84 596 80 607 Q75 625 54 625 Q43 625 13 617 L6 635 L143 696 L167 696 L167 376 Q242 469 329 469 Q373 469 403 428 Q434 388 434 330 L434 107 Q434 56 448 37 Q462 18 506 18 L506 0 Z " />
<glyph glyph-name="i" unicode="i" horiz-adv-x="278" d="M192 650 Q192 631 178 617.5 Q164 604 144 604 Q124 604 110 617.5 Q96 631 96 650 Q96 669 110 682.5 Q124 696 144 696 Q164 696 178 682.5 Q192 669 192 650 Z M258 0 L31 0 L31 18 Q75 18 90 39 Q103 56 103 107 L103 323 Q103 369 99 380 Q94 398 73 398 Q62 398 32 390 L25 408 L162 469 L186 469 L186 107 Q186 56 200 37 Q214 18 258 18 L258 0 Z " />
<glyph glyph-name="j" unicode="j" horiz-adv-x="278" d="M192 650 Q192 631 178 617.5 Q164 604 144 604 Q124 604 110 617.5 Q96 631 96 650 Q96 669 110 682.5 Q124 696 144 696 Q164 696 178 682.5 Q192 669 192 650 Z M186 0 Q186 -132 142 -178 Q109 -212 19 -212 Q-18 -212 -40.5 -196 Q-63 -180 -63 -157 Q-63 -118 -20 -118 Q-2 -118 18 -148 Q39 -178 60 -178 Q103 -178 103 -100 L103 323 Q103 369 99 380 Q94 398 73 398 Q62 398 32 390 L25 408 L162 469 L186 469 L186 0 Z " />
<glyph glyph-name="k" unicode="k" horiz-adv-x="510" d="M525 0 L298 0 L298 18 Q328 18 328 41 Q328 56 291 102 L171 252 L171 107 Q171 56 185 37 Q199 18 243 18 L243 0 L16 0 L16 18 Q60 18 75 39 Q88 56 88 107 L88 550 Q88 596 84 607 Q79 625 58 625 Q47 625 17 617 L10 635 L147 696 L171 696 L171 261 L282 362 Q300 379 318 396 Q336 413 336 425 Q336 441 300 441 L300 459 L490 459 L490 441 Q445 441 414 427 Q387 414 331 366 L247 293 L383 121 Q408 90 427 69.5 Q446 49 460 38 Q489 18 525 18 L525 0 Z " />
<glyph glyph-name="l" unicode="l" horiz-adv-x="277" d="M253 0 L26 0 L26 18 Q70 18 85 39 Q98 56 98 107 L98 550 Q98 596 94 607 Q89 625 68 625 Q57 625 27 617 L20 635 L157 696 L181 696 L181 107 Q181 56 195 37 Q209 18 253 18 L253 0 Z " />
<glyph glyph-name="m" unicode="m" horiz-adv-x="805" d="M797 0 L570 0 L570 18 Q614 18 629 39 Q642 56 642 107 L642 312 Q642 351 620 379 Q598 407 567 407 Q533 407 498.5 388 Q464 369 448 342 L448 107 Q448 56 462 37 Q476 18 520 18 L520 0 L293 0 L293 18 Q337 18 352 39 Q365 56 365 107 L365 312 Q365 331 359 348.5 Q353 366 342.5 379 Q332 392 318.5 399.5 Q305 407 290 407 Q259 407 224.5 388 Q190 369 171 342 L171 107 Q171 56 185 37 Q199 18 243 18 L243 0 L16 0 L16 18 Q60 18 75 39 Q88 56 88 107 L88 323 Q88 369 84 380 Q79 398 58 398 Q47 398 17 390 L10 408 L147 469 L171 469 L171 374 Q206 415 248 441 Q294 469 331 469 Q371 469 405 441 Q439 412 447 372 Q467 411 516 440 Q565 469 611 469 Q658 469 691 426 Q725 385 725 325 L725 107 Q725 56 739 37 Q753 18 797 18 L797 0 Z " />
<glyph glyph-name="n" unicode="n" horiz-adv-x="518" d="M510 0 L283 0 L283 18 Q327 18 342 39 Q355 56 355 107 L355 315 Q355 407 288 407 Q232 407 171 341 L171 107 Q171 56 185 37 Q199 18 243 18 L243 0 L16 0 L16 18 Q60 18 75 39 Q88 56 88 107 L88 323 Q88 369 84 380 Q79 398 58 398 Q47 398 17 390 L10 408 L147 469 L171 469 L171 376 Q246 469 333 469 Q377 469 407 428 Q438 388 438 330 L438 107 Q438 56 452 37 Q466 18 510 18 L510 0 Z " />
<glyph glyph-name="o" unicode="o" horiz-adv-x="506" d="M474 243 Q474 136 411 63 Q348 -10 253 -10 Q158 -10 95 58 Q32 125 32 224 Q32 327 95 398 Q158 469 253 469 Q348 469 411 403 Q474 338 474 243 Z M381 196 Q381 435 233 435 Q190 435 157 385 Q125 335 125 266 Q125 163 163 95 Q204 24 269 24 Q317 24 349 74 Q381 126 381 196 Z " />
<glyph glyph-name="p" unicode="p" horiz-adv-x="516" d="M484 253 Q484 136 429 65 Q373 -10 280 -10 Q215 -10 168 24 L168 -87 Q168 -138 182 -157 Q196 -176 240 -176 L240 -194 L13 -194 L13 -176 Q57 -176 71 -156.5 Q85 -137 85 -87 L85 323 Q85 369 81 380 Q76 398 55 398 Q44 398 14 390 L7 408 L144 469 L168 469 L168 366 Q240 469 320 469 Q393 469 438 406 Q484 345 484 253 Z M392 205 Q392 305 361 357 Q332 407 283 407 Q218 407 168 333 L168 124 Q168 82 199.5 53 Q231 24 280 24 Q327 24 359 74 Q392 125 392 205 Z " />
<glyph glyph-name="q" unicode="q" horiz-adv-x="512" d="M503 -194 L276 -194 L276 -176 Q320 -176 334 -156.5 Q348 -137 348 -87 L348 72 Q281 -10 199 -10 Q130 -10 81 53 Q32 117 32 207 Q32 315 98 392 Q166 469 260 469 Q326 469 348 435 L411 469 L431 469 L431 -87 Q431 -138 445 -157 Q459 -176 503 -176 L503 -194 Z M348 348 Q348 381 323 406 Q294 435 249 435 Q195 435 157 382 Q119 329 119 255 Q119 174 155 117 Q191 60 242 60 Q278 60 309 79 Q337 95 348 116 L348 348 Z " />
<glyph glyph-name="r" unicode="r" horiz-adv-x="344" d="M353 414 Q353 369 305 369 Q285 369 267 384 Q249 399 236 399 Q209 399 169 327 L169 107 Q169 56 183 37 Q197 18 241 18 L241 0 L14 0 L14 18 Q58 18 73 39 Q86 56 86 107 L86 323 Q86 369 82 380 Q77 398 56 398 Q45 398 15 390 L8 408 L145 469 L169 469 L169 373 Q227 469 288 469 Q315 469 334 453 Q353 437 353 414 Z " />
<glyph glyph-name="s" unicode="s" horiz-adv-x="402" d="M367 129 Q367 68 325 29 Q283 -10 207 -10 Q178 -10 139 1 Q101 13 93 13 Q78 13 72 0 L54 0 L54 159 L72 159 Q79 103 120 63 Q160 24 209 24 Q241 24 263 43.5 Q285 63 285 90 Q285 136 224 170 Q196 186 168 201 Q140 216 111 231 Q50 274 50 341 Q50 398 87 433.5 Q124 469 185 469 Q213 469 246 460 Q280 451 289 451 Q305 451 310 469 L328 469 L328 316 L310 316 Q307 368 273 403 Q238 439 193 439 Q157 439 134.5 421 Q112 403 112 378 Q112 332 178 298 Q209 283 239.5 268 Q270 253 301 237 Q367 193 367 129 Z " />
<glyph glyph-name="t" unicode="t" horiz-adv-x="290" d="M290 97 Q258 -10 162 -10 Q80 -10 80 97 L80 425 L8 425 L8 449 Q55 449 91 497 Q127 545 139 617 L163 617 L163 459 L274 459 L274 425 L163 425 L163 97 Q163 77 176 62.5 Q189 48 208 48 Q246 48 268 97 L290 97 Z " />
<glyph glyph-name="u" unicode="u" horiz-adv-x="518" d="M518 53 L378 -10 L354 -10 L354 86 Q332 47 290 18 Q250 -10 212 -10 Q157 -10 118 32 Q80 75 80 133 L80 362 Q80 408 65 424.5 Q50 441 8 441 L8 459 L163 459 L163 133 Q163 98 190 74 Q217 50 255 50 Q280 50 309 71.5 Q338 93 354 124 L354 362 Q354 408 339 424.5 Q324 441 282 441 L282 459 L437 459 L437 136 Q437 91 446 75 Q455 59 479 59 Q496 59 512 67 L518 53 Z " />
<glyph glyph-name="v" unicode="v" horiz-adv-x="494" d="M485 441 Q447 441 422 381 L259 -10 L235 -10 L72 371 Q54 413 39.5 427 Q25 441 0 441 L0 459 L208 459 L208 441 Q155 441 155 412 Q155 393 170 356 L270 112 L374 366 Q387 396 387 422 Q387 441 330 441 L330 459 L485 459 L485 441 Z " />
<glyph glyph-name="w" unicode="w" horiz-adv-x="753" d="M753 441 Q709 441 685 416 Q666 396 649 348 L517 -10 L493 -10 L374 298 L255 -10 L231 -10 L92 344 Q79 378 69 398 Q59 418 52 426 Q38 441 0 441 L0 459 L200 459 L200 441 Q161 441 161 416 Q161 393 179 348 L269 124 L355 344 L345 370 Q337 393 316 414 Q289 441 256 441 L256 459 L488 459 L488 441 Q425 441 425 408 Q425 391 442 348 L532 124 L607 338 Q627 396 627 410 Q627 441 583 441 L583 459 L753 459 L753 441 Z " />
<glyph glyph-name="x" unicode="x" horiz-adv-x="503" d="M497 0 L272 0 L273 18 Q320 18 320 47 Q320 58 291 102 L225 203 L136 88 Q119 65 119 44 Q119 18 161 18 L161 0 L12 0 L12 18 Q41 18 84 76 L203 233 L111 380 Q74 441 8 441 L8 459 L224 459 L224 441 Q193 441 192 419 Q191 408 211 375 L256 304 L296 360 Q328 406 328 421 Q328 441 288 441 L288 459 L448 459 L448 441 Q421 441 400 426 Q374 408 334 354 L275 275 L402 87 Q448 18 497 18 L497 0 Z " />
<glyph glyph-name="y" unicode="y" horiz-adv-x="514" d="M497 441 Q469 441 456 423 Q445 409 426 362 L241 -90 Q219 -144 179.5 -178 Q140 -212 100 -212 Q73 -212 53.5 -197.5 Q34 -183 33 -163 Q31 -112 84 -112 Q104 -112 119 -121 Q134 -130 150 -130 Q181 -130 216 -47 L245 23 L102 323 Q47 441 0 441 L0 459 L211 459 L211 441 Q162 441 162 405 Q162 392 197 317 L286 129 L381 363 Q395 397 395 413 Q395 441 348 441 L348 459 L497 459 L497 441 Z " />
<glyph glyph-name="z" unicode="z" horiz-adv-x="463" d="M440 441 L132 34 L327 34 Q367 34 387 49 Q414 68 420 146 L438 146 L428 0 L20 0 L20 24 L322 425 L157 425 Q117 425 100 408 Q77 385 76 332 L58 332 L58 459 L440 459 L440 441 Z " />
<glyph glyph-name="braceleft" unicode="&#x7b;" horiz-adv-x="296" d="M226 -116 Q172 -116 136.5 -87 Q101 -58 101 -1 L101 171 Q101 194 90 219 Q79 244 55 252 L55 294 Q78 301 89.5 323.5 Q101 346 101 369 L101 522 Q101 583 127.5 611 Q154 639 216 639 L245 639 L245 595 L220 595 Q197 595 184 587.5 Q171 580 165 566.5 Q159 553 157.5 535.5 Q156 518 156 499 L156 355 Q156 329 142.5 304.5 Q129 280 103 270 Q127 257 141.5 231.5 Q156 206 156 179 L156 11 Q156 -27 170.5 -49.5 Q185 -72 227 -72 L245 -72 L246 -116 L226 -116 Z " />
<glyph glyph-name="bar" unicode="&#x7c;" horiz-adv-x="228" d="M140 -158 L82 -158 L82 572 L140 572 L140 -158 Z " />
<glyph glyph-name="braceright" unicode="&#x7d;" horiz-adv-x="295" d="M240 252 Q216 244 205 219 Q194 194 194 171 L194 -1 Q194 -58 158.5 -87 Q123 -116 69 -116 L50 -116 L50 -72 L68 -72 Q110 -72 124.5 -49.5 Q139 -27 139 11 L139 179 Q139 206 153.5 231.5 Q168 257 192 270 Q166 280 152.5 304.5 Q139 329 139 355 L139 499 Q139 518 137.5 535.5 Q136 553 130 566 Q124 579 111 587 Q98 595 75 595 L50 595 L50 639 L79 639 Q141 639 167.5 611 Q194 583 194 522 L194 369 Q194 346 205.5 323.5 Q217 301 240 294 L240 252 L240 252 Z " />
<glyph glyph-name="asciitilde" unicode="&#x7e;" horiz-adv-x="398" d="M360 380 Q360 344 326 325 Q300 309 261 309 Q215 309 167 329 L135 345 Q115 354 103 354 Q62 354 59 318 L38 318 Q38 332 45 345 Q72 396 139 396 Q173 396 226 374 Q280 353 301 353 Q336 353 338 380 L360 380 Z " />
<glyph glyph-name="exclamdown" unicode="&#xa1;" horiz-adv-x="277" d="M206 453 Q206 430 188.5 414 Q171 398 146 398 Q121 398 103.5 414 Q86 430 86 453 Q86 476 103.5 492.5 Q121 509 146 509 Q171 509 188.5 492.5 Q206 476 206 453 Z M208 -48 Q208 -138 145 -138 Q80 -138 80 -48 Q80 -29 83 -7 Q86 15 91 41 L111 128 Q116 157 122 211.5 Q128 266 134 347 L155 347 Q157 321 158.5 295.5 Q160 270 162 244 Q168 176 177 128 Q183 105 195 50 Q208 -3 208 -48 Z " />
<glyph glyph-name="cent" unicode="&#xa2;" horiz-adv-x="500" d="M445 175 Q400 -10 257 -10 Q215 -10 175 11 L99 -194 L59 -194 L142 32 Q59 100 59 218 Q59 322 123 395 Q188 469 277 469 Q285 469 291.5 469 Q298 469 303 468 L382 680 L422 680 L341 461 Q438 436 438 360 Q438 339 421 324 Q404 309 383 309 Q361 309 347.5 324.5 Q334 340 334 360 Q334 394 323 411 L208 100 Q244 64 290 64 Q383 64 431 183 L445 175 Z M290 432 Q279 435 264 435 Q237 435 214.5 423 Q192 411 176 389.5 Q160 368 151.5 339 Q143 310 143 277 Q143 196 180 135 L290 432 Z " />
<glyph glyph-name="sterling" unicode="&#xa3;" horiz-adv-x="530" d="M501 152 Q494 84 457 37 Q415 -16 347 -16 Q257 -16 180 67 Q145 -16 84 -16 Q58 -16 39 3.5 Q20 23 20 51 Q20 86 45 109 Q70 132 109 132 Q117 132 131 129.5 Q145 127 151 127 Q153 146 154.5 165.5 Q156 185 156 207 Q156 238 153 272.5 Q150 307 145 345 L42 345 L42 379 L140 379 Q134 439 134 470 Q134 565 182 627 Q236 696 332 696 Q392 696 430 661 Q462 629 462 595 Q462 579 450 565.5 Q438 552 422 552 Q381 552 380 613 Q379 665 317 665 Q222 665 222 523 Q222 498 225 462.5 Q228 427 233 379 L369 379 L370 345 L236 345 L235 297 Q234 249 225.5 204.5 Q217 160 201 117 Q286 76 370 76 Q461 76 484 156 L501 152 Z M147 86 Q124 100 101 100 Q52 100 52 57 Q52 15 85 15 Q129 15 147 86 Z " />
<glyph glyph-name="currency" unicode="&#xa4;" horiz-adv-x="530" d="M520 125 L490 96 L412 171 Q353 119 265 119 Q176 119 118 171 L40 96 L10 125 L88 200 Q33 256 33 341 Q33 421 88 482 L10 557 L40 586 L118 511 Q176 563 265 563 Q353 563 412 511 L490 586 L520 557 L442 482 Q497 424 497 341 Q497 258 442 200 L520 125 Z M453 341 Q453 416 397 469 Q341 522 265 522 Q188 522 132 469 Q77 417 77 341 Q77 264 132 212 Q187 160 265 160 Q342 160 397 212 Q453 265 453 341 Z " />
<glyph glyph-name="yen" unicode="&#xa5;" horiz-adv-x="607" d="M607 662 Q518 662 479 577 L454 522 L552 522 L552 484 L437 484 L391 384 L552 384 L552 346 L374 346 L351 295 L351 108 Q351 55 371.5 36.5 Q392 18 446 18 L446 0 L143 0 L143 18 Q171 18 190 22 Q209 26 219.5 36 Q230 46 234.5 63.5 Q239 81 239 108 L239 283 L212 346 L44 346 L44 384 L195 384 L152 484 L44 484 L44 522 L136 522 L108 587 Q76 662 0 662 L0 680 L296 680 L296 662 Q219 662 219 623 Q219 607 233 568 L251 522 L405 522 L429 578 Q438 599 438 616 Q438 662 368 662 L368 680 L607 680 L607 662 Z M388 484 L266 484 L324 337 L388 484 Z " />
<glyph glyph-name="brokenbar" unicode="&#xa6;" horiz-adv-x="164" d="M111 494 L60 494 L60 896 L111 896 L111 494 Z M111 0 L60 0 L60 367 L111 367 L111 0 Z " />
<glyph glyph-name="section" unicode="&#xa7;" horiz-adv-x="500" d="M434 237 Q434 188 399 138 Q367 92 318 67 Q385 -1 385 -57 Q385 -120 341 -166 Q298 -212 232 -212 Q181 -212 141 -179 Q101 -146 101 -98 Q101 -81 113 -67.5 Q125 -54 142 -54 Q180 -54 180 -99 Q180 -109 176 -126.5 Q172 -144 172 -153 Q172 -188 236 -188 Q270 -188 299 -160 Q329 -133 329 -102 Q329 -48 259 10 L130 115 Q60 181 60 250 Q60 358 176 423 Q110 487 110 549 Q110 611 153 653 Q196 696 261 696 Q315 696 353 665 Q393 631 393 582 Q393 565 381 551.5 Q369 538 352 538 Q335 538 322.5 549.5 Q310 561 310 577 Q310 585 314 601 Q318 617 318 626 Q318 672 261 672 Q242 672 224.5 665.5 Q207 659 194 648 Q181 637 173.5 621.5 Q166 606 166 588 Q166 534 235 476 L365 375 Q434 310 434 237 Z M380 190 Q380 250 311 312 L193 407 Q114 364 114 294 Q114 236 184 175 L301 82 Q380 124 380 190 Z " />
<glyph glyph-name="dieresis" unicode="&#xa8;" horiz-adv-x="285" d="M107 800 Q107 781 93 767.5 Q79 754 59 754 Q39 754 25 767.5 Q11 781 11 800 Q11 819 25 832.5 Q39 846 59 846 Q79 846 93 832.5 Q107 819 107 800 Z M283 800 Q283 781 269 767.5 Q255 754 235 754 Q215 754 201 767.5 Q187 781 187 800 Q187 819 201 832.5 Q215 846 235 846 Q255 846 269 832.5 Q283 819 283 800 Z " />
<glyph glyph-name="copyright" unicode="&#xa9;" horiz-adv-x="760" d="M737 341 Q737 193 632 88 Q528 -16 380 -16 Q233 -16 127 88 Q23 194 23 341 Q23 488 127 592 Q233 696 380 696 Q528 696 632 592 Q737 488 737 341 Z M706 341 Q706 475 610 570 Q515 665 380 665 Q246 665 149 570 Q54 475 54 341 Q54 206 150 110 Q247 15 380 15 Q516 15 610 109 Q706 203 706 341 Z M576 216 Q506 113 380 113 Q285 113 217 177 Q149 242 149 335 Q149 442 216 506 Q284 571 391 571 Q426 571 482 552 Q499 547 500 547 Q518 547 526 571 L544 571 L554 429 L536 429 Q522 484 482 515.5 Q442 547 385 547 Q233 547 233 353 Q233 147 401 147 Q506 147 556 227 L576 216 Z " />
<glyph glyph-name="ordfeminine" unicode="&#xaa;" horiz-adv-x="320" d="M309 431 Q259 394 231 394 Q199 394 192 440 Q128 394 80 394 Q54 394 33 413 Q12 432 12 459 Q12 533 192 592 Q193 630 185 650 Q173 677 136 677 Q90 677 90 635 Q90 594 58 594 Q26 594 26 624 Q26 663 69 681 Q100 696 150 696 Q265 696 265 601 L265 461 Q265 438 280 437 Q281 437 309 454 L309 431 Z M192 569 Q85 539 85 481 Q85 463 98.5 450 Q112 437 131 437 Q146 437 162 446 Q178 455 192 464 L192 569 Z " />
<glyph glyph-name="guillemotleft" unicode="&#xab;" horiz-adv-x="528" d="M478 0 L447 0 L248 230 L447 459 L478 459 L350 230 L478 0 Z M280 0 L249 0 L50 230 L249 459 L280 459 L152 230 L280 0 Z " />
<glyph glyph-name="logicalnot" unicode="&#xac;" horiz-adv-x="605" d="M585 459 L585 253 L541 253 L541 415 L20 415 L20 459 L585 459 Z " />
<glyph glyph-name="registered" unicode="&#xae;" horiz-adv-x="760" d="M737 341 Q737 193 632 88 Q528 -16 380 -16 Q233 -16 127 88 Q23 194 23 341 Q23 488 127 592 Q233 696 380 696 Q528 696 632 592 Q737 488 737 341 Z M706 341 Q706 475 610 570 Q515 665 380 665 Q246 665 149 570 Q54 475 54 341 Q54 206 150 110 Q247 15 380 15 Q516 15 610 109 Q706 203 706 341 Z M612 127 L511 127 L356 330 L316 330 L316 213 Q316 145 379 145 L379 127 L186 127 L186 145 Q241 145 241 213 L241 487 Q241 521 232 533.5 Q223 546 192 546 L192 564 L382 564 Q455 564 501 538 Q552 509 552 452 Q552 366 435 339 L537 200 Q561 166 572 157 Q585 145 612 145 L612 127 Z M466 445 Q466 487 436 514.5 Q406 542 361 542 Q337 542 316 534 L316 353 L326 353 Q466 353 466 445 Z " />
<glyph glyph-name="overscore" unicode="&#xaf;" horiz-adv-x="454" d="M360 516 L107 516 L107 543 L360 543 L360 516 Z " />
<glyph glyph-name="degree" unicode="&#xb0;" horiz-adv-x="400" d="M360 543 Q360 480 313 433 Q267 387 201 387 Q132 387 85 433 Q37 479 37 544 Q37 607 84 651 Q132 696 198 696 Q264 696 312 651 Q360 606 360 543 Z M314 543 Q314 589 279 622 Q244 655 198 655 Q151 655 117 622 Q83 589 83 544 Q83 496 117 462 Q151 428 201 428 Q250 428 281 462 Q314 496 314 543 Z " />
<glyph glyph-name="plusminus" unicode="&#xb1;" horiz-adv-x="568" d="M518 476 L325 476 L325 301 L237 301 L237 476 L44 476 L44 558 L237 558 L237 734 L325 734 L325 558 L518 558 L518 476 Z M496 175 L66 175 L66 256 L496 256 L496 175 Z " />
<glyph glyph-name="twosuperior" unicode="&#xb2;" horiz-adv-x="275" d="M38 200 L38 233 L178 356 Q192 368 202 387.5 Q212 407 212 426 Q212 467 188 480.5 Q164 494 128 494 Q109 494 84 487.5 Q59 481 45 465 L45 501 Q52 507 62.5 511.5 Q73 516 84.5 519 Q96 522 107.5 523 Q119 524 128 524 Q153 524 175.5 519.5 Q198 515 214.5 503.5 Q231 492 240.5 473 Q250 454 250 426 Q250 400 235.5 376 Q221 352 202 336 L74 229 L258 229 L258 200 L38 200 Z " />
<glyph glyph-name="threesuperior" unicode="&#xb3;" horiz-adv-x="276" d="M254 285 Q254 259 243 241.5 Q232 224 214 212.5 Q196 201 174 196 Q152 191 130 191 Q123 191 110 192.5 Q97 194 82.5 197 Q68 200 56 204 Q44 208 39 213 L39 246 Q56 235 83 227 Q110 219 130 219 Q145 219 160.5 223 Q176 227 189 235 Q202 243 210 256 Q218 269 218 286 Q218 307 208 320.5 Q198 334 182.5 341.5 Q167 349 148.5 352 Q130 355 113 355 L94 355 L94 384 L113 384 Q126 384 142.5 386.5 Q159 389 173 395.5 Q187 402 196.5 413 Q206 424 206 441 Q206 455 198.5 465 Q191 475 180 482 Q169 489 155.5 492 Q142 495 130 495 Q121 495 109 494 Q97 493 85 490 Q73 487 62 482.5 Q51 478 44 472 L44 502 Q59 515 85.5 519.5 Q112 524 130 524 Q150 524 170 519.5 Q190 515 206 505.5 Q222 496 232 480 Q242 464 242 441 Q242 413 221 395.5 Q200 378 176 370 Q208 364 231 342 Q254 320 254 285 Z " />
<glyph glyph-name="acute" unicode="&#xb4;" horiz-adv-x="201" d="M190 896 L39 719 L11 719 L64 896 L190 896 Z " />
<glyph glyph-name="mu" unicode="&#xb5;" horiz-adv-x="525" d="M519 101 Q517 53 492 20 Q463 -16 415 -16 Q338 -16 332 80 Q249 -16 166 -16 Q115 -16 87 24 L85 24 Q85 -28 95 -81 Q106 -139 106 -155 Q106 -212 64 -212 Q19 -212 19 -154 Q19 -145 22.5 -124.5 Q26 -104 33 -72 Q48 -8 48 68 L48 459 L131 459 L131 178 Q131 46 209 46 Q273 46 332 114 L332 459 L415 459 L415 122 Q415 96 424 71 Q434 38 453 38 Q490 38 496 101 L519 101 Z " />
<glyph glyph-name="paragraph" unicode="&#xb6;" horiz-adv-x="539" d="M442 -194 L404 -194 L404 668 L306 668 L306 -194 L268 -194 L268 315 Q215 315 171.5 325 Q128 335 96.5 357 Q65 379 47.5 415 Q30 451 30 503 Q30 594 84 645 Q138 696 252 696 L512 696 L512 668 L442 668 L442 -194 Z " />
<glyph glyph-name="middot" unicode="&#xb7;" horiz-adv-x="190" d="M137 238 Q137 220 125 208 Q113 196 95 196 Q78 196 65.5 208 Q53 220 53 238 Q53 255 65.5 267 Q78 279 95 279 Q113 279 125 267 Q137 255 137 238 Z " />
<glyph glyph-name="cedilla" unicode="&#xb8;" horiz-adv-x="346" d="M262 -91 Q262 -150 181 -150 Q147 -150 98 -137 L97 -106 Q151 -118 180 -118 Q215 -118 215 -93 Q215 -61 156 -67 L156 -6 L181 -6 L181 -37 Q262 -37 262 -91 Z " />
<glyph glyph-name="onesuperior" unicode="&#xb9;" horiz-adv-x="267" d="M152 200 L152 485 L64 411 L64 445 L155 518 L190 518 L190 200 L152 200 Z " />
<glyph glyph-name="ordmasculine" unicode="&#xba;" horiz-adv-x="329" d="M318 547 Q318 486 272 440 Q226 394 164 394 Q99 394 55 435 Q12 475 12 539 Q12 607 56 651 Q99 696 170 696 Q234 696 276 652 Q318 608 318 547 Z M245 515 Q245 566 224 613 Q197 671 150 671 Q85 671 85 575 Q85 525 104 480 Q129 419 173 419 Q245 419 245 515 Z " />
<glyph glyph-name="guillemotright" unicode="&#xbb;" horiz-adv-x="528" d="M478 230 L279 0 L248 0 L376 230 L248 459 L279 459 L478 230 Z M280 230 L81 0 L50 0 L178 230 L50 459 L81 459 L280 230 Z " />
<glyph glyph-name="onequarter" unicode="&#xbc;" horiz-adv-x="590" d="M214 -87 L164 -87 L406 607 L456 607 L214 -87 Z M168 250 L168 535 L80 461 L80 495 L171 568 L206 568 L206 250 L168 250 Z M530 75 L530 0 L492 0 L492 75 L331 75 L331 118 L476 318 L530 318 L530 107 L575 107 L575 75 L530 75 Z M492 294 L358 107 L492 107 L492 294 Z " />
<glyph glyph-name="onehalf" unicode="&#xbd;" horiz-adv-x="605" d="M202 -87 L152 -87 L394 607 L444 607 L202 -87 Z M168 250 L168 535 L80 461 L80 495 L171 568 L206 568 L206 250 L168 250 Z M373 0 L373 33 L513 156 Q527 168 537 187.5 Q547 207 547 226 Q547 267 523 280.5 Q499 294 463 294 Q444 294 419 287.5 Q394 281 380 265 L380 301 Q387 307 397.5 311.5 Q408 316 419.5 319 Q431 322 442.5 323 Q454 324 463 324 Q488 324 510.5 319.5 Q533 315 549.5 303.5 Q566 292 575.5 273 Q585 254 585 226 Q585 200 570.5 176 Q556 152 537 136 L409 29 L593 29 L593 0 L373 0 Z " />
<glyph glyph-name="threequarters" unicode="&#xbe;" horiz-adv-x="592" d="M252 334 Q252 308 241 290.5 Q230 273 212 261.5 Q194 250 172 245 Q150 240 128 240 Q121 240 108 241.5 Q95 243 80.5 246 Q66 249 54 253 Q42 257 37 262 L37 295 Q54 284 81 276 Q108 268 128 268 Q143 268 158.5 272 Q174 276 187 284 Q200 292 208 305 Q216 318 216 335 Q216 356 206 369.5 Q196 383 180.5 390.5 Q165 398 146.5 401 Q128 404 111 404 L92 404 L92 433 L111 433 Q124 433 140.5 435.5 Q157 438 171 444.5 Q185 451 194.5 462 Q204 473 204 490 Q204 504 196.5 514 Q189 524 178 531 Q167 538 153.5 541 Q140 544 128 544 Q119 544 107 543 Q95 542 83 539 Q71 536 60 531.5 Q49 527 42 521 L42 551 Q57 564 83.5 568.5 Q110 573 128 573 Q148 573 168 568.5 Q188 564 204 554.5 Q220 545 230 529 Q240 513 240 490 Q240 462 219 444.5 Q198 427 174 419 Q206 413 229 391 Q252 369 252 334 Z M201 -87 L151 -87 L393 607 L443 607 L201 -87 Z M517 75 L517 0 L479 0 L479 75 L318 75 L318 118 L463 318 L517 318 L517 107 L562 107 L562 75 L517 75 Z M479 294 L345 107 L479 107 L479 294 Z " />
<glyph glyph-name="questiondown" unicode="&#xbf;" horiz-adv-x="431" d="M259 642 Q259 620 242.5 604 Q226 588 203 588 Q180 588 163.5 604 Q147 620 147 642 Q147 664 163.5 680 Q180 696 203 696 Q226 696 242.5 680 Q259 664 259 642 Z M406 146 Q406 108 392 78 Q378 48 353 27 Q328 6 292.5 -5 Q257 -16 215 -16 Q144 -16 92 21 Q32 63 32 137 Q32 168 48 187 Q64 206 88 206 Q125 206 127 164 Q128 150 111 120 Q95 94 95 78 Q95 53 123 37.5 Q151 22 189 22 Q302 22 302 153 Q302 211 273 272 L220 378 Q191 447 191 521 L215 521 Q215 457 265 389 Q288 360 310.5 332 Q333 304 356 275 Q406 207 406 146 Z " />
<glyph glyph-name="Agrave" unicode="&#xc0;" horiz-adv-x="750" d="M742 0 L462 0 L462 18 Q536 18 536 61 Q536 80 524 107 L473 227 L208 227 L156 107 Q144 80 144 62 Q144 18 223 18 L223 0 L6 0 L6 18 Q65 18 103 107 L356 696 L380 696 L629 107 Q650 57 671 39 Q695 18 742 18 L742 0 Z M454 265 L341 539 L223 265 L454 265 Z M470 719 L442 719 L291 896 L417 896 L470 719 Z " />
<glyph glyph-name="Aacute" unicode="&#xc1;" horiz-adv-x="750" d="M742 0 L462 0 L462 18 Q536 18 536 61 Q536 80 524 107 L473 227 L208 227 L156 107 Q144 80 144 62 Q144 18 223 18 L223 0 L6 0 L6 18 Q65 18 103 107 L356 696 L380 696 L629 107 Q650 57 671 39 Q695 18 742 18 L742 0 Z M454 265 L341 539 L223 265 L454 265 Z M440 896 L289 719 L261 719 L314 896 L440 896 Z " />
<glyph glyph-name="Acircumflex" unicode="&#xc2;" horiz-adv-x="750" d="M516 739 L499 739 L368 846 L237 739 L220 739 L320 906 L416 906 L516 739 Z M742 0 L462 0 L462 18 Q536 18 536 61 Q536 80 524 107 L473 227 L208 227 L156 107 Q144 80 144 62 Q144 18 223 18 L223 0 L6 0 L6 18 Q65 18 103 107 L356 696 L380 696 L629 107 Q650 57 671 39 Q695 18 742 18 L742 0 Z M454 265 L341 539 L223 265 L454 265 Z " />
<glyph glyph-name="Atilde" unicode="&#xc3;" horiz-adv-x="750" d="M742 0 L462 0 L462 18 Q536 18 536 61 Q536 80 524 107 L473 227 L208 227 L156 107 Q144 80 144 62 Q144 18 223 18 L223 0 L6 0 L6 18 Q65 18 103 107 L356 696 L380 696 L629 107 Q650 57 671 39 Q695 18 742 18 L742 0 Z M454 265 L341 539 L223 265 L454 265 Z M536 830 Q536 794 503 775 Q475 759 437 759 Q391 759 343 779 Q335 783 327.5 787 Q320 791 312 795 Q292 804 279 804 Q238 804 235 768 L214 768 Q214 781 222 795 Q249 846 315 846 Q350 846 403 824 Q457 803 477 803 Q512 803 514 830 L536 830 Z " />
<glyph glyph-name="Adieresis" unicode="&#xc4;" horiz-adv-x="750" d="M742 0 L462 0 L462 18 Q536 18 536 61 Q536 80 524 107 L473 227 L208 227 L156 107 Q144 80 144 62 Q144 18 223 18 L223 0 L6 0 L6 18 Q65 18 103 107 L356 696 L380 696 L629 107 Q650 57 671 39 Q695 18 742 18 L742 0 Z M454 265 L341 539 L223 265 L454 265 Z M325 800 Q325 781 311 767.5 Q297 754 277 754 Q257 754 243 767.5 Q229 781 229 800 Q229 819 243 832.5 Q257 846 277 846 Q297 846 311 832.5 Q325 819 325 800 Z M501 800 Q501 781 487 767.5 Q473 754 453 754 Q433 754 419 767.5 Q405 781 405 800 Q405 819 419 832.5 Q433 846 453 846 Q473 846 487 832.5 Q501 819 501 800 Z " />
<glyph glyph-name="Aring" unicode="&#xc5;" horiz-adv-x="750" d="M742 0 L462 0 L462 18 Q536 18 536 61 Q536 80 524 107 L473 227 L208 227 L156 107 Q144 80 144 62 Q144 18 223 18 L223 0 L6 0 L6 18 Q65 18 103 107 L356 696 L380 696 L629 107 Q650 57 671 39 Q695 18 742 18 L742 0 Z M454 265 L341 539 L223 265 L454 265 Z M431 807 Q431 781 413 763 Q395 745 369 745 Q343 745 325 763 Q307 781 307 807 Q307 832 325 850 Q343 868 369 868 Q395 868 413 850 Q431 832 431 807 Z M402 807 Q402 820 392 830 Q382 840 369 840 Q336 840 336 807 Q336 774 369 774 Q382 774 392 783.5 Q402 793 402 807 Z " />
<glyph glyph-name="AE" unicode="&#xc6;" horiz-adv-x="1065" d="M1047 191 L986 0 L460 0 L460 18 Q514 18 535 36.5 Q556 55 556 108 L556 227 L268 227 L176 107 Q159 84 159 65 Q159 18 243 18 L243 0 L6 0 L6 18 Q54 18 123 107 L536 643 Q517 662 460 662 L460 680 L982 680 L990 518 L972 518 Q958 584 929 613 Q896 646 832 646 L660 646 L660 388 L807 388 Q909 388 909 476 L927 476 L927 246 L909 246 Q909 354 809 354 L660 354 L660 76 Q660 59 672 46.5 Q684 34 700 34 L842 34 Q974 34 1023 191 L1047 191 Z M556 265 L556 572 Q556 580 556 586.5 Q556 593 555 598 L293 265 L556 265 Z " />
<glyph glyph-name="Ccedilla" unicode="&#xc7;" horiz-adv-x="685" d="M472 -91 Q472 -150 391 -150 Q357 -150 308 -137 L307 -106 Q361 -118 390 -118 Q425 -118 425 -93 Q425 -61 366 -67 L366 -15 Q227 -9 133 85 Q32 186 32 332 Q32 483 138 589 Q245 696 389 696 Q442 696 481 684 Q506 676 532 662 Q554 650 564 650 Q575 650 586 663.5 Q597 677 601 696 L618 696 L635 465 L611 465 Q601 547 541 604 Q482 662 406 662 Q293 662 222 567 Q154 476 154 328 Q154 188 232 104 Q305 23 421 23 Q540 23 635 169 L652 159 Q610 84 545 37 Q471 -14 391 -16 L391 -37 Q472 -37 472 -91 Z " />
<glyph glyph-name="Egrave" unicode="&#xc8;" horiz-adv-x="625" d="M607 191 L546 0 L20 0 L20 18 Q74 18 95 36.5 Q116 55 116 108 L116 572 Q116 625 95 643.5 Q74 662 20 662 L20 680 L542 680 L550 518 L532 518 Q518 584 489 613 Q456 646 392 646 L220 646 L220 388 L367 388 Q469 388 469 476 L487 476 L487 246 L469 246 Q469 354 369 354 L220 354 L220 76 Q220 59 232 46.5 Q244 34 260 34 L402 34 Q534 34 583 191 L607 191 Z M390 719 L362 719 L211 896 L337 896 L390 719 Z " />
<glyph glyph-name="Eacute" unicode="&#xc9;" horiz-adv-x="625" d="M607 191 L546 0 L20 0 L20 18 Q74 18 95 36.5 Q116 55 116 108 L116 572 Q116 625 95 643.5 Q74 662 20 662 L20 680 L542 680 L550 518 L532 518 Q518 584 489 613 Q456 646 392 646 L220 646 L220 388 L367 388 Q469 388 469 476 L487 476 L487 246 L469 246 Q469 354 369 354 L220 354 L220 76 Q220 59 232 46.5 Q244 34 260 34 L402 34 Q534 34 583 191 L607 191 Z M448 896 L297 719 L269 719 L322 896 L448 896 Z " />
<glyph glyph-name="Ecircumflex" unicode="&#xca;" horiz-adv-x="625" d="M607 191 L546 0 L20 0 L20 18 Q74 18 95 36.5 Q116 55 116 108 L116 572 Q116 625 95 643.5 Q74 662 20 662 L20 680 L542 680 L550 518 L532 518 Q518 584 489 613 Q456 646 392 646 L220 646 L220 388 L367 388 Q469 388 469 476 L487 476 L487 246 L469 246 Q469 354 369 354 L220 354 L220 76 Q220 59 232 46.5 Q244 34 260 34 L402 34 Q534 34 583 191 L607 191 Z M456 739 L439 739 L308 846 L177 739 L160 739 L260 906 L356 906 L456 739 Z " />
<glyph glyph-name="Edieresis" unicode="&#xcb;" horiz-adv-x="625" d="M607 191 L546 0 L20 0 L20 18 Q74 18 95 36.5 Q116 55 116 108 L116 572 Q116 625 95 643.5 Q74 662 20 662 L20 680 L542 680 L550 518 L532 518 Q518 584 489 613 Q456 646 392 646 L220 646 L220 388 L367 388 Q469 388 469 476 L487 476 L487 246 L469 246 Q469 354 369 354 L220 354 L220 76 Q220 59 232 46.5 Q244 34 260 34 L402 34 Q534 34 583 191 L607 191 Z M277 800 Q277 781 263 767.5 Q249 754 229 754 Q209 754 195 767.5 Q181 781 181 800 Q181 819 195 832.5 Q209 846 229 846 Q249 846 263 832.5 Q277 819 277 800 Z M453 800 Q453 781 439 767.5 Q425 754 405 754 Q385 754 371 767.5 Q357 781 357 800 Q357 819 371 832.5 Q385 846 405 846 Q425 846 439 832.5 Q453 819 453 800 Z " />
<glyph glyph-name="Igrave" unicode="&#xcc;" horiz-adv-x="342" d="M319 0 L23 0 L23 18 Q77 18 98 36.5 Q119 55 119 108 L119 572 Q119 625 98 643.5 Q77 662 23 662 L23 680 L319 680 L319 662 Q265 662 244 643.5 Q223 625 223 572 L223 108 Q223 55 244 36.5 Q265 18 319 18 L319 0 Z M230 719 L202 719 L51 896 L177 896 L230 719 Z " />
<glyph glyph-name="Iacute" unicode="&#xcd;" horiz-adv-x="342" d="M319 0 L23 0 L23 18 Q77 18 98 36.5 Q119 55 119 108 L119 572 Q119 625 98 643.5 Q77 662 23 662 L23 680 L319 680 L319 662 Q265 662 244 643.5 Q223 625 223 572 L223 108 Q223 55 244 36.5 Q265 18 319 18 L319 0 Z M270 896 L119 719 L91 719 L144 896 L270 896 Z " />
<glyph glyph-name="Icircumflex" unicode="&#xce;" horiz-adv-x="342" d="M319 0 L23 0 L23 18 Q77 18 98 36.5 Q119 55 119 108 L119 572 Q119 625 98 643.5 Q77 662 23 662 L23 680 L319 680 L319 662 Q265 662 244 643.5 Q223 625 223 572 L223 108 Q223 55 244 36.5 Q265 18 319 18 L319 0 Z M319 739 L302 739 L171 846 L40 739 L23 739 L123 906 L219 906 L319 739 Z " />
<glyph glyph-name="Idieresis" unicode="&#xcf;" horiz-adv-x="342" d="M319 0 L23 0 L23 18 Q77 18 98 36.5 Q119 55 119 108 L119 572 Q119 625 98 643.5 Q77 662 23 662 L23 680 L319 680 L319 662 Q265 662 244 643.5 Q223 625 223 572 L223 108 Q223 55 244 36.5 Q265 18 319 18 L319 0 Z M133 800 Q133 781 119 767.5 Q105 754 85 754 Q65 754 51 767.5 Q37 781 37 800 Q37 819 51 832.5 Q65 846 85 846 Q105 846 119 832.5 Q133 819 133 800 Z M309 800 Q309 781 295 767.5 Q281 754 261 754 Q241 754 227 767.5 Q213 781 213 800 Q213 819 227 832.5 Q241 846 261 846 Q281 846 295 832.5 Q309 819 309 800 Z " />
<glyph glyph-name="Ntilde" unicode="&#xd1;" horiz-adv-x="739" d="M722 662 Q668 662 647 643.5 Q626 625 626 572 L626 -16 L602 -16 L163 537 L159 537 L159 108 Q159 55 180 36.5 Q201 18 255 18 L255 0 L17 0 L17 18 Q71 18 92 36.5 Q113 55 113 108 L113 566 Q113 587 104 604.5 Q95 622 80 635 Q65 648 44.5 655 Q24 662 0 662 L0 680 L171 680 L576 183 L580 183 L580 572 Q580 625 559 643.5 Q538 662 484 662 L484 680 L722 680 L722 662 Z M516 830 Q516 794 483 775 Q455 759 417 759 Q371 759 323 779 Q315 783 307.5 787 Q300 791 292 795 Q272 804 259 804 Q218 804 215 768 L194 768 Q194 781 202 795 Q229 846 295 846 Q330 846 383 824 Q437 803 457 803 Q492 803 494 830 L516 830 Z " />
<glyph glyph-name="Ograve" unicode="&#xd2;" horiz-adv-x="506" d="M474 243 Q474 136 411 63 Q348 -10 253 -10 Q158 -10 95 58 Q32 125 32 224 Q32 327 95 398 Q158 469 253 469 Q348 469 411 403 Q474 338 474 243 Z M381 196 Q381 435 233 435 Q190 435 157 385 Q125 335 125 266 Q125 163 163 95 Q204 24 269 24 Q317 24 349 74 Q381 126 381 196 Z M330 524 L302 524 L151 701 L277 701 L330 524 Z " />
<glyph glyph-name="Oacute" unicode="&#xd3;" horiz-adv-x="506" d="M474 243 Q474 136 411 63 Q348 -10 253 -10 Q158 -10 95 58 Q32 125 32 224 Q32 327 95 398 Q158 469 253 469 Q348 469 411 403 Q474 338 474 243 Z M381 196 Q381 435 233 435 Q190 435 157 385 Q125 335 125 266 Q125 163 163 95 Q204 24 269 24 Q317 24 349 74 Q381 126 381 196 Z M330 701 L179 524 L151 524 L204 701 L330 701 Z " />
<glyph glyph-name="Ocircumflex" unicode="&#xd4;" horiz-adv-x="506" d="M474 243 Q474 136 411 63 Q348 -10 253 -10 Q158 -10 95 58 Q32 125 32 224 Q32 327 95 398 Q158 469 253 469 Q348 469 411 403 Q474 338 474 243 Z M381 196 Q381 435 233 435 Q190 435 157 385 Q125 335 125 266 Q125 163 163 95 Q204 24 269 24 Q317 24 349 74 Q381 126 381 196 Z M406 544 L389 544 L258 651 L127 544 L110 544 L210 711 L306 711 L406 544 Z " />
<glyph glyph-name="Otilde" unicode="&#xd5;" horiz-adv-x="746" d="M714 344 Q714 195 615 89 Q516 -16 373 -16 Q230 -16 131 89 Q32 195 32 344 Q32 491 131 593 Q230 696 373 696 Q516 696 615 593 Q714 491 714 344 Z M592 344 Q592 487 535 573 Q476 662 373 662 Q269 662 210 573 Q154 487 154 344 Q154 199 210 111 Q268 18 373 18 Q476 18 535 111 Q592 199 592 344 Z M532 830 Q532 794 499 775 Q471 759 433 759 Q387 759 339 779 Q331 783 323.5 787 Q316 791 308 795 Q288 804 275 804 Q234 804 231 768 L210 768 Q210 781 218 795 Q245 846 311 846 Q346 846 399 824 Q453 803 473 803 Q508 803 510 830 L532 830 Z " />
<glyph glyph-name="Odieresis" unicode="&#xd6;" horiz-adv-x="746" d="M714 344 Q714 195 615 89 Q516 -16 373 -16 Q230 -16 131 89 Q32 195 32 344 Q32 491 131 593 Q230 696 373 696 Q516 696 615 593 Q714 491 714 344 Z M592 344 Q592 487 535 573 Q476 662 373 662 Q269 662 210 573 Q154 487 154 344 Q154 199 210 111 Q268 18 373 18 Q476 18 535 111 Q592 199 592 344 Z M340 800 Q340 781 326 767.5 Q312 754 292 754 Q272 754 258 767.5 Q244 781 244 800 Q244 819 258 832.5 Q272 846 292 846 Q312 846 326 832.5 Q340 819 340 800 Z M516 800 Q516 781 502 767.5 Q488 754 468 754 Q448 754 434 767.5 Q420 781 420 800 Q420 819 434 832.5 Q448 846 468 846 Q488 846 502 832.5 Q516 819 516 800 Z " />
<glyph glyph-name="multiply" unicode="&#xd7;" horiz-adv-x="581" d="M549 57 L493 6 L290 192 L89 6 L33 57 L234 243 L33 427 L89 479 L290 293 L493 479 L549 427 L347 243 L549 57 Z " />
<glyph glyph-name="Oslash" unicode="&#xd8;" horiz-adv-x="746" d="M714 344 Q714 195 615 89 Q516 -16 373 -16 Q299 -16 232 16 L187 -84 L161 -73 L207 29 Q127 76 79 160 Q32 245 32 344 Q32 491 131 593 Q230 696 373 696 Q437 696 494 674 L540 776 L565 765 L520 663 Q608 619 661 534 Q714 448 714 344 Z M592 344 Q592 533 499 616 L252 61 Q301 18 373 18 Q476 18 535 110 Q592 198 592 344 Z M476 633 Q430 662 373 662 Q268 662 209 573 Q154 488 154 344 Q154 170 230 82 L476 633 Z " />
<glyph glyph-name="Ugrave" unicode="&#xd9;" horiz-adv-x="518" d="M518 53 L378 -10 L354 -10 L354 86 Q332 47 290 18 Q250 -10 212 -10 Q157 -10 118 32 Q80 75 80 133 L80 362 Q80 408 65 424.5 Q50 441 8 441 L8 459 L163 459 L163 133 Q163 98 190 74 Q217 50 255 50 Q280 50 309 71.5 Q338 93 354 124 L354 362 Q354 408 339 424.5 Q324 441 282 441 L282 459 L437 459 L437 136 Q437 91 446 75 Q455 59 479 59 Q496 59 512 67 L518 53 Z M300 524 L272 524 L121 701 L247 701 L300 524 Z " />
<glyph glyph-name="Uacute" unicode="&#xda;" horiz-adv-x="518" d="M518 53 L378 -10 L354 -10 L354 86 Q332 47 290 18 Q250 -10 212 -10 Q157 -10 118 32 Q80 75 80 133 L80 362 Q80 408 65 424.5 Q50 441 8 441 L8 459 L163 459 L163 133 Q163 98 190 74 Q217 50 255 50 Q280 50 309 71.5 Q338 93 354 124 L354 362 Q354 408 339 424.5 Q324 441 282 441 L282 459 L437 459 L437 136 Q437 91 446 75 Q455 59 479 59 Q496 59 512 67 L518 53 Z M323 701 L172 524 L144 524 L197 701 L323 701 Z " />
<glyph glyph-name="Ucircumflex" unicode="&#xdb;" horiz-adv-x="518" d="M518 53 L378 -10 L354 -10 L354 86 Q332 47 290 18 Q250 -10 212 -10 Q157 -10 118 32 Q80 75 80 133 L80 362 Q80 408 65 424.5 Q50 441 8 441 L8 459 L163 459 L163 133 Q163 98 190 74 Q217 50 255 50 Q280 50 309 71.5 Q338 93 354 124 L354 362 Q354 408 339 424.5 Q324 441 282 441 L282 459 L437 459 L437 136 Q437 91 446 75 Q455 59 479 59 Q496 59 512 67 L518 53 Z M396 544 L379 544 L248 651 L117 544 L100 544 L200 711 L296 711 L396 544 Z " />
<glyph glyph-name="Udieresis" unicode="&#xdc;" horiz-adv-x="752" d="M743 662 Q689 662 668 643.5 Q647 625 647 572 L647 239 Q647 126 584 59 Q512 -16 376 -16 Q252 -16 180 60 Q113 130 113 241 L113 572 Q113 625 92 643.5 Q71 662 17 662 L17 680 L313 680 L313 662 Q259 662 238 643.5 Q217 625 217 572 L217 239 Q217 151 270 89 Q322 28 409 28 Q496 28 550 90 Q601 148 601 239 L601 572 Q601 625 580 643.5 Q559 662 505 662 L505 680 L743 680 L743 662 Z M347 800 Q347 781 333 767.5 Q319 754 299 754 Q279 754 265 767.5 Q251 781 251 800 Q251 819 265 832.5 Q279 846 299 846 Q319 846 333 832.5 Q347 819 347 800 Z M523 800 Q523 781 509 767.5 Q495 754 475 754 Q455 754 441 767.5 Q427 781 427 800 Q427 819 441 832.5 Q455 846 475 846 Q495 846 509 832.5 Q523 819 523 800 Z " />
<glyph glyph-name="germandbls" unicode="&#xdf;" horiz-adv-x="590" d="M548 185 Q548 107 498 48 Q448 -11 371 -11 Q332 -11 304 6 Q272 27 272 64 Q272 84 284 98 Q296 112 316 112 Q334 112 345.5 101 Q357 90 361 50 Q364 20 391 20 Q454 20 454 163 Q454 252 397 308 Q353 350 275 356 L275 385 Q336 398 354 411 Q395 441 395 516 Q395 572 376 609 Q350 657 302 657 Q217 657 217 532 L217 0 L27 0 L27 19 Q75 19 92 31 Q120 50 120 104 L120 455 Q120 512 156 592 Q197 684 308 684 Q382 684 429 648 Q481 608 481 536 Q481 476 443.5 435 Q406 394 346 378 Q422 359 463 329 Q548 265 548 185 Z " />
<glyph glyph-name="agrave" unicode="&#xe0;" horiz-adv-x="445" d="M439 58 Q398 -10 332 -10 Q307 -10 294 15 Q282 34 282 63 Q256 41 241.5 28.5 Q227 16 223 14 Q185 -10 139 -10 Q90 -10 61 22 Q32 54 32 105 Q32 183 117 232 Q150 251 282 298 L282 326 Q282 439 201 439 Q133 439 133 369 Q133 308 92 308 Q73 308 60.5 323.5 Q48 339 48 362 Q48 406 98 438 Q147 469 217 469 Q365 469 365 347 L365 87 Q365 52 388 52 Q414 52 439 92 L439 58 Z M282 268 Q115 209 115 129 Q115 96 135.5 71 Q156 46 183 46 Q220 46 282 96 L282 268 Z M260 524 L232 524 L81 701 L207 701 L260 524 Z " />
<glyph glyph-name="aacute" unicode="&#xe1;" horiz-adv-x="445" d="M439 58 Q398 -10 332 -10 Q307 -10 294 15 Q282 34 282 63 Q256 41 241.5 28.5 Q227 16 223 14 Q185 -10 139 -10 Q90 -10 61 22 Q32 54 32 105 Q32 183 117 232 Q150 251 282 298 L282 326 Q282 439 201 439 Q133 439 133 369 Q133 308 92 308 Q73 308 60.5 323.5 Q48 339 48 362 Q48 406 98 438 Q147 469 217 469 Q365 469 365 347 L365 87 Q365 52 388 52 Q414 52 439 92 L439 58 Z M282 268 Q115 209 115 129 Q115 96 135.5 71 Q156 46 183 46 Q220 46 282 96 L282 268 Z M310 701 L159 524 L131 524 L184 701 L310 701 Z " />
<glyph glyph-name="acircumflex" unicode="&#xe2;" horiz-adv-x="445" d="M439 58 Q398 -10 332 -10 Q307 -10 294 15 Q282 34 282 63 Q256 41 241.5 28.5 Q227 16 223 14 Q185 -10 139 -10 Q90 -10 61 22 Q32 54 32 105 Q32 183 117 232 Q150 251 282 298 L282 326 Q282 439 201 439 Q133 439 133 369 Q133 308 92 308 Q73 308 60.5 323.5 Q48 339 48 362 Q48 406 98 438 Q147 469 217 469 Q365 469 365 347 L365 87 Q365 52 388 52 Q414 52 439 92 L439 58 Z M282 268 Q115 209 115 129 Q115 96 135.5 71 Q156 46 183 46 Q220 46 282 96 L282 268 Z M366 544 L349 544 L218 651 L87 544 L70 544 L170 711 L266 711 L366 544 Z " />
<glyph glyph-name="atilde" unicode="&#xe3;" horiz-adv-x="445" d="M439 58 Q398 -10 332 -10 Q307 -10 294 15 Q282 34 282 63 Q256 41 241.5 28.5 Q227 16 223 14 Q185 -10 139 -10 Q90 -10 61 22 Q32 54 32 105 Q32 183 117 232 Q150 251 282 298 L282 326 Q282 439 201 439 Q133 439 133 369 Q133 308 92 308 Q73 308 60.5 323.5 Q48 339 48 362 Q48 406 98 438 Q147 469 217 469 Q365 469 365 347 L365 87 Q365 52 388 52 Q414 52 439 92 L439 58 Z M282 268 Q115 209 115 129 Q115 96 135.5 71 Q156 46 183 46 Q220 46 282 96 L282 268 Z M386 635 Q386 599 353 580 Q325 564 287 564 Q241 564 193 584 Q185 588 177.5 592 Q170 596 162 600 Q142 609 129 609 Q88 609 85 573 L64 573 Q64 586 72 600 Q99 651 165 651 Q200 651 253 629 Q307 608 327 608 Q362 608 364 635 L386 635 Z " />
<glyph glyph-name="adieresis" unicode="&#xe4;" horiz-adv-x="445" d="M439 58 Q398 -10 332 -10 Q307 -10 294 15 Q282 34 282 63 Q256 41 241.5 28.5 Q227 16 223 14 Q185 -10 139 -10 Q90 -10 61 22 Q32 54 32 105 Q32 183 117 232 Q150 251 282 298 L282 326 Q282 439 201 439 Q133 439 133 369 Q133 308 92 308 Q73 308 60.5 323.5 Q48 339 48 362 Q48 406 98 438 Q147 469 217 469 Q365 469 365 347 L365 87 Q365 52 388 52 Q414 52 439 92 L439 58 Z M282 268 Q115 209 115 129 Q115 96 135.5 71 Q156 46 183 46 Q220 46 282 96 L282 268 Z M177 605 Q177 586 163 572.5 Q149 559 129 559 Q109 559 95 572.5 Q81 586 81 605 Q81 624 95 637.5 Q109 651 129 651 Q149 651 163 637.5 Q177 624 177 605 Z M353 605 Q353 586 339 572.5 Q325 559 305 559 Q285 559 271 572.5 Q257 586 257 605 Q257 624 271 637.5 Q285 651 305 651 Q325 651 339 637.5 Q353 624 353 605 Z " />
<glyph glyph-name="aring" unicode="&#xe5;" horiz-adv-x="445" d="M439 58 Q398 -10 332 -10 Q307 -10 294 15 Q282 34 282 63 Q256 41 241.5 28.5 Q227 16 223 14 Q185 -10 139 -10 Q90 -10 61 22 Q32 54 32 105 Q32 183 117 232 Q150 251 282 298 L282 326 Q282 439 201 439 Q133 439 133 369 Q133 308 92 308 Q73 308 60.5 323.5 Q48 339 48 362 Q48 406 98 438 Q147 469 217 469 Q365 469 365 347 L365 87 Q365 52 388 52 Q414 52 439 92 L439 58 Z M282 268 Q115 209 115 129 Q115 96 135.5 71 Q156 46 183 46 Q220 46 282 96 L282 268 Z M271 612 Q271 586 253 568 Q235 550 209 550 Q183 550 165 568 Q147 586 147 612 Q147 637 165 655 Q183 673 209 673 Q235 673 253 655 Q271 637 271 612 Z M242 612 Q242 625 232 635 Q222 645 209 645 Q176 645 176 612 Q176 579 209 579 Q222 579 232 588.5 Q242 598 242 612 Z " />
<glyph glyph-name="ae" unicode="&#xe6;" horiz-adv-x="712" d="M685 161 Q667 89 609 40 Q550 -10 487 -10 Q430 -10 382.5 21 Q335 52 308 104 Q295 75 282 63 Q256 41 241 28.5 Q226 16 222 14 Q184 -10 139 -10 Q90 -10 61 22 Q32 54 32 105 Q32 183 117 232 Q150 251 282 298 L282 326 Q282 439 201 439 Q133 439 133 369 Q133 308 92 308 Q73 308 60.5 323.5 Q48 339 48 362 Q48 406 98 438 Q147 469 217 469 Q320 469 350 410 Q406 469 488 469 Q568 469 621 415 Q674 362 674 284 L362 284 Q362 189 404 125 Q446 60 510 60 Q563 60 610 90 Q657 122 667 164 L685 161 Z M570 308 Q570 360 538 398 Q507 435 462 435 Q424 435 395 397 Q366 359 362 308 L570 308 Z M282 268 Q115 209 115 129 Q115 96 135.5 71 Q156 46 183 46 Q220 46 282 96 L282 268 Z " />
<glyph glyph-name="ccedilla" unicode="&#xe7;" horiz-adv-x="450" d="M421 174 Q377 -3 239 -10 Q210 -37 210 -60 Q210 -76 225 -79 L254 -79 L254 -114 L233 -114 Q178 -114 178 -73 Q178 -43 219 -10 Q142 -6 86 61 Q32 127 32 218 Q32 321 95 395 Q160 469 249 469 Q320 469 364 438 Q410 407 410 360 Q410 339 393 324 Q376 309 355 309 Q333 309 319.5 324.5 Q306 340 306 360 Q306 435 236 435 Q209 435 186.5 423 Q164 411 148 389.5 Q132 368 123.5 339 Q115 310 115 277 Q115 185 155 123 Q195 60 261 60 Q354 60 402 180 L421 174 Z " />
<glyph glyph-name="egrave" unicode="&#xe8;" horiz-adv-x="462" d="M435 161 Q417 89 359 40 Q300 -10 237 -10 Q152 -10 92 55 Q32 121 32 213 Q32 325 89 397 Q146 469 238 469 Q318 469 371 415 Q424 362 424 284 L112 284 Q112 189 154 125 Q196 60 260 60 Q313 60 360 90 Q407 122 417 164 L435 161 Z M320 308 Q320 360 288 398 Q257 435 212 435 Q174 435 145 397 Q116 359 112 308 L320 308 Z M292 524 L264 524 L113 701 L239 701 L292 524 Z " />
<glyph glyph-name="eacute" unicode="&#xe9;" horiz-adv-x="462" d="M435 161 Q417 89 359 40 Q300 -10 237 -10 Q152 -10 92 55 Q32 121 32 213 Q32 325 89 397 Q146 469 238 469 Q318 469 371 415 Q424 362 424 284 L112 284 Q112 189 154 125 Q196 60 260 60 Q313 60 360 90 Q407 122 417 164 L435 161 Z M320 308 Q320 360 288 398 Q257 435 212 435 Q174 435 145 397 Q116 359 112 308 L320 308 Z M319 701 L168 524 L140 524 L193 701 L319 701 Z " />
<glyph glyph-name="ecircumflex" unicode="&#xea;" horiz-adv-x="462" d="M435 161 Q417 89 359 40 Q300 -10 237 -10 Q152 -10 92 55 Q32 121 32 213 Q32 325 89 397 Q146 469 238 469 Q318 469 371 415 Q424 362 424 284 L112 284 Q112 189 154 125 Q196 60 260 60 Q313 60 360 90 Q407 122 417 164 L435 161 Z M320 308 Q320 360 288 398 Q257 435 212 435 Q174 435 145 397 Q116 359 112 308 L320 308 Z M376 544 L359 544 L228 651 L97 544 L80 544 L180 711 L276 711 L376 544 Z " />
<glyph glyph-name="edieresis" unicode="&#xeb;" horiz-adv-x="462" d="M435 161 Q417 89 359 40 Q300 -10 237 -10 Q152 -10 92 55 Q32 121 32 213 Q32 325 89 397 Q146 469 238 469 Q318 469 371 415 Q424 362 424 284 L112 284 Q112 189 154 125 Q196 60 260 60 Q313 60 360 90 Q407 122 417 164 L435 161 Z M320 308 Q320 360 288 398 Q257 435 212 435 Q174 435 145 397 Q116 359 112 308 L320 308 Z M187 605 Q187 586 173 572.5 Q159 559 139 559 Q119 559 105 572.5 Q91 586 91 605 Q91 624 105 637.5 Q119 651 139 651 Q159 651 173 637.5 Q187 624 187 605 Z M363 605 Q363 586 349 572.5 Q335 559 315 559 Q295 559 281 572.5 Q267 586 267 605 Q267 624 281 637.5 Q295 651 315 651 Q335 651 349 637.5 Q363 624 363 605 Z " />
<glyph glyph-name="igrave" unicode="&#xec;" horiz-adv-x="278" d="M272 0 L45 0 L45 18 Q89 18 104 39 Q117 56 117 107 L117 323 Q117 369 113 380 Q108 398 87 398 Q76 398 46 390 L39 408 L176 469 L200 469 L200 107 Q200 56 214 37 Q228 18 272 18 L272 0 Z M204 524 L176 524 L25 701 L151 701 L204 524 Z " />
<glyph glyph-name="iacute" unicode="&#xed;" horiz-adv-x="278" d="M258 0 L31 0 L31 18 Q75 18 90 39 Q103 56 103 107 L103 323 Q103 369 99 380 Q94 398 73 398 Q62 398 32 390 L25 408 L162 469 L186 469 L186 107 Q186 56 200 37 Q214 18 258 18 L258 0 Z M231 701 L80 524 L52 524 L105 701 L231 701 Z " />
<glyph glyph-name="icircumflex" unicode="&#xee;" horiz-adv-x="278" d="M291 0 L64 0 L64 18 Q108 18 123 39 Q136 56 136 107 L136 323 Q136 369 132 380 Q127 398 106 398 Q95 398 65 390 L58 408 L195 469 L219 469 L219 107 Q219 56 233 37 Q247 18 291 18 L291 0 Z M321 544 L304 544 L173 651 L42 544 L25 544 L125 711 L221 711 L321 544 Z " />
<glyph glyph-name="idieresis" unicode="&#xef;" horiz-adv-x="278" d="M283 0 L56 0 L56 18 Q100 18 115 39 Q128 56 128 107 L128 323 Q128 369 124 380 Q119 398 98 398 Q87 398 57 390 L50 408 L187 469 L211 469 L211 107 Q211 56 225 37 Q239 18 283 18 L283 0 Z M121 605 Q121 586 107 572.5 Q93 559 73 559 Q53 559 39 572.5 Q25 586 25 605 Q25 624 39 637.5 Q53 651 73 651 Q93 651 107 637.5 Q121 624 121 605 Z M297 605 Q297 586 283 572.5 Q269 559 249 559 Q229 559 215 572.5 Q201 586 201 605 Q201 624 215 637.5 Q229 651 249 651 Q269 651 283 637.5 Q297 624 297 605 Z " />
<glyph glyph-name="ntilde" unicode="&#xf1;" horiz-adv-x="518" d="M510 0 L283 0 L283 18 Q327 18 342 39 Q355 56 355 107 L355 315 Q355 407 288 407 Q232 407 171 341 L171 107 Q171 56 185 37 Q199 18 243 18 L243 0 L16 0 L16 18 Q60 18 75 39 Q88 56 88 107 L88 323 Q88 369 84 380 Q79 398 58 398 Q47 398 17 390 L10 408 L147 469 L171 469 L171 376 Q246 469 333 469 Q377 469 407 428 Q438 388 438 330 L438 107 Q438 56 452 37 Q466 18 510 18 L510 0 Z M396 635 Q396 599 363 580 Q335 564 297 564 Q251 564 203 584 Q195 588 187.5 592 Q180 596 172 600 Q152 609 139 609 Q98 609 95 573 L74 573 Q74 586 82 600 Q109 651 175 651 Q210 651 263 629 Q317 608 337 608 Q372 608 374 635 L396 635 Z " />
<glyph glyph-name="ograve" unicode="&#xf2;" horiz-adv-x="506" d="M474 243 Q474 136 411 63 Q348 -10 253 -10 Q158 -10 95 58 Q32 125 32 224 Q32 327 95 398 Q158 469 253 469 Q348 469 411 403 Q474 338 474 243 Z M381 196 Q381 435 233 435 Q190 435 157 385 Q125 335 125 266 Q125 163 163 95 Q204 24 269 24 Q317 24 349 74 Q381 126 381 196 Z M299 524 L271 524 L120 701 L246 701 L299 524 Z " />
<glyph glyph-name="oacute" unicode="&#xf3;" horiz-adv-x="506" d="M474 243 Q474 136 411 63 Q348 -10 253 -10 Q158 -10 95 58 Q32 125 32 224 Q32 327 95 398 Q158 469 253 469 Q348 469 411 403 Q474 338 474 243 Z M381 196 Q381 435 233 435 Q190 435 157 385 Q125 335 125 266 Q125 163 163 95 Q204 24 269 24 Q317 24 349 74 Q381 126 381 196 Z M351 701 L200 524 L172 524 L225 701 L351 701 Z " />
<glyph glyph-name="ocircumflex" unicode="&#xf4;" horiz-adv-x="506" d="M474 243 Q474 136 411 63 Q348 -10 253 -10 Q158 -10 95 58 Q32 125 32 224 Q32 327 95 398 Q158 469 253 469 Q348 469 411 403 Q474 338 474 243 Z M381 196 Q381 435 233 435 Q190 435 157 385 Q125 335 125 266 Q125 163 163 95 Q204 24 269 24 Q317 24 349 74 Q381 126 381 196 Z M396 544 L379 544 L248 651 L117 544 L100 544 L200 711 L296 711 L396 544 Z " />
<glyph glyph-name="otilde" unicode="&#xf5;" horiz-adv-x="506" d="M474 243 Q474 136 411 63 Q348 -10 253 -10 Q158 -10 95 58 Q32 125 32 224 Q32 327 95 398 Q158 469 253 469 Q348 469 411 403 Q474 338 474 243 Z M381 196 Q381 435 233 435 Q190 435 157 385 Q125 335 125 266 Q125 163 163 95 Q204 24 269 24 Q317 24 349 74 Q381 126 381 196 Z M406 635 Q406 599 373 580 Q345 564 307 564 Q261 564 213 584 Q205 588 197.5 592 Q190 596 182 600 Q162 609 149 609 Q108 609 105 573 L84 573 Q84 586 92 600 Q119 651 185 651 Q220 651 273 629 Q327 608 347 608 Q382 608 384 635 L406 635 Z " />
<glyph glyph-name="odieresis" unicode="&#xf6;" horiz-adv-x="506" d="M474 243 Q474 136 411 63 Q348 -10 253 -10 Q158 -10 95 58 Q32 125 32 224 Q32 327 95 398 Q158 469 253 469 Q348 469 411 403 Q474 338 474 243 Z M381 196 Q381 435 233 435 Q190 435 157 385 Q125 335 125 266 Q125 163 163 95 Q204 24 269 24 Q317 24 349 74 Q381 126 381 196 Z M207 605 Q207 586 193 572.5 Q179 559 159 559 Q139 559 125 572.5 Q111 586 111 605 Q111 624 125 637.5 Q139 651 159 651 Q179 651 193 637.5 Q207 624 207 605 Z M383 605 Q383 586 369 572.5 Q355 559 335 559 Q315 559 301 572.5 Q287 586 287 605 Q287 624 301 637.5 Q315 651 335 651 Q355 651 369 637.5 Q383 624 383 605 Z " />
<glyph glyph-name="divide" unicode="&#xf7;" horiz-adv-x="529" d="M353 533 Q353 501 329 479 Q305 457 270 457 Q235 457 211 479 Q187 501 187 533 Q187 565 211 587 Q235 609 270 609 Q305 609 329 587 Q353 565 353 533 Z M465 312 L73 312 L73 392 L465 392 L465 312 Z M353 161 Q353 145 346.5 131 Q340 117 328.5 106.5 Q317 96 302 90 Q287 84 270 84 Q253 84 238 90 Q223 96 211.5 106.5 Q200 117 193.5 131 Q187 145 187 161 Q187 193 211 215 Q235 237 270 237 Q305 237 329 215 Q353 193 353 161 Z " />
<glyph glyph-name="oslash" unicode="&#xf8;" horiz-adv-x="506" d="M474 243 Q474 136 411 63 Q348 -10 253 -10 Q215 -10 181 2 L161 -49 L141 -42 L161 10 Q101 38 66.5 95 Q32 152 32 224 Q32 327 95 398 Q158 469 253 469 Q293 469 332 455 L350 503 L370 495 L352 447 Q409 419 441.5 364.5 Q474 310 474 243 Z M381 196 Q381 330 331 391 L199 50 Q231 24 269 24 Q317 24 349 74 Q381 126 381 196 Z M314 408 Q281 435 233 435 Q190 435 157 385 Q125 335 125 266 Q125 134 182 67 L314 408 Z " />
<glyph glyph-name="ugrave" unicode="&#xf9;" horiz-adv-x="518" d="M518 53 L378 -10 L354 -10 L354 86 Q332 47 290 18 Q250 -10 212 -10 Q157 -10 118 32 Q80 75 80 133 L80 362 Q80 408 65 424.5 Q50 441 8 441 L8 459 L163 459 L163 133 Q163 98 190 74 Q217 50 255 50 Q280 50 309 71.5 Q338 93 354 124 L354 362 Q354 408 339 424.5 Q324 441 282 441 L282 459 L437 459 L437 136 Q437 91 446 75 Q455 59 479 59 Q496 59 512 67 L518 53 Z M290 524 L262 524 L111 701 L237 701 L290 524 Z " />
<glyph glyph-name="uacute" unicode="&#xfa;" horiz-adv-x="518" d="M518 53 L378 -10 L354 -10 L354 86 Q332 47 290 18 Q250 -10 212 -10 Q157 -10 118 32 Q80 75 80 133 L80 362 Q80 408 65 424.5 Q50 441 8 441 L8 459 L163 459 L163 133 Q163 98 190 74 Q217 50 255 50 Q280 50 309 71.5 Q338 93 354 124 L354 362 Q354 408 339 424.5 Q324 441 282 441 L282 459 L437 459 L437 136 Q437 91 446 75 Q455 59 479 59 Q496 59 512 67 L518 53 Z M320 701 L169 524 L141 524 L194 701 L320 701 Z " />
<glyph glyph-name="ucircumflex" unicode="&#xfb;" horiz-adv-x="518" d="M518 53 L378 -10 L354 -10 L354 86 Q332 47 290 18 Q250 -10 212 -10 Q157 -10 118 32 Q80 75 80 133 L80 362 Q80 408 65 424.5 Q50 441 8 441 L8 459 L163 459 L163 133 Q163 98 190 74 Q217 50 255 50 Q280 50 309 71.5 Q338 93 354 124 L354 362 Q354 408 339 424.5 Q324 441 282 441 L282 459 L437 459 L437 136 Q437 91 446 75 Q455 59 479 59 Q496 59 512 67 L518 53 Z M396 544 L379 544 L248 651 L117 544 L100 544 L200 711 L296 711 L396 544 Z " />
<glyph glyph-name="udieresis" unicode="&#xfc;" horiz-adv-x="518" d="M518 53 L378 -10 L354 -10 L354 86 Q332 47 290 18 Q250 -10 212 -10 Q157 -10 118 32 Q80 75 80 133 L80 362 Q80 408 65 424.5 Q50 441 8 441 L8 459 L163 459 L163 133 Q163 98 190 74 Q217 50 255 50 Q280 50 309 71.5 Q338 93 354 124 L354 362 Q354 408 339 424.5 Q324 441 282 441 L282 459 L437 459 L437 136 Q437 91 446 75 Q455 59 479 59 Q496 59 512 67 L518 53 Z M207 605 Q207 586 193 572.5 Q179 559 159 559 Q139 559 125 572.5 Q111 586 111 605 Q111 624 125 637.5 Q139 651 159 651 Q179 651 193 637.5 Q207 624 207 605 Z M383 605 Q383 586 369 572.5 Q355 559 335 559 Q315 559 301 572.5 Q287 586 287 605 Q287 624 301 637.5 Q315 651 335 651 Q355 651 369 637.5 Q383 624 383 605 Z " />
<glyph glyph-name="ydieresis" unicode="&#xff;" horiz-adv-x="514" d="M497 441 Q469 441 456 423 Q445 409 426 362 L241 -90 Q219 -144 179.5 -178 Q140 -212 100 -212 Q73 -212 53.5 -197.5 Q34 -183 33 -163 Q31 -112 84 -112 Q104 -112 119 -121 Q134 -130 150 -130 Q181 -130 216 -47 L245 23 L102 323 Q47 441 0 441 L0 459 L211 459 L211 441 Q162 441 162 405 Q162 392 197 317 L286 129 L381 363 Q395 397 395 413 Q395 441 348 441 L348 459 L497 459 L497 441 Z M221 605 Q221 586 207 572.5 Q193 559 173 559 Q153 559 139 572.5 Q125 586 125 605 Q125 624 139 637.5 Q153 651 173 651 Q193 651 207 637.5 Q221 624 221 605 Z M397 605 Q397 586 383 572.5 Q369 559 349 559 Q329 559 315 572.5 Q301 586 301 605 Q301 624 315 637.5 Q329 651 349 651 Q369 651 383 637.5 Q397 624 397 605 Z " />
<glyph glyph-name="dotlessi" unicode="&#x131;" horiz-adv-x="278" d="M258 0 L31 0 L31 18 Q75 18 90 39 Q103 56 103 107 L103 323 Q103 369 99 380 Q94 398 73 398 Q62 398 32 390 L25 408 L162 469 L186 469 L186 107 Q186 56 200 37 Q214 18 258 18 L258 0 Z " />
<glyph glyph-name="Lslash" unicode="&#x141;" horiz-adv-x="628" d="M610 185 L551 0 L20 0 L20 18 Q74 18 95 36.5 Q116 55 116 108 L116 280 L51 224 L32 246 L116 320 L116 572 Q116 625 95 643.5 Q74 662 20 662 L20 680 L316 680 L316 662 Q262 662 241 643.5 Q220 625 220 572 L220 410 L279 461 L299 439 L220 370 L220 85 Q220 64 231.5 49 Q243 34 259 34 L386 34 Q540 34 590 190 L610 185 Z " />
<glyph glyph-name="lslash" unicode="&#x142;" horiz-adv-x="342" d="M319 0 L23 0 L23 18 Q77 18 98 36.5 Q119 55 119 108 L119 282 L51 224 L32 246 L119 322 L119 572 Q119 625 98 643.5 Q77 662 23 662 L23 680 L319 680 L319 662 Q265 662 244 643.5 Q223 625 223 572 L223 413 L279 461 L299 439 L223 373 L223 108 Q223 55 244 36.5 Q265 18 319 18 L319 0 Z " />
<glyph glyph-name="OE" unicode="&#x152;" horiz-adv-x="1175" d="M1157 191 L1096 0 L666 0 L666 159 Q620 78 545 32 Q465 -16 373 -16 Q230 -16 131 89 Q32 195 32 344 Q32 491 131 593 Q230 696 373 696 Q465 696 545 649 Q621 604 666 526 L666 680 L1092 680 L1100 518 L1082 518 Q1068 584 1039 613 Q1006 646 942 646 L770 646 L770 388 L917 388 Q1019 388 1019 476 L1037 476 L1037 246 L1019 246 Q1019 354 919 354 L770 354 L770 76 Q770 59 782 46.5 Q794 34 810 34 L952 34 Q1084 34 1133 191 L1157 191 Z M592 344 Q592 487 535 573 Q476 662 373 662 Q269 662 210 573 Q154 487 154 344 Q154 199 210 111 Q268 18 373 18 Q476 18 535 111 Q592 199 592 344 Z " />
<glyph glyph-name="oe" unicode="&#x153;" horiz-adv-x="828" d="M801 161 Q783 89 725 40 Q666 -10 603 -10 Q493 -10 431 91 Q366 -10 253 -10 Q158 -10 95 58 Q32 125 32 224 Q32 327 95 398 Q158 469 253 469 Q372 469 437 371 Q496 469 604 469 Q684 469 737 415 Q790 362 790 284 L478 284 Q478 189 520 125 Q562 60 626 60 Q679 60 726 90 Q773 122 783 164 L801 161 Z M686 308 Q686 360 654 398 Q623 435 578 435 Q540 435 511 397 Q482 359 478 308 L686 308 Z M381 196 Q381 435 233 435 Q190 435 157 385 Q125 335 125 266 Q125 163 163 95 Q204 24 269 24 Q317 24 349 74 Q381 126 381 196 Z " />
<glyph glyph-name="Scaron" unicode="&#x160;" horiz-adv-x="560" d="M510 179 Q510 97 451 41 Q388 -16 283 -16 Q231 -16 177 4 Q130 22 115 22 Q89 22 83 -16 L65 -16 L65 214 L83 214 Q91 124 153 72 Q212 22 291 22 Q344 22 381 53 Q420 84 420 134 Q420 202 326 260 L152 360 Q58 426 58 513 Q58 591 114 644 Q170 696 260 696 Q294 696 345 680 Q348 679 356.5 675.5 Q365 672 379 666 Q400 658 410 658 Q424 658 435.5 670.5 Q447 683 447 696 L465 696 L465 459 L446 459 Q437 553 389 605.5 Q341 658 260 658 Q207 658 171 622 Q138 590 138 549 Q138 490 234 432 L414 328 Q510 260 510 179 Z M333 812 L285 727 L237 727 L189 812 L219 812 L261 757 L303 812 L333 812 Z " />
<glyph glyph-name="scaron" unicode="&#x161;" horiz-adv-x="402" d="M367 129 Q367 68 325 29 Q283 -10 207 -10 Q178 -10 139 1 Q101 13 93 13 Q78 13 72 0 L54 0 L54 159 L72 159 Q79 103 120 63 Q160 24 209 24 Q241 24 263 43.5 Q285 63 285 90 Q285 136 224 170 Q196 186 168 201 Q140 216 111 231 Q50 274 50 341 Q50 398 87 433.5 Q124 469 185 469 Q213 469 246 460 Q280 451 289 451 Q305 451 310 469 L328 469 L328 316 L310 316 Q307 368 273 403 Q238 439 193 439 Q157 439 134.5 421 Q112 403 112 378 Q112 332 178 298 Q209 283 239.5 268 Q270 253 301 237 Q367 193 367 129 Z M264 602 L216 517 L168 517 L120 602 L149 602 L192 547 L234 602 L264 602 Z " />
<glyph glyph-name="Zcaron" unicode="&#x17d;" horiz-adv-x="622" d="M383 812 L335 727 L287 727 L239 812 L269 812 L311 757 L353 812 L383 812 Z M598 178 L566 0 L10 0 L10 17 L448 641 L238 641 Q162 641 131 613 Q100 586 89 509 L71 509 L86 680 L597 680 L146 39 L421 39 Q446 39 470 49.5 Q494 60 515 78.5 Q536 97 552.5 122.5 Q569 148 580 178 L598 178 Z " />
<glyph glyph-name="zcaron" unicode="&#x17e;" horiz-adv-x="463" d="M304 602 L256 517 L208 517 L160 602 L189 602 L232 547 L274 602 L304 602 Z M442 441 L134 34 L329 34 Q368 34 389 49 Q416 68 422 146 L440 146 L430 0 L22 0 L22 24 L324 425 L159 425 Q119 425 102 408 Q79 385 78 332 L60 332 L60 459 L442 459 L442 441 Z " />
<glyph glyph-name="circumflex" unicode="&#x2c6;" horiz-adv-x="296" d="M296 739 L279 739 L148 846 L17 739 L0 739 L100 906 L196 906 L296 739 Z " />
<glyph glyph-name="caron" unicode="&#x2c7;" horiz-adv-x="328" d="M117 739 L17 906 L34 906 L165 799 L296 906 L313 906 L213 739 L117 739 Z " />
<glyph glyph-name="ring" unicode="&#x2da;" horiz-adv-x="196" d="M161 807 Q161 781 143 763 Q125 745 99 745 Q73 745 55 763 Q37 781 37 807 Q37 832 55 850 Q73 868 99 868 Q125 868 143 850 Q161 832 161 807 Z M132 807 Q132 820 122 830 Q112 840 99 840 Q66 840 66 807 Q66 774 99 774 Q112 774 122 783.5 Q132 793 132 807 Z " />
<glyph glyph-name="ogonek" unicode="&#x2db;" horiz-adv-x="346" d="M224 -150 L195 -150 Q119 -150 119 -93 Q119 -51 182 0 L210 0 Q163 -42 163 -75 Q163 -97 185 -101 L224 -101 L224 -150 Z " />
<glyph glyph-name="tilde" unicode="&#x2dc;" horiz-adv-x="404" d="M356 830 Q356 794 323 775 Q295 759 257 759 Q211 759 163 779 Q155 783 147.5 787 Q140 791 132 795 Q112 804 99 804 Q58 804 55 768 L34 768 Q34 781 42 795 Q69 846 135 846 Q170 846 223 824 Q277 803 297 803 Q332 803 334 830 L356 830 Z " />
<glyph glyph-name="hungarumlaut" unicode="&#x2dd;" horiz-adv-x="341" d="M190 896 L39 719 L11 719 L64 896 L190 896 Z M330 896 L179 719 L151 719 L204 896 L330 896 Z " />
<glyph glyph-name="sheva" unicode="&#x5b0;" d="" />
<glyph glyph-name="hataf_segol" unicode="&#x5b1;" d="" />
<glyph glyph-name="hataf_patah" unicode="&#x5b2;" d="" />
<glyph glyph-name="hataf_qamats" unicode="&#x5b3;" d="" />
<glyph glyph-name="hiriq" unicode="&#x5b4;" d="" />
<glyph glyph-name="tsere" unicode="&#x5b5;" d="" />
<glyph glyph-name="segol" unicode="&#x5b6;" d="" />
<glyph glyph-name="patah" unicode="&#x5b7;" d="" />
<glyph glyph-name="qamats" unicode="&#x5b8;" d="" />
<glyph glyph-name="holam" unicode="&#x5b9;" d="M-35 591 L-35 658 L35 658 L35 591 L-35 591 Z " />
<glyph glyph-name="qubuts" unicode="&#x5bb;" d="" />
<glyph glyph-name="dagesh" unicode="&#x5bc;" d="M-35 224 L-35 291 L35 291 L35 224 L-35 224 Z " />
<glyph glyph-name="meteg" unicode="&#x5bd;" d="M-14 -240 L-14 -92 L14 -92 L14 -240 L-14 -240 Z " />
<glyph glyph-name="maqaf" unicode="&#x5be;" horiz-adv-x="500" d="M50 476 L50 525 L450 525 L450 476 L50 476 Z " />
<glyph glyph-name="rafe" unicode="&#x5bf;" d="M-88 580 L-88 621 L89 621 L89 580 L-88 580 Z " />
<glyph glyph-name="pasek" unicode="&#x5c0;" horiz-adv-x="168" d="M60 -130 L60 617 L108 617 L108 -130 L60 -130 Z " />
<glyph glyph-name="shindot" unicode="&#x5c1;" d="M-35 594 L-35 661 L35 661 L35 594 L-35 594 Z " />
<glyph glyph-name="sindot" unicode="&#x5c2;" d="M-35 600 L-35 667 L35 667 L35 600 L-35 600 Z " />
<glyph glyph-name="sof_pasuk" unicode="&#x5c3;" horiz-adv-x="275" d="M57 320 L57 408 L138 408 L138 320 L57 320 Z M57 0 L57 88 L138 88 L138 0 L57 0 Z " />
<glyph glyph-name="lower_dot" unicode="&#x5c5;" d="M-50 -347 Q-50 -326 -35.5 -311.5 Q-21 -297 0 -297 Q21 -297 35.5 -311.5 Q50 -326 50 -347 Q50 -368 35.5 -382.5 Q21 -397 0 -397 Q-21 -397 -35.5 -382.5 Q-50 -368 -50 -347 Z " />
<glyph glyph-name="alef" unicode="&#x5d0;" horiz-adv-x="578" d="M443 0 Q417 43 390.5 85.5 Q364 128 337 170 Q316 203 294 235.5 Q272 268 248 299 Q241 299 233 296.5 Q225 294 220 291 Q202 282 189.5 266.5 Q177 251 169 232.5 Q161 214 157 194 Q153 174 151 155 Q146 116 142.5 77.5 Q139 39 135 0 L68 0 Q72 39 75.5 78.5 Q79 118 84 157 Q89 208 111.5 249.5 Q134 291 180 317 Q188 322 198 326 Q208 330 218 332 L59 525 L141 525 L326 293 Q338 295 351 300 Q384 315 400 343.5 Q416 372 422 407 Q427 436 431 466 Q435 496 440 525 L507 525 Q502 498 498.5 471 Q495 444 490 417 Q482 370 459.5 332.5 Q437 295 394 272 Q385 267 374 263 Q363 259 352 257 L519 0 L443 0 Z " />
<glyph glyph-name="bet" unicode="&#x5d1;" horiz-adv-x="507" d="M50 0 L50 54 L316 54 L316 471 L50 471 L50 525 L383 525 L383 54 L457 54 L457 0 L50 0 Z " />
<glyph glyph-name="gimel" unicode="&#x5d2;" horiz-adv-x="384" d="M245 0 L232 177 Q221 143 206.5 110 Q192 77 170 51 Q148 25 118.5 9 Q89 -7 48 -7 L48 61 L62 61 Q89 61 112.5 76.5 Q136 92 155 115.5 Q174 139 188 165.5 Q202 192 209 214 Q223 256 223 297 Q223 339 220 384 Q217 429 215 471 L77 471 L77 525 L277 525 L306 0 L245 0 Z " />
<glyph glyph-name="dalet" unicode="&#x5d3;" horiz-adv-x="497" d="M374 471 L374 0 L307 0 L307 471 L30 471 L30 525 L447 525 L447 471 L374 471 Z " />
<glyph glyph-name="he" unicode="&#x5d4;" horiz-adv-x="594" d="M437 0 L437 470 L82 470 L82 525 L504 525 L504 0 L437 0 Z M90 0 L90 306 L157 306 L157 0 L90 0 Z " />
<glyph glyph-name="vav" unicode="&#x5d5;" horiz-adv-x="303" d="M146 0 L146 470 L56 470 L56 525 L213 525 L213 0 L146 0 Z " />
<glyph glyph-name="zayin" unicode="&#x5d6;" horiz-adv-x="334" d="M262 470 Q251 470 240.5 464.5 Q230 459 222 452 Q192 426 180 385.5 Q168 345 168 307 Q168 230 178.5 153 Q189 76 202 0 L136 0 Q130 32 124 69 Q118 106 113 143.5 Q108 181 104.5 217.5 Q101 254 101 286 Q101 334 118 376 Q135 418 172 450 Q186 463 201 470 L50 470 L50 525 L286 525 L286 470 L262 470 Z " />
<glyph glyph-name="het" unicode="&#x5d7;" horiz-adv-x="599" d="M445 0 L445 349 Q445 410 421.5 440 Q398 470 334 470 L155 470 L155 0 L88 0 L88 525 L341 525 Q427 525 469.5 485 Q512 445 512 358 L512 0 L445 0 Z " />
<glyph glyph-name="tet" unicode="&#x5d8;" horiz-adv-x="594" d="M538 328 Q538 266 519.5 207 Q501 148 465.5 102 Q430 56 378 28 Q326 0 258 0 L116 0 L67 525 L134 525 L178 54 L247 54 Q305 54 347.5 77.5 Q390 101 417.5 139 Q445 177 458.5 226.5 Q472 276 472 328 Q472 355 464.5 383 Q457 411 442 433.5 Q427 456 404 470.5 Q381 485 350 485 Q342 485 329.5 484.5 Q317 484 303.5 482 Q290 480 278 476.5 Q266 473 259 467 L259 519 Q265 524 278 527.5 Q291 531 305.5 532.5 Q320 534 333 534.5 Q346 535 354 535 Q399 535 433 518.5 Q467 502 490.5 473.5 Q514 445 526 407.5 Q538 370 538 328 Z " />
<glyph glyph-name="yod" unicode="&#x5d9;" horiz-adv-x="294" d="M142 242 L142 470 L52 470 L52 525 L209 525 L209 242 L142 242 Z " />
<glyph glyph-name="final_kaf" unicode="&#x5da;" horiz-adv-x="473" d="M314 -160 L314 471 L30 471 L30 525 L381 525 L381 -160 L314 -160 Z " />
<glyph glyph-name="kaf" unicode="&#x5db;" horiz-adv-x="464" d="M408 263 Q408 210 397.5 162 Q387 114 362.5 78 Q338 42 297 21 Q256 0 196 0 L50 0 L50 54 L198 54 Q245 54 273 72.5 Q301 91 316 120.5 Q331 150 335.5 187 Q340 224 340 262 Q340 299 335.5 336.5 Q331 374 316 404 Q301 434 273 452.5 Q245 471 198 471 L50 471 L50 525 L196 525 Q256 525 296.5 504 Q337 483 361.5 447 Q386 411 397 363.5 Q408 316 408 263 Z " />
<glyph glyph-name="lamed" unicode="&#x5dc;" horiz-adv-x="486" d="M241 0 L169 0 L353 470 L52 470 L52 672 L119 672 L119 525 L444 525 L241 0 Z " />
<glyph glyph-name="final_mem" unicode="&#x5dd;" horiz-adv-x="611" d="M92 0 L92 525 L354 525 Q440 525 482.5 484.5 Q525 444 525 358 L525 0 L92 0 Z M458 349 Q458 410 434 440 Q410 470 346 470 L159 470 L159 54 L458 54 L458 349 Z " />
<glyph glyph-name="mem" unicode="&#x5de;" horiz-adv-x="634" d="M320 0 L320 54 L481 54 L481 349 Q481 409 449.5 439.5 Q418 470 358 470 L240 470 L158 0 L92 0 L174 470 L67 470 L67 525 L357 525 Q449 525 498.5 476 Q548 427 548 335 L548 0 L320 0 Z " />
<glyph glyph-name="final_nun" unicode="&#x5df;" horiz-adv-x="299" d="M141 -160 L141 470 L51 470 L51 525 L208 525 L208 -160 L141 -160 Z " />
<glyph glyph-name="nun" unicode="&#x5e0;" horiz-adv-x="325" d="M56 0 L56 54 L168 54 L168 470 L68 470 L68 525 L235 525 L235 0 L56 0 Z " />
<glyph glyph-name="samech" unicode="&#x5e1;" horiz-adv-x="604" d="M537 525 Q537 465 533.5 403 Q530 341 518 282.5 Q506 224 483.5 172.5 Q461 121 423.5 82.5 Q386 44 331 22 Q276 0 200 0 L103 0 L67 525 L537 525 Z M138 470 L166 54 L225 54 Q277 54 315.5 73.5 Q354 93 381.5 126 Q409 159 426 202 Q443 245 453 291 Q463 337 466.5 383.5 Q470 430 470 470 L138 470 Z " />
<glyph glyph-name="ayin" unicode="&#x5e2;" horiz-adv-x="548" d="M477 357 Q474 318 470.5 279 Q467 240 460 201 Q454 164 443.5 128 Q433 92 414 63.5 Q395 35 365.5 17.5 Q336 0 291 0 L78 0 L78 54 L193 54 L60 525 L129 525 L258 54 L284 54 Q320 54 341 71.5 Q362 89 374 115 Q386 141 391.5 172.5 Q397 204 400 231 Q404 260 406.5 289.5 Q409 319 411 348 L425 525 L490 525 L477 357 Z " />
<glyph glyph-name="final_pe" unicode="&#x5e3;" horiz-adv-x="561" d="M409 -160 L409 352 Q409 412 377.5 441.5 Q346 471 287 471 L143 471 L143 248 L76 248 L76 525 L287 525 Q476 525 476 337 L476 -160 L409 -160 Z " />
<glyph glyph-name="pe" unicode="&#x5e4;" horiz-adv-x="573" d="M85 0 L85 54 L421 54 L421 349 Q421 409 390 440 Q359 471 299 471 L152 471 L152 255 L85 255 L85 525 L297 525 Q389 525 438.5 476 Q488 427 488 335 L488 0 L85 0 Z " />
<glyph glyph-name="final_tsadi" unicode="&#x5e5;" horiz-adv-x="502" d="M411 362 Q395 305 360 267 Q325 229 261 229 L261 -160 L194 -160 L194 136 Q194 165 193.5 185 Q193 205 189.5 222 Q186 239 179 257.5 Q172 276 159 303 L49 525 L123 525 L244 274 Q267 274 283 281 Q299 288 310.5 300 Q322 312 329.5 328.5 Q337 345 343 365 L387 525 L455 525 L411 362 Z " />
<glyph glyph-name="tsadi" unicode="&#x5e6;" horiz-adv-x="528" d="M470 525 Q462 491 453 457 Q444 423 436 389 Q429 363 416.5 339 Q404 315 385.5 297 Q367 279 343.5 268 Q320 257 291 257 L445 0 L64 0 L64 54 L335 54 L60 525 L135 525 L273 294 Q294 294 310 302.5 Q326 311 337.5 324.5 Q349 338 356.5 355.5 Q364 373 369 391 Q377 425 385.5 458 Q394 491 402 525 L470 525 L470 525 Z " />
<glyph glyph-name="qof" unicode="&#x5e7;" horiz-adv-x="624" d="M379 6 L309 6 L493 470 L86 470 L86 525 L582 525 L379 6 Z M101 -160 L101 325 L168 325 L168 -160 L101 -160 Z " />
<glyph glyph-name="resh" unicode="&#x5e8;" horiz-adv-x="475" d="M323 0 L323 349 Q323 409 291.5 440 Q260 471 200 471 L30 471 L30 525 L199 525 Q292 525 341 476 Q390 427 390 335 L390 0 L323 0 Z " />
<glyph glyph-name="shin" unicode="&#x5e9;" horiz-adv-x="694" d="M610 342 Q604 284 587.5 223 Q571 162 539.5 112.5 Q508 63 460 31.5 Q412 0 342 0 L130 0 L68 525 L134 525 L165 262 L213 262 Q235 262 250.5 272.5 Q266 283 276 299.5 Q286 316 291.5 336 Q297 356 299 374 Q304 412 307.5 449.5 Q311 487 315 525 L380 525 Q375 484 371.5 443.5 Q368 403 363 362 Q360 332 349 305.5 Q338 279 320 259.5 Q302 240 277 228.5 Q252 217 220 217 L170 217 L189 54 L319 54 Q379 54 420 79 Q461 104 486.5 144 Q512 184 525.5 234 Q539 284 544 335 L564 525 L629 525 L610 342 Z " />
<glyph glyph-name="tav" unicode="&#x5ea;" horiz-adv-x="675" d="M517 0 L517 470 L240 470 L240 107 Q240 59 211 29.5 Q182 0 134 0 L56 0 L56 54 L123 54 Q145 54 159 70 Q173 86 173 107 L173 470 L76 470 L76 525 L584 525 L584 0 L517 0 Z " />
<glyph glyph-name="vav_vav" unicode="&#x5f0;" horiz-adv-x="505" d="M146 0 L146 470 L56 470 L56 525 L213 525 L213 0 L146 0 Z M348 0 L348 470 L258 470 L258 525 L415 525 L415 0 L348 0 Z " />
<glyph glyph-name="vav_yod" unicode="&#x5f1;" horiz-adv-x="506" d="M349 0 L349 470 L259 470 L259 525 L416 525 L416 0 L349 0 Z M146 242 L146 470 L56 470 L56 525 L213 525 L213 242 L146 242 Z " />
<glyph glyph-name="yod_yod" unicode="&#x5f2;" horiz-adv-x="506" d="M146 242 L146 470 L56 470 L56 525 L213 525 L213 242 L146 242 Z M349 242 L349 470 L259 470 L259 525 L416 525 L416 242 L349 242 Z " />
<glyph glyph-name="uni05F3" unicode="&#x5f3;" horiz-adv-x="283" d="M151 501 Q151 471 54 281 L40 281 Q76 384 76 441 Q76 467 44 506 L114 577 Q149 533 151 501 Z " />
<glyph glyph-name="uni05F4" unicode="&#x5f4;" horiz-adv-x="425" d="M338 500 Q338 468 241 280 L227 280 Q245 333 254.5 373 Q264 413 264 440 Q264 461 232 505 L301 576 Q338 532 338 500 Z M166 499 Q166 469 68 279 L55 279 Q91 385 91 439 Q91 461 60 504 L129 575 Q166 529 166 499 Z " />
<glyph glyph-name="afii61664" unicode="&#x200c;" horiz-adv-x="21" d="M22 0 L0 0 L0 795 L22 795 L22 0 Z " />
<glyph glyph-name="afii301" unicode="&#x200d;" horiz-adv-x="21" d="M78 730 L63 716 L22 757 L22 0 L0 0 L0 757 L-40 716 L-56 730 L-2 783 L-56 835 L-40 850 L11 797 L63 850 L78 835 L26 783 L78 730 Z " />
<glyph glyph-name="afii299" unicode="&#x200e;" horiz-adv-x="21" d="M148 783 L81 716 L66 731 L108 773 L22 773 L22 0 L0 0 L0 795 L106 795 L66 835 L81 850 L148 783 Z " />
<glyph glyph-name="afii300" unicode="&#x200f;" horiz-adv-x="21" d="M23 0 L1 0 L1 773 L-84 773 L-42 731 L-58 716 L-125 783 L-58 850 L-42 835 L-83 795 L23 795 L23 0 Z " />
<glyph glyph-name="endash" unicode="&#x2013;" horiz-adv-x="500" d="M50 234 L50 283 L450 283 L450 234 L50 234 Z " />
<glyph glyph-name="emdash" unicode="&#x2014;" horiz-adv-x="589" d="M50 234 L50 283 L539 283 L539 234 L50 234 Z " />
<glyph glyph-name="quoteleft" unicode="&#x2018;" horiz-adv-x="217" d="M141 381 L45 626 L105 626 L173 381 L141 381 Z " />
<glyph glyph-name="quoteright" unicode="&#x2019;" horiz-adv-x="217" d="M82 381 L50 381 L118 626 L178 626 L82 381 Z " />
<glyph glyph-name="quotesinglbase" unicode="&#x201a;" horiz-adv-x="283" d="M138 41 Q138 11 41 -179 L27 -179 Q63 -76 63 -19 Q63 7 31 46 L101 117 Q136 73 138 41 Z " />
<glyph glyph-name="quotedblleft" unicode="&#x201c;" horiz-adv-x="359" d="M141 381 L45 626 L105 626 L173 381 L141 381 Z M292 381 L196 626 L256 626 L324 381 L292 381 Z " />
<glyph glyph-name="quotedblright" unicode="&#x201d;" horiz-adv-x="342" d="M82 381 L50 381 L118 626 L178 626 L82 381 Z M235 381 L203 381 L271 626 L331 626 L235 381 Z " />
<glyph glyph-name="quotedblbase" unicode="&#x201e;" horiz-adv-x="380" d="M338 120 Q338 88 241 -100 L227 -100 Q245 -47 254.5 -7 Q264 33 264 60 Q264 81 232 125 L301 196 Q338 152 338 120 Z M166 119 Q166 89 68 -101 L55 -101 Q91 5 91 59 Q91 81 60 124 L129 195 Q166 149 166 119 Z " />
<glyph glyph-name="dagger" unicode="&#x2020;" horiz-adv-x="486" d="M456 449 Q456 427 439 413.5 Q422 400 400 400 Q377 400 327.5 420 Q278 440 251 440 Q251 360 303 320 Q251 127 251 -212 L231 -212 Q231 127 179 320 Q231 360 231 440 Q205 440 155.5 420 Q106 400 82 400 Q60 400 43 413.5 Q26 427 26 449 Q26 471 43 484 Q60 497 82 497 Q106 497 155.5 477 Q205 457 231 457 Q231 487 207 542.5 Q183 598 183 629 Q183 655 199 675.5 Q215 696 241 696 Q267 696 283 675.5 Q299 655 299 629 Q299 598 275 542.5 Q251 487 251 457 Q278 457 327.5 477 Q377 497 400 497 Q422 497 439 484 Q456 471 456 449 Z " />
<glyph glyph-name="daggerdbl" unicode="&#x2021;" horiz-adv-x="432" d="M412 1 Q412 -43 362 -43 Q339 -43 296 -25.5 Q253 -8 227 -8 Q226 -33 248 -85 Q270 -137 270 -156 Q270 -179 254.5 -195.5 Q239 -212 216 -212 Q193 -212 177.5 -195.5 Q162 -179 162 -156 Q162 -137 184 -85 Q206 -33 205 -8 Q179 -8 136 -25.5 Q93 -43 70 -43 Q20 -43 20 1 Q20 46 70 46 Q93 46 136 28 Q179 10 205 10 Q200 67 155 96 Q205 154 205 246 Q205 330 155 388 Q200 417 205 474 Q179 474 136 456 Q93 438 70 438 Q20 438 20 483 Q20 527 70 527 Q93 527 136 509.5 Q179 492 205 492 Q204 517 183 568.5 Q162 620 162 640 Q162 663 177.5 679.5 Q193 696 216 696 Q239 696 254.5 679.5 Q270 663 270 640 Q270 621 248 569 Q226 517 227 492 Q253 492 296 509.5 Q339 527 362 527 Q412 527 412 483 Q412 438 362 438 Q339 438 296 456 Q253 474 227 474 Q232 417 277 388 Q227 330 227 246 Q227 154 277 96 Q232 67 227 10 Q253 10 296 28 Q339 46 362 46 Q412 46 412 1 Z " />
<glyph glyph-name="bullet" unicode="&#x2022;" horiz-adv-x="449" d="M430 297 Q430 213 370 152 Q310 92 226 92 Q141 92 80 152 Q20 212 20 297 Q20 382 80 441 Q142 500 226 500 Q310 500 370 440 Q430 381 430 297 Z " />
<glyph glyph-name="ellipsis" unicode="&#x2026;" horiz-adv-x="565" d="M547 52 Q529 36 512.5 18 Q496 0 480 -17 Q463 0 446.5 17.5 Q430 35 413 52 Q431 69 448 86 Q465 103 482 120 Q513 85 547 52 Z M357 52 Q339 36 322.5 18 Q306 0 290 -17 Q273 0 256.5 17.5 Q240 35 223 52 Q241 69 258 86 Q275 103 292 120 Q323 85 357 52 Z M167 52 Q149 36 132.5 18 Q116 0 100 -17 Q83 0 66.5 17.5 Q50 35 33 52 Q51 69 68 86 Q85 103 102 120 Q133 85 167 52 Z " />
<glyph glyph-name="perthousand" unicode="&#x2030;" horiz-adv-x="1179" d="M1148 165 Q1148 92 1111 40 Q1071 -16 1004 -16 Q938 -16 898 40 Q861 92 861 165 Q861 239 898 294 Q939 353 1005 353 Q1072 353 1112 294 Q1148 240 1148 165 Z M818 165 Q818 92 781 40 Q741 -16 674 -16 Q608 -16 568 40 Q531 92 531 165 Q531 239 568 294 Q609 353 675 353 Q742 353 782 294 Q818 240 818 165 Z M691 696 L203 -16 L158 -16 L646 696 L691 696 Z M317 508 Q317 435 280 383 Q240 327 173 327 Q107 327 67 383 Q30 435 30 508 Q30 582 67 637 Q108 696 174 696 Q241 696 281 637 Q317 583 317 508 Z M1069 165 Q1069 220 1058 262 Q1042 327 1006 327 Q968 327 951 263 Q940 221 940 165 Q940 10 1004 10 Q1069 10 1069 165 Z M739 165 Q739 220 728 262 Q712 327 676 327 Q638 327 621 263 Q610 221 610 165 Q610 10 674 10 Q739 10 739 165 Z M238 508 Q238 563 227 605 Q211 670 175 670 Q137 670 120 606 Q109 564 109 508 Q109 353 173 353 Q238 353 238 508 Z " />
<glyph glyph-name="guilsinglleft" unicode="&#x2039;" horiz-adv-x="330" d="M280 0 L249 0 L50 230 L249 459 L280 459 L152 230 L280 0 Z " />
<glyph glyph-name="guilsinglright" unicode="&#x203a;" horiz-adv-x="330" d="M280 230 L81 0 L50 0 L178 230 L50 459 L81 459 L280 230 Z " />
<glyph glyph-name="peseta" unicode="&#x20a7;" horiz-adv-x="968" d="M21 662 L272 662 Q347 662 403 637.5 Q459 613 491 565 Q513 533 517 481 Q539 506 552 527 Q563 545 579 588 L595 588 L595 446 L679 446 L679 418 L595 418 L595 118 Q595 81 599 72 Q603 61 611 55 Q619 49 628 49 Q635 49 644.5 54 Q654 59 676 81 L676 149 L694 149 Q703 102 718 75 Q733 48 761 32 Q789 16 813 16 Q845 16 866.5 36.5 Q888 57 888 86 Q888 111 868 137 Q858 149 836.5 164 Q815 179 783 198 Q751 217 729.5 233 Q708 249 697 263 Q675 291 675 330 Q675 384 711 420 Q747 457 800 457 Q824 457 866 445 Q883 440 887 440 Q891 440 903 445 L924 445 L924 311 L907 311 Q896 375 866.5 402.5 Q837 430 797 430 Q769 430 749.5 411 Q730 392 730 367 Q730 341 753 318 Q770 301 839 262 Q907 223 932 191 Q955 159 955 121 Q955 64 915 25 Q874 -13 813 -13 Q790 -13 750 -1 Q726 6 714 6 Q705 6 698 0 L676 0 L676 42 Q648 10 628.5 -1.5 Q609 -13 589 -13 Q558 -13 537.5 11.5 Q517 36 517 93 L517 117 L517 418 L507 418 Q481 361 442 333 Q390 296 317 296 Q298 296 271.5 301.5 Q245 307 212 317 L212 101 Q212 56 232.5 36 Q253 16 299 17 L299 0 L21 0 L21 17 Q47 19 63.5 23 Q80 27 89.5 36.5 Q99 46 102.5 63 Q106 80 108 108 L108 566 Q108 605 89 624.5 Q70 644 21 645 L21 662 Z M212 349 Q248 331 278 331 Q302 331 323.5 341.5 Q345 352 361.5 370.5 Q378 389 387.5 416 Q397 443 397 476 Q397 545 359.5 584.5 Q322 624 262 624 Q240 624 212 615 L212 349 Z " />
<glyph glyph-name="sheqel" unicode="&#x20aa;" horiz-adv-x="875" d="M735 123 Q735 66 702 33 Q669 0 612 0 L288 0 L288 351 L337 351 L337 40 L587 40 Q645 40 665.5 67 Q686 94 686 149 L686 525 L735 525 L735 123 Z M487 173 L487 381 Q487 435 466 460.5 Q445 486 387 486 L138 486 L138 0 L89 0 L89 525 L406 525 Q432 525 455.5 519 Q479 513 497 499.5 Q515 486 525.5 465.5 Q536 445 536 416 L536 173 L487 173 Z " />
<glyph glyph-name="Euro" unicode="&#x20ac;" horiz-adv-x="615" d="M589 52 Q551 20 504 2 Q457 -16 403 -16 Q354 -16 310 -0.5 Q266 15 230 42.5 Q194 70 167.5 108 Q141 146 127 191 L29 191 L63 251 L117 251 Q116 259 116 263 Q116 267 116 271 Q116 276 116 281 Q116 286 117 294 L29 294 L63 354 L128 354 Q142 399 169 436.5 Q196 474 232 501 Q268 528 311.5 543 Q355 558 403 558 Q457 558 504 540 Q551 522 589 490 L558 437 Q527 466 487.5 482 Q448 498 403 498 Q333 498 277 459 Q221 420 192 354 L512 354 L476 294 L177 294 Q176 286 176 281 Q176 276 176 271 Q176 267 176 263 Q176 259 177 251 L452 251 L417 191 L190 191 Q218 124 274.5 84 Q331 44 403 44 Q448 44 487.5 60 Q527 76 558 105 Q565 93 567.5 88 Q570 83 572 79 Q574 75 577.5 70.5 Q581 66 589 52 Z " />
<glyph glyph-name="trademark" unicode="&#x2122;" horiz-adv-x="1034" d="M1006 275 L803 275 L803 293 Q840 293 853 315 Q863 331 863 371 L863 605 L861 605 L708 275 L691 275 L538 600 L536 600 L536 371 Q536 330 548 313 Q562 293 596 293 L596 275 L445 275 L445 293 Q480 293 493 313 Q505 330 505 371 L505 585 Q505 626 492.5 644 Q480 662 445 662 L445 680 L591 680 L729 392 L862 680 L1006 680 L1006 662 Q968 662 955 640 Q946 625 946 585 L946 371 Q946 330 958 313 Q971 293 1006 293 L1006 275 Z M410 578 L394 578 Q384 622 354 637 Q332 648 280 648 L258 648 L258 371 Q258 331 267 315 Q280 293 319 293 L319 275 L118 275 L118 293 Q155 293 167 316 Q175 332 175 371 L175 648 L157 648 Q103 648 82 638 Q51 623 43 578 L24 578 L36 680 L401 680 L410 578 Z " />
<glyph glyph-name="minus" unicode="&#x2212;" horiz-adv-x="440" d="M50 234 L50 283 L450 283 L450 234 L50 234 Z " />
<glyph glyph-name="final_kaf_sheva" unicode="&#xe802;" horiz-adv-x="473" d="M314 -160 L314 471 L30 471 L30 525 L381 525 L381 -160 L314 -160 Z M139 175 L139 242 L209 242 L209 175 L139 175 Z M138 71 L138 138 L208 138 L208 71 L138 71 Z " />
<glyph glyph-name="final_kaf_qamats" unicode="&#xe803;" horiz-adv-x="473" d="M314 -160 L314 471 L30 471 L30 525 L381 525 L381 -160 L314 -160 Z " />
<glyph glyph-name="lamed_holam" unicode="&#xe804;" horiz-adv-x="486" d="M241 0 L169 0 L353 470 L52 470 L52 672 L119 672 L119 525 L444 525 L241 0 Z M-61 571 L-61 638 L9 638 L9 571 L-61 571 Z " />
<glyph glyph-name="lamed_holam_dagesh" unicode="&#xe805;" horiz-adv-x="486" d="M241 0 L169 0 L353 470 L52 470 L52 672 L119 672 L119 525 L444 525 L241 0 Z M139 278 L139 345 L209 345 L209 278 L139 278 Z M-54 568 L-54 635 L16 635 L16 568 L-54 568 Z " />
<glyph glyph-name="prop_0" unicode="&#xe890;" horiz-adv-x="500" d="M443 262 Q443 212 435 162.5 Q427 113 406 73.5 Q385 34 347.5 9.5 Q310 -15 250 -15 Q191 -15 153.5 10 Q116 35 95 75 Q74 115 66 164.5 Q58 214 58 263 Q58 312 66 361.5 Q74 411 95.5 451 Q117 491 154.5 515.5 Q192 540 251 540 Q310 540 347.5 515 Q385 490 406 450 Q427 410 435 360.5 Q443 311 443 262 Z M382 263 Q382 297 378.5 337 Q375 377 361.5 411.5 Q348 446 322 469 Q296 492 251 492 Q206 492 179.5 469 Q153 446 139.5 411.5 Q126 377 122.5 337 Q119 297 119 263 Q119 228 122.5 188 Q126 148 139.5 114 Q153 80 179.5 57 Q206 34 251 34 Q296 34 322.5 57 Q349 80 362 114.5 Q375 149 378.5 189 Q382 229 382 263 Z " />
<glyph glyph-name="prop_1" unicode="&#xe891;" horiz-adv-x="500" d="M206 0 L206 475 L59 351 L59 408 L211 530 L269 530 L269 0 L206 0 Z " />
<glyph glyph-name="prop_2" unicode="&#xe892;" horiz-adv-x="500" d="M59 0 L59 55 L291 260 Q314 280 331.5 312.5 Q349 345 349 376 Q349 411 338.5 433 Q328 455 309 468 Q290 481 264.5 485.5 Q239 490 209 490 Q193 490 173.5 487.5 Q154 485 135 479 Q116 473 99 464 Q82 455 70 442 L70 501 Q81 512 99 519.5 Q117 527 136.5 531.5 Q156 536 175 538 Q194 540 209 540 Q251 540 288 532.5 Q325 525 352 506 Q379 487 395 455.5 Q411 424 411 376 Q411 333 387 293 Q363 253 331 227 L119 49 L425 49 L425 0 L59 0 Z " />
<glyph glyph-name="prop_3" unicode="&#xe893;" horiz-adv-x="500" d="M418 141 Q418 99 399.5 69 Q381 39 351 20.5 Q321 2 284 -6.5 Q247 -15 211 -15 Q200 -15 177.5 -12.5 Q155 -10 131.5 -5.5 Q108 -1 87.5 6 Q67 13 59 21 L59 76 Q73 67 92.5 59 Q112 51 132.5 45 Q153 39 173.5 35.5 Q194 32 211 32 Q236 32 262 38.5 Q288 45 309 58.5 Q330 72 343.5 93.5 Q357 115 357 144 Q357 178 340 200.5 Q323 223 297.5 235.5 Q272 248 241.5 253 Q211 258 183 258 L150 258 L150 306 L183 306 Q205 306 232 310 Q259 314 282 325 Q305 336 321 354 Q337 372 337 401 Q337 425 325 442 Q313 459 294 470 Q275 481 253 486 Q231 491 211 491 Q196 491 176 489 Q156 487 136 482.5 Q116 478 97.5 471 Q79 464 67 453 L67 504 Q79 514 97.5 521 Q116 528 136.5 532 Q157 536 176.5 538 Q196 540 211 540 Q244 540 277.5 533 Q311 526 337.5 509.5 Q364 493 381 467 Q398 441 398 402 Q398 379 388 360 Q378 341 362.5 326 Q347 311 327 300.5 Q307 290 287 283 Q314 278 338 266 Q362 254 379.5 236 Q397 218 407.5 194 Q418 170 418 141 Z " />
<glyph glyph-name="prop_4" unicode="&#xe894;" horiz-adv-x="500" d="M389 125 L389 0 L327 0 L327 125 L58 125 L58 197 L300 530 L389 530 L389 179 L464 179 L464 125 L389 125 Z M327 490 L103 179 L327 179 L327 490 Z " />
<glyph glyph-name="prop_5" unicode="&#xe895;" horiz-adv-x="500" d="M427 160 Q427 111 410 77.5 Q393 44 363.5 23.5 Q334 3 295 -6 Q256 -15 213 -15 Q196 -15 175.5 -13.5 Q155 -12 134 -8 Q113 -4 93.5 2 Q74 8 59 17 L59 74 Q91 55 134 44.5 Q177 34 214 34 Q245 34 273 41 Q301 48 321.5 63 Q342 78 354 102.5 Q366 127 366 162 Q366 192 352 214 Q338 236 315.5 250 Q293 264 266 270.5 Q239 277 213 277 Q179 277 144 272.5 Q109 268 77 259 L77 525 L405 525 L405 476 L135 476 L135 312 Q159 317 184 319.5 Q209 322 234 322 Q274 322 309 313.5 Q344 305 370 285.5 Q396 266 411.5 235 Q427 204 427 160 Z " />
<glyph glyph-name="prop_6" unicode="&#xe896;" horiz-adv-x="500" d="M449 166 Q449 124 435 90.5 Q421 57 396 33.5 Q371 10 336 -2.5 Q301 -15 260 -15 Q200 -15 161 9 Q122 33 99 71.5 Q76 110 67 159.5 Q58 209 58 260 Q58 297 64.5 334.5 Q71 372 85.5 406 Q100 440 123.5 468.5 Q147 497 182 516 Q203 527 226.5 533.5 Q250 540 274 540 Q285 540 305 539 Q325 538 346.5 535 Q368 532 387 526.5 Q406 521 415 512 L415 459 Q403 468 385 474.5 Q367 481 347.5 485 Q328 489 309 491 Q290 493 275 493 Q230 493 199.5 467.5 Q169 442 150.5 404.5 Q132 367 124.5 324 Q117 281 117 245 Q125 266 140 284 Q155 302 174 315.5 Q193 329 215 337 Q237 345 260 345 Q349 345 399 301 Q449 257 449 166 Z M388 167 Q388 226 354 261.5 Q320 297 260 297 Q233 297 209.5 287 Q186 277 169 260 Q152 243 142.5 219.5 Q133 196 133 169 Q133 141 142 116.5 Q151 92 168 73.5 Q185 55 208 44.5 Q231 34 260 34 Q322 34 355 70.5 Q388 107 388 167 Z " />
<glyph glyph-name="prop_7" unicode="&#xe897;" horiz-adv-x="500" d="M455 462 Q438 434 420.5 406.5 Q403 379 386 351 Q335 268 296.5 181.5 Q258 95 236 0 L164 0 Q184 84 219.5 160.5 Q255 237 300 310 Q325 352 352 391 Q379 430 404 471 L58 471 L58 525 L455 525 L455 462 L455 462 Z " />
<glyph glyph-name="prop_8" unicode="&#xe898;" horiz-adv-x="500" d="M441 143 Q441 100 425.5 70 Q410 40 383.5 21 Q357 2 322.5 -6.5 Q288 -15 250 -15 Q212 -15 177 -6.5 Q142 2 116 21 Q90 40 74.5 70 Q59 100 59 143 Q59 197 87.5 231.5 Q116 266 167 279 Q125 290 99.5 321 Q74 352 74 396 Q74 433 89 460 Q104 487 129 505 Q154 523 185.5 531.5 Q217 540 250 540 Q282 540 313.5 531.5 Q345 523 370 505.5 Q395 488 410.5 461 Q426 434 426 398 Q426 354 403 323 Q380 292 338 279 Q390 266 415.5 231 Q441 196 441 143 Z M366 399 Q366 423 356 441 Q346 459 329.5 471 Q313 483 292 489 Q271 495 250 495 Q229 495 208 489 Q187 483 170.5 471 Q154 459 144 441 Q134 423 134 399 Q134 377 144.5 359 Q155 341 172 328.5 Q189 316 209.5 309 Q230 302 250 302 Q270 302 290.5 309 Q311 316 328 328.5 Q345 341 355.5 359 Q366 377 366 399 Z M380 145 Q380 173 369 193.5 Q358 214 340 228 Q322 242 298.5 249 Q275 256 250 256 Q225 256 201.5 249 Q178 242 160 228 Q142 214 131 193.5 Q120 173 120 145 Q120 117 130.5 96 Q141 75 159 60.5 Q177 46 200.5 39 Q224 32 250 32 Q276 32 299.5 39 Q323 46 341 60.5 Q359 75 369.5 96 Q380 117 380 145 Z " />
<glyph glyph-name="prop_9" unicode="&#xe899;" horiz-adv-x="500" d="M445 289 Q445 231 433.5 176.5 Q422 122 395 79.5 Q368 37 323.5 11 Q279 -15 213 -15 Q201 -15 184.5 -14 Q168 -13 150.5 -10 Q133 -7 117.5 -2.5 Q102 2 91 9 L91 67 Q101 58 117 52.5 Q133 47 150 43 Q167 39 183.5 37.5 Q200 36 213 36 Q269 36 303 58.5 Q337 81 355.5 117 Q374 153 380 198 Q386 243 386 288 Q380 268 364.5 251 Q349 234 328.5 222 Q308 210 285.5 203 Q263 196 243 196 Q202 196 168 206 Q134 216 109.5 236.5 Q85 257 71.5 289 Q58 321 58 365 Q58 405 72.5 437.5 Q87 470 112.5 493 Q138 516 172 528 Q206 540 245 540 Q300 540 338.5 519.5 Q377 499 400.5 464 Q424 429 434.5 383.5 Q445 338 445 289 Z M372 365 Q372 422 337 456.5 Q302 491 245 491 Q186 491 152.5 457.5 Q119 424 119 365 Q119 305 152 273.5 Q185 242 245 242 Q272 242 295 251 Q318 260 335.5 276 Q353 292 362.5 315 Q372 338 372 365 Z " />
<glyph glyph-name="fi" unicode="&#xfb01;" horiz-adv-x="538" d="M518 0 L34 0 L34 18 Q78 18 93 39 Q106 56 106 107 L106 425 L18 425 L18 459 L106 459 L106 528 Q106 564 118.5 595 Q131 626 154.5 648.5 Q178 671 212.5 683.5 Q247 696 292 696 Q361 696 402 677 Q449 654 449 615 Q449 576 408 576 Q372 576 359 598 L341 640 Q326 662 288 662 Q245 662 217 637 Q189 612 189 576 L189 459 L446 459 L446 107 Q446 56 460 37 Q474 18 518 18 L518 0 Z M363 353 Q363 398 359 409 Q355 425 333 425 L189 425 L189 107 Q189 56 203 37 Q217 18 261 18 L291 18 Q335 18 350 39 Q363 56 363 107 L363 353 Z " />
<glyph glyph-name="fl" unicode="&#xfb02;" horiz-adv-x="587" d="M563 0 L336 0 L336 18 Q380 18 395 39 Q408 56 408 107 L408 550 Q408 569 408 581.5 Q408 594 407 599 Q398 576 368 576 Q337 576 315 619 Q293 662 258 662 Q245 662 232.5 655 Q220 648 210.5 636 Q201 624 195 608.5 Q189 593 189 576 L189 459 L301 459 L301 425 L189 425 L189 107 Q189 56 203 37 Q217 18 261 18 L261 0 L34 0 L34 18 Q78 18 93 39 Q106 56 106 107 L106 425 L18 425 L18 459 L106 459 L106 528 Q106 597 151 647 Q197 696 262 696 Q352 696 389 661 L467 696 L491 696 L491 107 Q491 56 505 37 Q519 18 563 18 L563 0 Z " />
<glyph glyph-name="yod_yod_patah" unicode="&#xfb1f;" horiz-adv-x="505" d="M146 242 L146 470 L56 470 L56 525 L213 525 L213 242 L146 242 Z M348 242 L348 470 L258 470 L258 525 L415 525 L415 242 L348 242 Z " />
<glyph glyph-name="alt_ayin" unicode="&#xfb20;" horiz-adv-x="548" d="M477 357 Q474 318 470.5 279 Q467 240 460 201 Q454 164 443.5 128 Q433 92 414 63.5 Q395 35 365.5 17.5 Q336 0 291 0 L78 0 L78 54 L193 54 L60 525 L129 525 L258 54 L284 54 Q320 54 341 71.5 Q362 89 374 115 Q386 141 391.5 172.5 Q397 204 400 231 Q404 260 406.5 289.5 Q409 319 411 348 L425 525 L490 525 L477 357 Z " />
<glyph glyph-name="wide_alef" unicode="&#xfb21;" horiz-adv-x="578" d="M443 0 Q417 43 390.5 85.5 Q364 128 337 170 Q316 203 294 235.5 Q272 268 248 299 Q241 299 233 296.5 Q225 294 220 291 Q202 282 189.5 266.5 Q177 251 169 232.5 Q161 214 157 194 Q153 174 151 155 Q146 116 142.5 77.5 Q139 39 135 0 L68 0 Q72 39 75.5 78.5 Q79 118 84 157 Q89 208 111.5 249.5 Q134 291 180 317 Q188 322 198 326 Q208 330 218 332 L59 525 L141 525 L326 293 Q338 295 351 300 Q384 315 400 343.5 Q416 372 422 407 Q427 436 431 466 Q435 496 440 525 L507 525 Q502 498 498.5 471 Q495 444 490 417 Q482 370 459.5 332.5 Q437 295 394 272 Q385 267 374 263 Q363 259 352 257 L519 0 L443 0 Z " />
<glyph glyph-name="wide_dalet" unicode="&#xfb22;" horiz-adv-x="746" d="M623 471 L623 0 L556 0 L556 471 L30 471 L30 525 L696 525 L696 471 L623 471 Z " />
<glyph glyph-name="wide_he" unicode="&#xfb23;" horiz-adv-x="854" d="M697 0 L697 470 L82 470 L82 525 L764 525 L764 0 L697 0 Z M90 0 L90 306 L157 306 L157 0 L90 0 Z " />
<glyph glyph-name="wide_kaf" unicode="&#xfb24;" horiz-adv-x="707" d="M651 263 Q651 210 640.5 162 Q630 114 605.5 78 Q581 42 540 21 Q499 0 439 0 L50 0 L50 54 L441 54 Q488 54 516 72.5 Q544 91 559 120.5 Q574 150 578.5 187 Q583 224 583 262 Q583 299 578.5 336.5 Q574 374 559 404 Q544 434 516 452.5 Q488 471 441 471 L50 471 L50 525 L439 525 Q499 525 539.5 504 Q580 483 604.5 447 Q629 411 640 363.5 Q651 316 651 263 Z " />
<glyph glyph-name="wide_lamed" unicode="&#xfb25;" horiz-adv-x="711" d="M466 0 L394 0 L578 470 L52 470 L52 672 L119 672 L119 525 L669 525 L466 0 Z " />
<glyph glyph-name="wide_mem" unicode="&#xfb26;" horiz-adv-x="824" d="M92 0 L92 525 L567 525 Q653 525 695.5 484.5 Q738 444 738 358 L738 0 L92 0 Z M671 349 Q671 410 647 440 Q623 470 559 470 L159 470 L159 54 L671 54 L671 349 Z " />
<glyph glyph-name="wide_resh" unicode="&#xfb27;" horiz-adv-x="744" d="M592 0 L592 349 Q592 409 560.5 440 Q529 471 469 471 L30 471 L30 525 L468 525 Q561 525 610 476 Q659 427 659 335 L659 0 L592 0 Z " />
<glyph glyph-name="wide_tav" unicode="&#xfb28;" horiz-adv-x="953" d="M795 0 L795 470 L240 470 L240 107 Q240 59 211 29.5 Q182 0 134 0 L56 0 L56 54 L123 54 Q145 54 159 70 Q173 86 173 107 L173 470 L76 470 L76 525 L862 525 L862 0 L795 0 Z " />
<glyph glyph-name="uniFB29" unicode="&#xfb29;" horiz-adv-x="460" d="M428 209 L32 209 L32 317 L176 317 L176 459 L284 459 L284 317 L428 317 L428 209 Z " />
<glyph glyph-name="shin_shindot" unicode="&#xfb2a;" horiz-adv-x="694" d="M610 342 Q604 284 587.5 223 Q571 162 539.5 112.5 Q508 63 460 31.5 Q412 0 342 0 L130 0 L68 525 L134 525 L165 262 L213 262 Q235 262 250.5 272.5 Q266 283 276 299.5 Q286 316 291.5 336 Q297 356 299 374 Q304 412 307.5 449.5 Q311 487 315 525 L380 525 Q375 484 371.5 443.5 Q368 403 363 362 Q360 332 349 305.5 Q338 279 320 259.5 Q302 240 277 228.5 Q252 217 220 217 L170 217 L189 54 L319 54 Q379 54 420 79 Q461 104 486.5 144 Q512 184 525.5 234 Q539 284 544 335 L564 525 L629 525 L610 342 Z M562 568 L562 635 L632 635 L632 568 L562 568 Z " />
<glyph glyph-name="shin_sindot" unicode="&#xfb2b;" horiz-adv-x="694" d="M614 342 Q608 284 591.5 223 Q575 162 543.5 112.5 Q512 63 464 31.5 Q416 0 346 0 L134 0 L72 525 L138 525 L169 262 L217 262 Q239 262 254.5 272.5 Q270 283 280 299.5 Q290 316 295.5 336 Q301 356 303 374 Q308 412 311.5 449.5 Q315 487 319 525 L384 525 Q379 484 375.5 443.5 Q372 403 367 362 Q364 332 353 305.5 Q342 279 324 259.5 Q306 240 281 228.5 Q256 217 224 217 L174 217 L193 54 L323 54 Q383 54 424 79 Q465 104 490.5 144 Q516 184 529.5 234 Q543 284 548 335 L568 525 L633 525 L614 342 Z M68 570 L68 637 L138 637 L138 570 L68 570 Z " />
<glyph glyph-name="shin_shindot_dagesh" unicode="&#xfb2c;" horiz-adv-x="694" d="M564 570 L564 637 L634 637 L634 570 L564 570 Z M610 342 Q604 284 587.5 223 Q571 162 539.5 112.5 Q508 63 460 31.5 Q412 0 342 0 L130 0 L68 525 L134 525 L165 262 L213 262 Q235 262 250.5 272.5 Q266 283 276 299.5 Q286 316 291.5 336 Q297 356 299 374 Q304 412 307.5 449.5 Q311 487 315 525 L380 525 Q375 484 371.5 443.5 Q368 403 363 362 Q360 332 349 305.5 Q338 279 320 259.5 Q302 240 277 228.5 Q252 217 220 217 L170 217 L189 54 L319 54 Q379 54 420 79 Q461 104 486.5 144 Q512 184 525.5 234 Q539 284 544 335 L564 525 L629 525 L610 342 Z M365 164 L365 231 L435 231 L435 164 L365 164 Z " />
<glyph glyph-name="shin_sindot_dagesh" unicode="&#xfb2d;" horiz-adv-x="694" d="M68 569 L68 636 L138 636 L138 569 L68 569 Z M614 342 Q608 284 591.5 223 Q575 162 543.5 112.5 Q512 63 464 31.5 Q416 0 346 0 L134 0 L72 525 L138 525 L169 262 L217 262 Q239 262 254.5 272.5 Q270 283 280 299.5 Q290 316 295.5 336 Q301 356 303 374 Q308 412 311.5 449.5 Q315 487 319 525 L384 525 Q379 484 375.5 443.5 Q372 403 367 362 Q364 332 353 305.5 Q342 279 324 259.5 Q306 240 281 228.5 Q256 217 224 217 L174 217 L193 54 L323 54 Q383 54 424 79 Q465 104 490.5 144 Q516 184 529.5 234 Q543 284 548 335 L568 525 L633 525 L614 342 Z M369 164 L369 231 L439 231 L439 164 L369 164 Z " />
<glyph glyph-name="alef_patah" unicode="&#xfb2e;" horiz-adv-x="578" d="M443 0 Q417 43 390.5 85.5 Q364 128 337 170 Q316 203 294 235.5 Q272 268 248 299 Q241 299 233 296.5 Q225 294 220 291 Q202 282 189.5 266.5 Q177 251 169 232.5 Q161 214 157 194 Q153 174 151 155 Q146 116 142.5 77.5 Q139 39 135 0 L68 0 Q72 39 75.5 78.5 Q79 118 84 157 Q89 208 111.5 249.5 Q134 291 180 317 Q188 322 198 326 Q208 330 218 332 L59 525 L141 525 L326 293 Q338 295 351 300 Q384 315 400 343.5 Q416 372 422 407 Q427 436 431 466 Q435 496 440 525 L507 525 Q502 498 498.5 471 Q495 444 490 417 Q482 370 459.5 332.5 Q437 295 394 272 Q385 267 374 263 Q363 259 352 257 L519 0 L443 0 Z " />
<glyph glyph-name="alef_qamats" unicode="&#xfb2f;" horiz-adv-x="578" d="M443 0 Q417 43 390.5 85.5 Q364 128 337 170 Q316 203 294 235.5 Q272 268 248 299 Q241 299 233 296.5 Q225 294 220 291 Q202 282 189.5 266.5 Q177 251 169 232.5 Q161 214 157 194 Q153 174 151 155 Q146 116 142.5 77.5 Q139 39 135 0 L68 0 Q72 39 75.5 78.5 Q79 118 84 157 Q89 208 111.5 249.5 Q134 291 180 317 Q188 322 198 326 Q208 330 218 332 L59 525 L141 525 L326 293 Q338 295 351 300 Q384 315 400 343.5 Q416 372 422 407 Q427 436 431 466 Q435 496 440 525 L507 525 Q502 498 498.5 471 Q495 444 490 417 Q482 370 459.5 332.5 Q437 295 394 272 Q385 267 374 263 Q363 259 352 257 L519 0 L443 0 Z " />
<glyph glyph-name="alef_hiriq" unicode="&#xfb30;" horiz-adv-x="578" d="M443 0 Q417 43 390.5 85.5 Q364 128 337 170 Q316 203 294 235.5 Q272 268 248 299 Q241 299 233 296.5 Q225 294 220 291 Q202 282 189.5 266.5 Q177 251 169 232.5 Q161 214 157 194 Q153 174 151 155 Q146 116 142.5 77.5 Q139 39 135 0 L68 0 Q72 39 75.5 78.5 Q79 118 84 157 Q89 208 111.5 249.5 Q134 291 180 317 Q188 322 198 326 Q208 330 218 332 L59 525 L141 525 L326 293 Q338 295 351 300 Q384 315 400 343.5 Q416 372 422 407 Q427 436 431 466 Q435 496 440 525 L507 525 Q502 498 498.5 471 Q495 444 490 417 Q482 370 459.5 332.5 Q437 295 394 272 Q385 267 374 263 Q363 259 352 257 L519 0 L443 0 Z M249 -151 L249 -84 L319 -84 L319 -151 L249 -151 Z " />
<glyph glyph-name="bet_dagesh" unicode="&#xfb31;" horiz-adv-x="507" d="M50 0 L50 54 L316 54 L316 471 L50 471 L50 525 L383 525 L383 54 L457 54 L457 0 L50 0 Z M152 234 L152 301 L222 301 L222 234 L152 234 Z " />
<glyph glyph-name="gimel_dagesh" unicode="&#xfb32;" horiz-adv-x="384" d="M245 0 L232 177 Q221 143 206.5 110 Q192 77 170 51 Q148 25 118.5 9 Q89 -7 48 -7 L48 61 L62 61 Q89 61 112.5 76.5 Q136 92 155 115.5 Q174 139 188 165.5 Q202 192 209 214 Q223 256 223 297 Q223 339 220 384 Q217 429 215 471 L77 471 L77 525 L277 525 L306 0 L245 0 Z M104 264 L104 331 L174 331 L174 264 L104 264 Z " />
<glyph glyph-name="dalet_dagesh" unicode="&#xfb33;" horiz-adv-x="497" d="M374 471 L374 0 L307 0 L307 471 L30 471 L30 525 L447 525 L447 471 L374 471 Z M142 213 L142 280 L212 280 L212 213 L142 213 Z " />
<glyph glyph-name="he_dagesh" unicode="&#xfb34;" horiz-adv-x="594" d="M437 0 L437 470 L82 470 L82 525 L504 525 L504 0 L437 0 Z M90 0 L90 306 L157 306 L157 0 L90 0 Z M265 238 L265 305 L335 305 L335 238 L265 238 Z " />
<glyph glyph-name="vav_dagesh" unicode="&#xfb35;" horiz-adv-x="303" d="M146 0 L146 470 L56 470 L56 525 L213 525 L213 0 L146 0 Z M45 229 L45 296 L115 296 L115 229 L45 229 Z " />
<glyph glyph-name="zayin_dagesh" unicode="&#xfb36;" horiz-adv-x="334" d="M262 470 Q251 470 240.5 464.5 Q230 459 222 452 Q192 426 180 385.5 Q168 345 168 307 Q168 230 178.5 153 Q189 76 202 0 L136 0 Q130 32 124 69 Q118 106 113 143.5 Q108 181 104.5 217.5 Q101 254 101 286 Q101 334 118 376 Q135 418 172 450 Q186 463 201 470 L50 470 L50 525 L286 525 L286 470 L262 470 Z M12 218 L12 285 L82 285 L82 218 L12 218 Z " />
<glyph glyph-name="tet_dagesh" unicode="&#xfb38;" horiz-adv-x="594" d="M538 328 Q538 266 519.5 207 Q501 148 465.5 102 Q430 56 378 28 Q326 0 258 0 L116 0 L67 525 L134 525 L178 54 L247 54 Q305 54 347.5 77.5 Q390 101 417.5 139 Q445 177 458.5 226.5 Q472 276 472 328 Q472 355 464.5 383 Q457 411 442 433.5 Q427 456 404 470.5 Q381 485 350 485 Q342 485 329.5 484.5 Q317 484 303.5 482 Q290 480 278 476.5 Q266 473 259 467 L259 519 Q265 524 278 527.5 Q291 531 305.5 532.5 Q320 534 333 534.5 Q346 535 354 535 Q399 535 433 518.5 Q467 502 490.5 473.5 Q514 445 526 407.5 Q538 370 538 328 Z M264 250 L264 317 L334 317 L334 250 L264 250 Z " />
<glyph glyph-name="yod_dagesh" unicode="&#xfb39;" horiz-adv-x="294" d="M142 242 L142 470 L52 470 L52 525 L209 525 L209 242 L142 242 Z M42 335 L42 402 L112 402 L112 335 L42 335 Z " />
<glyph glyph-name="final_kaf_dagesh" unicode="&#xfb3a;" horiz-adv-x="473" d="M314 -160 L314 471 L30 471 L30 525 L381 525 L381 -160 L314 -160 Z M145 169 L145 236 L215 236 L215 169 L145 169 Z " />
<glyph glyph-name="kaf_dagesh" unicode="&#xfb3b;" horiz-adv-x="464" d="M408 263 Q408 210 397.5 162 Q387 114 362.5 78 Q338 42 297 21 Q256 0 196 0 L50 0 L50 54 L198 54 Q245 54 273 72.5 Q301 91 316 120.5 Q331 150 335.5 187 Q340 224 340 262 Q340 299 335.5 336.5 Q331 374 316 404 Q301 434 273 452.5 Q245 471 198 471 L50 471 L50 525 L196 525 Q256 525 296.5 504 Q337 483 361.5 447 Q386 411 397 363.5 Q408 316 408 263 Z M149 226 L149 293 L219 293 L219 226 L149 226 Z " />
<glyph glyph-name="lamed_dagesh" unicode="&#xfb3c;" horiz-adv-x="486" d="M241 0 L169 0 L353 470 L52 470 L52 672 L119 672 L119 525 L444 525 L241 0 Z M125 283 L125 350 L195 350 L195 283 L125 283 Z " />
<glyph glyph-name="mem_dagesh" unicode="&#xfb3e;" horiz-adv-x="634" d="M320 0 L320 54 L481 54 L481 349 Q481 409 449.5 439.5 Q418 470 358 470 L240 470 L158 0 L92 0 L174 470 L67 470 L67 525 L357 525 Q449 525 498.5 476 Q548 427 548 335 L548 0 L320 0 Z M303 217 L303 284 L373 284 L373 217 L303 217 Z " />
<glyph glyph-name="nun_dagesh" unicode="&#xfb40;" horiz-adv-x="325" d="M56 0 L56 54 L168 54 L168 470 L68 470 L68 525 L235 525 L235 0 L56 0 Z M59 232 L59 299 L129 299 L129 232 L59 232 Z " />
<glyph glyph-name="samech_dagesh" unicode="&#xfb41;" horiz-adv-x="604" d="M537 525 Q537 465 533.5 403 Q530 341 518 282.5 Q506 224 483.5 172.5 Q461 121 423.5 82.5 Q386 44 331 22 Q276 0 200 0 L103 0 L67 525 L537 525 Z M138 470 L166 54 L225 54 Q277 54 315.5 73.5 Q354 93 381.5 126 Q409 159 426 202 Q443 245 453 291 Q463 337 466.5 383.5 Q470 430 470 470 L138 470 Z M256 238 L256 305 L326 305 L326 238 L256 238 Z " />
<glyph glyph-name="final_pe_dagesh" unicode="&#xfb43;" horiz-adv-x="561" d="M409 -160 L409 352 Q409 412 377.5 441.5 Q346 471 287 471 L143 471 L143 248 L76 248 L76 525 L287 525 Q476 525 476 337 L476 -160 L409 -160 Z M230 307 L230 374 L300 374 L300 307 L230 307 Z " />
<glyph glyph-name="pe_dagesh" unicode="&#xfb44;" horiz-adv-x="573" d="M85 0 L85 54 L421 54 L421 349 Q421 409 390 440 Q359 471 299 471 L152 471 L152 255 L85 255 L85 525 L297 525 Q389 525 438.5 476 Q488 427 488 335 L488 0 L85 0 Z M247 308 L247 375 L317 375 L317 308 L247 308 Z " />
<glyph glyph-name="tsadi_dagesh" unicode="&#xfb46;" horiz-adv-x="528" d="M470 525 Q462 491 453 457 Q444 423 436 389 Q429 363 416.5 339 Q404 315 385.5 297 Q367 279 343.5 268 Q320 257 291 257 L445 0 L64 0 L64 54 L335 54 L60 525 L135 525 L273 294 Q294 294 310 302.5 Q326 311 337.5 324.5 Q349 338 356.5 355.5 Q364 373 369 391 Q377 425 385.5 458 Q394 491 402 525 L470 525 L470 525 Z M139 114 L139 181 L209 181 L209 114 L139 114 Z " />
<glyph glyph-name="qof_dagesh" unicode="&#xfb47;" horiz-adv-x="624" d="M379 6 L309 6 L493 470 L86 470 L86 525 L582 525 L379 6 Z M101 -160 L101 325 L168 325 L168 -160 L101 -160 Z M256 260 L256 327 L326 327 L326 260 L256 260 Z " />
<glyph glyph-name="resh_dagesh" unicode="&#xfb48;" horiz-adv-x="475" d="M323 0 L323 349 Q323 409 291.5 440 Q260 471 200 471 L30 471 L30 525 L199 525 Q292 525 341 476 Q390 427 390 335 L390 0 L323 0 Z M145 206 L145 273 L215 273 L215 206 L145 206 Z " />
<glyph glyph-name="shin_dagesh" unicode="&#xfb49;" horiz-adv-x="694" d="M610 342 Q604 284 587.5 223 Q571 162 539.5 112.5 Q508 63 460 31.5 Q412 0 342 0 L130 0 L68 525 L134 525 L165 262 L213 262 Q235 262 250.5 272.5 Q266 283 276 299.5 Q286 316 291.5 336 Q297 356 299 374 Q304 412 307.5 449.5 Q311 487 315 525 L380 525 Q375 484 371.5 443.5 Q368 403 363 362 Q360 332 349 305.5 Q338 279 320 259.5 Q302 240 277 228.5 Q252 217 220 217 L170 217 L189 54 L319 54 Q379 54 420 79 Q461 104 486.5 144 Q512 184 525.5 234 Q539 284 544 335 L564 525 L629 525 L610 342 Z M365 164 L365 231 L435 231 L435 164 L365 164 Z " />
<glyph glyph-name="tav_dagesh" unicode="&#xfb4a;" horiz-adv-x="675" d="M517 0 L517 470 L240 470 L240 107 Q240 59 211 29.5 Q182 0 134 0 L56 0 L56 54 L123 54 Q145 54 159 70 Q173 86 173 107 L173 470 L76 470 L76 525 L584 525 L584 0 L517 0 Z M346 211 L346 278 L416 278 L416 211 L346 211 Z " />
<glyph glyph-name="vav_holam" unicode="&#xfb4b;" horiz-adv-x="303" d="M146 0 L146 470 L56 470 L56 525 L213 525 L213 0 L146 0 Z M111 569 L111 636 L181 636 L181 569 L111 569 Z " />
<glyph glyph-name="bet_rafe" unicode="&#xfb4c;" horiz-adv-x="507" d="M50 0 L50 54 L316 54 L316 471 L50 471 L50 525 L383 525 L383 54 L457 54 L457 0 L50 0 Z M127 569 L127 610 L304 610 L304 569 L127 569 Z " />
<glyph glyph-name="kaf_rafe" unicode="&#xfb4d;" horiz-adv-x="464" d="M408 263 Q408 210 397.5 162 Q387 114 362.5 78 Q338 42 297 21 Q256 0 196 0 L50 0 L50 54 L198 54 Q245 54 273 72.5 Q301 91 316 120.5 Q331 150 335.5 187 Q340 224 340 262 Q340 299 335.5 336.5 Q331 374 316 404 Q301 434 273 452.5 Q245 471 198 471 L50 471 L50 525 L196 525 Q256 525 296.5 504 Q337 483 361.5 447 Q386 411 397 363.5 Q408 316 408 263 Z M133 569 L133 610 L310 610 L310 569 L133 569 Z " />
<glyph glyph-name="pe_rafe" unicode="&#xfb4e;" horiz-adv-x="573" d="M85 0 L85 54 L421 54 L421 349 Q421 409 390 440 Q359 471 299 471 L152 471 L152 255 L85 255 L85 525 L297 525 Q389 525 438.5 476 Q488 427 488 335 L488 0 L85 0 Z M187 570 L187 611 L364 611 L364 570 L187 570 Z " />
<glyph glyph-name="alef_lamed" unicode="&#xfb4f;" horiz-adv-x="578" d="M326 293 Q338 295 351 300 Q384 315 400 343.5 Q416 372 422 407 L440 525 L507 525 L490 417 Q482 370 459.5 332.5 Q437 295 394 272 Q385 267 374 263 Q363 259 352 257 L519 0 L443 0 Q417 43 390.5 85.5 Q364 128 337 170 L218 332 L59 525 L60 525 L60 672 L127 672 L127 525 L326 293 Z " />
<glyph glyph-name="uniFFFC" unicode="&#xfffc;" horiz-adv-x="1000" d="M1000 562 L951 562 L842 670 L842 719 L1000 719 L1000 562 Z M719 670 L562 670 L562 719 L719 719 L719 670 Z M1000 281 L951 281 L951 438 L1000 438 L1000 281 Z M870 298 Q870 181 767 181 Q725 181 700 203 L735 241 Q748 229 767 229 Q813 229 813 296 L813 532 L870 532 L870 298 Z M438 670 L281 670 L281 719 L438 719 L438 670 Z M1000 0 L842 0 L842 49 L951 158 L1000 158 L1000 0 Z M695 289 Q695 187 561 187 L444 187 L444 532 L559 532 Q680 532 680 441 Q680 396 637 371 Q695 349 695 289 Z M158 670 L49 562 L0 562 L0 719 L158 719 L158 670 Z M719 0 L562 0 L562 49 L719 49 L719 0 Z M417 359 Q417 274 377 227.5 Q337 181 262 181 Q187 181 148 227.5 Q109 274 109 359 Q109 444 148 491 Q187 538 262 538 Q337 538 377 491 Q417 444 417 359 Z M49 281 L0 281 L0 438 L49 438 L49 281 Z M438 0 L281 0 L281 49 L438 49 L438 0 Z M158 0 L0 0 L0 158 L49 158 L158 49 L158 0 Z M624 436 Q624 484 544 484 L500 484 L500 390 L550 390 Q624 390 624 436 Z M638 289 Q638 342 555 342 L500 342 L500 234 L561 234 Q638 234 638 289 Z M360 359 Q360 490 262 490 Q166 490 166 359 Q166 229 262 229 Q360 229 360 359 Z " />
<glyph glyph-name="qamats_qatan" unicode="&#x5c7;" d="" />
<glyph glyph-name="alef_dagesh" unicode="&#xdb8d;" horiz-adv-x="578" d="M443 0 Q417 43 390.5 85.5 Q364 128 337 170 Q316 203 294 235.5 Q272 268 248 299 Q241 299 233 296.5 Q225 294 220 291 Q202 282 189.5 266.5 Q177 251 169 232.5 Q161 214 157 194 Q153 174 151 155 Q146 116 142.5 77.5 Q139 39 135 0 L68 0 Q72 39 75.5 78.5 Q79 118 84 157 Q89 208 111.5 249.5 Q134 291 180 317 Q188 322 198 326 Q208 330 218 332 L59 525 L141 525 L326 293 Q338 295 351 300 Q384 315 400 343.5 Q416 372 422 407 Q427 436 431 466 Q435 496 440 525 L507 525 Q502 498 498.5 471 Q495 444 490 417 Q482 370 459.5 332.5 Q437 295 394 272 Q385 267 374 263 Q363 259 352 257 L519 0 L443 0 Z M222 87 L222 154 L292 154 L292 87 L222 87 Z " />
<glyph glyph-name="alt_lamed" unicode="&#xdb8f;" horiz-adv-x="486" d="M241 0 L169 0 L353 470 L52 470 L52 672 L119 672 L119 525 L444 525 L241 0 Z " />
<glyph glyph-name="alef_lamed_tsere" unicode="&#xdb86;" horiz-adv-x="578" d="M326 293 Q338 295 351 300 Q384 315 400 343.5 Q416 372 422 407 L440 525 L507 525 L490 417 Q482 370 459.5 332.5 Q437 295 394 272 Q385 267 374 263 Q363 259 352 257 L519 0 L443 0 Q417 43 390.5 85.5 Q364 128 337 170 L218 332 L59 525 L60 525 L60 672 L127 672 L127 525 L326 293 Z M270 -160 L270 -93 L340 -93 L340 -160 L270 -160 Z M153 -160 L153 -93 L223 -93 L223 -160 L153 -160 Z " />
<glyph glyph-name="alef_lamed_segol" unicode="&#xdb87;" horiz-adv-x="578" d="M326 293 Q338 295 351 300 Q384 315 400 343.5 Q416 372 422 407 L440 525 L507 525 L490 417 Q482 370 459.5 332.5 Q437 295 394 272 Q385 267 374 263 Q363 259 352 257 L519 0 L443 0 Q417 43 390.5 85.5 Q364 128 337 170 L218 332 L59 525 L60 525 L60 672 L127 672 L127 525 L326 293 Z M244 -254 L244 -187 L314 -187 L314 -254 L244 -254 Z M299 -161 L299 -94 L369 -94 L369 -161 L299 -161 Z M182 -161 L182 -94 L252 -94 L252 -161 L182 -161 Z " />
<glyph glyph-name="alef_lamed_hatafseg" unicode="&#xdb88;" horiz-adv-x="578" d="M326 293 Q338 295 351 300 Q384 315 400 343.5 Q416 372 422 407 L440 525 L507 525 L490 417 Q482 370 459.5 332.5 Q437 295 394 272 Q385 267 374 263 Q363 259 352 257 L519 0 L443 0 Q417 43 390.5 85.5 Q364 128 337 170 L218 332 L59 525 L60 525 L60 672 L127 672 L127 525 L326 293 Z M123 -163 L123 -96 L193 -96 L193 -163 L123 -163 Z M237 -162 L237 -95 L307 -95 L307 -162 L237 -162 Z M350 -260 L350 -193 L420 -193 L420 -260 L350 -260 Z M348 -163 L348 -96 L418 -96 L418 -163 L348 -163 Z M181 -254 L181 -187 L251 -187 L251 -254 L181 -254 Z " />
<glyph glyph-name="hatafsegol_meteg" unicode="&#xdb90;" d="" />
<glyph glyph-name="hatafpatah_meteg" unicode="&#xdb91;" d="" />
<glyph glyph-name="hatafqamats_meteg" unicode="&#xdb92;" d="" />
<glyph glyph-name="sheva_na" unicode="&#xdb93;" d="" />
<glyph glyph-name="nbspace" unicode="&#xa0;" horiz-adv-x="250" d="" />
<glyph glyph-name="alef_dag_hazak" unicode="&#xdba0;" horiz-adv-x="578" d="M443 0 Q417 43 390.5 85.5 Q364 128 337 170 Q316 203 294 235.5 Q272 268 248 299 Q241 299 233 296.5 Q225 294 220 291 Q202 282 189.5 266.5 Q177 251 169 232.5 Q161 214 157 194 Q153 174 151 155 Q146 116 142.5 77.5 Q139 39 135 0 L68 0 Q72 39 75.5 78.5 Q79 118 84 157 Q89 208 111.5 249.5 Q134 291 180 317 Q188 322 198 326 Q208 330 218 332 L59 525 L141 525 L326 293 Q338 295 351 300 Q384 315 400 343.5 Q416 372 422 407 Q427 436 431 466 Q435 496 440 525 L507 525 Q502 498 498.5 471 Q495 444 490 417 Q482 370 459.5 332.5 Q437 295 394 272 Q385 267 374 263 Q363 259 352 257 L519 0 L443 0 Z " />
<glyph glyph-name="bet_dag_hazak" unicode="&#xdba1;" horiz-adv-x="507" d="M50 0 L50 54 L316 54 L316 471 L50 471 L50 525 L383 525 L383 54 L457 54 L457 0 L50 0 Z " />
<glyph glyph-name="gimel_dag_hazak" unicode="&#xdba2;" horiz-adv-x="384" d="M245 0 L232 177 Q221 143 206.5 110 Q192 77 170 51 Q148 25 118.5 9 Q89 -7 48 -7 L48 61 L62 61 Q89 61 112.5 76.5 Q136 92 155 115.5 Q174 139 188 165.5 Q202 192 209 214 Q223 256 223 297 Q223 339 220 384 Q217 429 215 471 L77 471 L77 525 L277 525 L306 0 L245 0 Z " />
<glyph glyph-name="dalet_dag_hazak" unicode="&#xdba3;" horiz-adv-x="497" d="M374 471 L374 0 L307 0 L307 471 L30 471 L30 525 L447 525 L447 471 L374 471 Z " />
<glyph glyph-name="vav_dag_hazak" unicode="&#xdba4;" horiz-adv-x="303" d="M180 0 L180 470 L90 470 L90 525 L247 525 L247 0 L180 0 Z " />
<glyph glyph-name="zayin_dag_hazak" unicode="&#xdba5;" horiz-adv-x="334" d="M329 470 Q318 470 307.5 464.5 Q297 459 289 452 Q259 426 247 385.5 Q235 345 235 307 Q235 230 245.5 153 Q256 76 269 0 L203 0 Q197 32 191 69 Q185 106 180 143.5 Q175 181 171.5 217.5 Q168 254 168 286 Q168 334 185 376 Q202 418 239 450 Q253 463 268 470 L117 470 L117 525 L353 525 L353 470 L329 470 Z " />
<glyph glyph-name="tet_dag_hazak" unicode="&#xdba6;" horiz-adv-x="594" d="M538 328 Q538 266 519.5 207 Q501 148 465.5 102 Q430 56 378 28 Q326 0 258 0 L116 0 L67 525 L134 525 L178 54 L247 54 Q305 54 347.5 77.5 Q390 101 417.5 139 Q445 177 458.5 226.5 Q472 276 472 328 Q472 355 464.5 383 Q457 411 442 433.5 Q427 456 404 470.5 Q381 485 350 485 Q342 485 329.5 484.5 Q317 484 303.5 482 Q290 480 278 476.5 Q266 473 259 467 L259 519 Q265 524 278 527.5 Q291 531 305.5 532.5 Q320 534 333 534.5 Q346 535 354 535 Q399 535 433 518.5 Q467 502 490.5 473.5 Q514 445 526 407.5 Q538 370 538 328 Z " />
<glyph glyph-name="yod_dag_hazak" unicode="&#xdba7;" horiz-adv-x="294" d="M183 242 L183 470 L93 470 L93 525 L250 525 L250 242 L183 242 Z " />
<glyph glyph-name="fina_kaf_dag_hazak" unicode="&#xdba8;" horiz-adv-x="473" d="M314 -160 L314 471 L30 471 L30 525 L381 525 L381 -160 L314 -160 Z " />
<glyph glyph-name="kaf_dag_hazak" unicode="&#xdba9;" horiz-adv-x="464" d="M408 263 Q408 210 397.5 162 Q387 114 362.5 78 Q338 42 297 21 Q256 0 196 0 L50 0 L50 54 L198 54 Q245 54 273 72.5 Q301 91 316 120.5 Q331 150 335.5 187 Q340 224 340 262 Q340 299 335.5 336.5 Q331 374 316 404 Q301 434 273 452.5 Q245 471 198 471 L50 471 L50 525 L196 525 Q256 525 296.5 504 Q337 483 361.5 447 Q386 411 397 363.5 Q408 316 408 263 Z " />
<glyph glyph-name="lamed_dag_hazak" unicode="&#xdbaa;" horiz-adv-x="486" d="M241 0 L169 0 L353 470 L52 470 L52 672 L119 672 L119 525 L444 525 L241 0 Z " />
<glyph glyph-name="mem_dag_hazak" unicode="&#xdbab;" horiz-adv-x="634" d="M320 0 L320 54 L481 54 L481 349 Q481 409 449.5 439.5 Q418 470 358 470 L240 470 L158 0 L92 0 L174 470 L67 470 L67 525 L357 525 Q449 525 498.5 476 Q548 427 548 335 L548 0 L320 0 Z " />
<glyph glyph-name="nun_dag_hazak" unicode="&#xdbac;" horiz-adv-x="325" d="M67 0 L67 54 L179 54 L179 470 L79 470 L79 525 L246 525 L246 0 L67 0 Z " />
<glyph glyph-name="samech_dag_hazak" unicode="&#xdbad;" horiz-adv-x="604" d="M537 525 Q537 465 533.5 403 Q530 341 518 282.5 Q506 224 483.5 172.5 Q461 121 423.5 82.5 Q386 44 331 22 Q276 0 200 0 L103 0 L67 525 L537 525 Z M138 470 L166 54 L225 54 Q277 54 315.5 73.5 Q354 93 381.5 126 Q409 159 426 202 Q443 245 453 291 Q463 337 466.5 383.5 Q470 430 470 470 L138 470 Z " />
<glyph glyph-name="final_pe_dag_hazak" unicode="&#xdbae;" horiz-adv-x="561" d="M409 -160 L409 352 Q409 412 377.5 441.5 Q346 471 287 471 L143 471 L143 248 L76 248 L76 525 L287 525 Q476 525 476 337 L476 -160 L409 -160 Z " />
<glyph glyph-name="pe_dag_hazak" unicode="&#xdbaf;" horiz-adv-x="573" d="M85 0 L85 54 L421 54 L421 349 Q421 409 390 440 Q359 471 299 471 L152 471 L152 255 L85 255 L85 525 L297 525 Q389 525 438.5 476 Q488 427 488 335 L488 0 L85 0 Z " />
<glyph glyph-name="tsadi_dag_hazak" unicode="&#xdbb0;" horiz-adv-x="528" d="M470 525 Q462 491 453 457 Q444 423 436 389 Q429 363 416.5 339 Q404 315 385.5 297 Q367 279 343.5 268 Q320 257 291 257 L445 0 L64 0 L64 54 L335 54 L60 525 L135 525 L273 294 Q294 294 310 302.5 Q326 311 337.5 324.5 Q349 338 356.5 355.5 Q364 373 369 391 Q377 425 385.5 458 Q394 491 402 525 L470 525 L470 525 Z " />
<glyph glyph-name="qof_dag_hazak" unicode="&#xdbb1;" horiz-adv-x="624" d="M379 6 L309 6 L493 470 L86 470 L86 525 L582 525 L379 6 Z M101 -160 L101 325 L168 325 L168 -160 L101 -160 Z " />
<glyph glyph-name="resh_dag_hazak" unicode="&#xdbb2;" horiz-adv-x="475" d="M323 0 L323 349 Q323 409 291.5 440 Q260 471 200 471 L30 471 L30 525 L199 525 Q292 525 341 476 Q390 427 390 335 L390 0 L323 0 Z " />
<glyph glyph-name="shin_dag_hazak" unicode="&#xdbb3;" horiz-adv-x="643" d="M610 342 Q604 284 587.5 223 Q571 162 539.5 112.5 Q508 63 460 31.5 Q412 0 342 0 L130 0 L68 525 L134 525 L165 262 L213 262 Q235 262 250.5 272.5 Q266 283 276 299.5 Q286 316 291.5 336 Q297 356 299 374 Q304 412 307.5 449.5 Q311 487 315 525 L380 525 Q375 484 371.5 443.5 Q368 403 363 362 Q360 332 349 305.5 Q338 279 320 259.5 Q302 240 277 228.5 Q252 217 220 217 L170 217 L189 54 L319 54 Q379 54 420 79 Q461 104 486.5 144 Q512 184 525.5 234 Q539 284 544 335 L564 525 L629 525 L610 342 Z " />
<glyph glyph-name="tav_dag_hazak" unicode="&#xdbb4;" horiz-adv-x="675" d="M517 0 L517 470 L240 470 L240 107 Q240 59 211 29.5 Q182 0 134 0 L56 0 L56 54 L123 54 Q145 54 159 70 Q173 86 173 107 L173 470 L76 470 L76 525 L584 525 L584 0 L517 0 Z " />
<glyph glyph-name="lamed_hol_dag_hazak" unicode="&#xdbb5;" horiz-adv-x="486" d="M350 0 L278 0 L462 470 L161 470 L161 672 L228 672 L228 525 L553 525 L350 0 Z M52 590 L52 657 L122 657 L122 590 L52 590 Z " />
<glyph glyph-name="shin_shd_dag_hazak" unicode="&#xdbb6;" horiz-adv-x="694" d="M610 342 Q604 284 587.5 223 Q571 162 539.5 112.5 Q508 63 460 31.5 Q412 0 342 0 L130 0 L68 525 L134 525 L165 262 L213 262 Q235 262 250.5 272.5 Q266 283 276 299.5 Q286 316 291.5 336 Q297 356 299 374 Q304 412 307.5 449.5 Q311 487 315 525 L380 525 Q375 484 371.5 443.5 Q368 403 363 362 Q360 332 349 305.5 Q338 279 320 259.5 Q302 240 277 228.5 Q252 217 220 217 L170 217 L189 54 L319 54 Q379 54 420 79 Q461 104 486.5 144 Q512 184 525.5 234 Q539 284 544 335 L564 525 L629 525 L610 342 Z M564 570 L564 637 L634 637 L634 570 L564 570 Z " />
<glyph glyph-name="shin_sd_dag_hazak" unicode="&#xdbb7;" horiz-adv-x="694" d="M618 342 Q612 284 595.5 223 Q579 162 547.5 112.5 Q516 63 468 31.5 Q420 0 350 0 L138 0 L76 525 L142 525 L173 262 L221 262 Q243 262 258.5 272.5 Q274 283 284 299.5 Q294 316 299.5 336 Q305 356 307 374 Q312 412 315.5 449.5 Q319 487 323 525 L388 525 Q383 484 379.5 443.5 Q376 403 371 362 Q368 332 357 305.5 Q346 279 328 259.5 Q310 240 285 228.5 Q260 217 228 217 L178 217 L197 54 L327 54 Q387 54 428 79 Q469 104 494.5 144 Q520 184 533.5 234 Q547 284 552 335 L572 525 L637 525 L618 342 Z M68 569 L68 636 L138 636 L138 569 L68 569 Z " />
</font>
</svg>
